<?xml version="1.0" encoding="UTF-8" standalone="no"?>
<!DOCTYPE svg PUBLIC "-//W3C//DTD SVG 1.1//EN" "http://www.w3.org/Graphics/SVG/1.1/DTD/svg11.dtd">
<svg width="100%" height="100%" viewBox="0 0 300 81" version="1.1" xmlns="http://www.w3.org/2000/svg" xmlns:xlink="http://www.w3.org/1999/xlink" xml:space="preserve" xmlns:serif="http://www.serif.com/" style="fill-rule:evenodd;clip-rule:evenodd;stroke-linejoin:round;stroke-miterlimit:1.41421;">
    <g transform="matrix(1,0,0,1,-2010.31,-527.849)">
        <g transform="matrix(1,0,0,1,195.507,-75.7851)">
            <g transform="matrix(2.55839,0,0,2.55839,182.908,-2201.64)">
                <g transform="matrix(0.390871,0,0,0.390871,-146.707,741.925)">
                    <g>
                        <path d="M2088.1,947.577C2088.1,969.906 2069.99,988.009 2047.66,988.009C2025.33,988.009 2007.23,969.906 2007.23,947.577C2007.23,925.244 2025.33,907.138 2047.66,907.138C2069.99,907.138 2088.1,925.244 2088.1,947.577ZM2063.03,930.364L2024.69,930.364L2024.69,939.67L2063.02,939.67L2063.02,955.489L2032.3,955.489L2032.3,952.236L2059.77,952.236L2059.77,942.926L2033.93,942.926C2027.89,942.926 2023,947.826 2023,953.854C2023,959.899 2027.89,964.787 2033.93,964.787L2072.32,964.787L2072.32,939.658C2072.32,934.534 2068.17,930.372 2063.03,930.364Z" style="fill:rgb(157,157,157);fill-rule:nonzero;"/>
                    </g>
                </g>
                <g transform="matrix(0.65647,0,0,0.65647,456.026,927.277)">
                    <g transform="matrix(1,0,0,1,448.06,290.099)">
                        <path d="M0,-13.082L-12.077,-13.082L-12.077,0L-8.446,0L-8.446,-9.45L0,-9.45L0,-13.082Z" style="fill:rgb(157,157,157);fill-rule:nonzero;"/>
                    </g>
                    <g transform="matrix(1,0,0,1,0,-54.384)">
                        <rect x="401.461" y="331.375" width="12.247" height="3.634" style="fill:rgb(157,157,157);"/>
                    </g>
                    <g transform="matrix(1,0,0,1,400.189,290.099)">
                        <path d="M0,-17.133L-3.631,-17.133L-3.631,-3.632C-3.631,-1.627 -2.01,0 -0.006,0L13.519,0L13.519,-3.632L0,-3.632L0,-17.133Z" style="fill:rgb(157,157,157);fill-rule:nonzero;"/>
                    </g>
                    <g transform="matrix(1,0,0,1,374.279,286.467)">
                        <path d="M0,-6.177L0,-9.809L-13.497,-9.809C-15.495,-9.809 -17.117,-8.184 -17.123,-6.188L-17.123,0.009C-17.117,2.01 -15.495,3.632 -13.497,3.632L0,3.632L0,0L-13.488,0L-13.488,-6.177L0,-6.177Z" style="fill:rgb(157,157,157);fill-rule:nonzero;"/>
                    </g>
                    <g transform="matrix(1,0,0,1,352.02,290.098)">
                        <path d="M0,-13.44L-0.007,-13.44L-14.971,-13.44L-14.971,-9.808L-0.007,-9.808L-0.007,-3.631L-12,-3.631L-12,-4.904L-1.278,-4.904L-1.278,-8.537L-11.366,-8.537C-13.722,-8.537 -15.631,-6.625 -15.631,-4.266C-15.631,-1.909 -13.722,0 -11.366,0L3.628,0L3.628,-9.808L3.628,-9.813C3.623,-11.815 2.001,-13.44 0,-13.44" style="fill:rgb(157,157,157);fill-rule:nonzero;"/>
                    </g>
                    <g transform="matrix(1,0,0,1,391.417,290.098)">
                        <path d="M0,-13.44L-0.003,-13.44L-14.972,-13.44L-14.972,-9.808L-0.003,-9.808L-0.003,-3.631L-11.998,-3.631L-11.998,-4.904L-1.272,-4.904L-1.272,-8.537L-11.365,-8.537C-13.721,-8.537 -15.633,-6.625 -15.633,-4.266C-15.633,-1.909 -13.721,0 -11.365,0L3.631,0L3.631,-9.808L3.631,-9.813C3.628,-11.815 2.006,-13.44 0,-13.44" style="fill:rgb(157,157,157);fill-rule:nonzero;"/>
                    </g>
                    <g transform="matrix(1,0,0,1,430.842,290.098)">
                        <path d="M0,-13.44L-0.005,-13.44L-14.967,-13.44L-14.967,-9.808L-0.005,-9.808L-0.005,-3.631L-11.997,-3.631L-11.997,-4.904L-1.271,-4.904L-1.271,-8.537L-11.36,-8.537C-13.714,-8.537 -15.628,-6.625 -15.628,-4.266C-15.628,-1.909 -13.714,0 -11.36,0L3.634,0L3.634,-9.808L3.634,-9.813C3.629,-11.815 2.004,-13.44 0,-13.44" style="fill:rgb(157,157,157);fill-rule:nonzero;"/>
                    </g>
                    <g transform="matrix(1,0,0,1,451.894,280.058)">
                        <path d="M0,-2.473L-2.715,-2.473L-2.715,-2.025L-1.581,-2.025L-1.581,0L-1.134,0L-1.134,-2.025L0,-2.025L0,-2.473Z" style="fill:rgb(157,157,157);fill-rule:nonzero;"/>
                    </g>
                    <g transform="matrix(1,0,0,1,452.794,279.501)">
                        <path d="M0,-1.358L0.916,0.558L1.521,0.558L2.366,-1.206L2.366,0.558L2.816,0.558L2.816,-1.916L2.21,-1.916L1.219,0.148L0.229,-1.916L-0.452,-1.916L-0.452,0.558L0,0.558L0,-1.358Z" style="fill:rgb(157,157,157);fill-rule:nonzero;"/>
                    </g>
                </g>
            </g>
        </g>
    </g>
</svg>
