<svg width="64" height="64" fill="none" xmlns="http://www.w3.org/2000/svg"><circle cx="32" cy="32" r="32" fill="url(#a)" fill-opacity=".65"/><path d="M8 32C8 18.745 18.745 8 32 8s24 10.745 24 24-10.745 24-24 24S8 45.255 8 32Z" fill="#fff"/><path d="m32.103 17.073-13.897 4.956 2.12 18.375 11.777 6.523 11.777-6.523L46 22.029l-13.897-4.956Z" fill="#DD0031"/><path d="M32.103 17.073v3.314-.015 26.555l11.777-6.523L46 22.029l-13.897-4.956Z" fill="#C3002F"/><path d="m32.103 20.372-8.688 19.48h3.24l1.746-4.36h7.374l1.747 4.36h3.239l-8.658-19.48Zm2.538 12.434h-5.076l2.538-6.105 2.538 6.105Z" fill="#fff"/><defs><linearGradient id="a" x1="37.415" y1="64" x2="-29.439" y2="1.44" gradientUnits="userSpaceOnUse"><stop stop-color="#170C3E"/><stop offset="1" stop-color="#7B0D49"/></linearGradient></defs></svg>