<?xml version="1.0" encoding="UTF-8" standalone="no"?>
<!DOCTYPE svg PUBLIC "-//W3C//DTD SVG 1.1//EN" "http://www.w3.org/Graphics/SVG/1.1/DTD/svg11.dtd">
<svg width="100%" height="100%" viewBox="0 0 80 32" version="1.1" xmlns="http://www.w3.org/2000/svg" xmlns:xlink="http://www.w3.org/1999/xlink" xml:space="preserve" xmlns:serif="http://www.serif.com/" style="fill-rule:evenodd;clip-rule:evenodd;stroke-linejoin:round;stroke-miterlimit:1.41421;">
    <g transform="matrix(1,0,0,1,-110,-42.898)">
        <g transform="matrix(1.57169,0,0,1.57169,-62.8858,-24.5243)">
            <g transform="matrix(0.187894,0,0,0.187894,85.5738,50.8459)">
                <path d="M184.9,-27.3L184.9,-41.3L130,-41.3L130,62L145.7,62L145.7,18.3L177.5,18.3L177.5,4.2L145.7,4.2L145.7,-27.3L184.9,-27.3Z" style="fill:rgb(157,157,157);fill-rule:nonzero;"/>
            </g>
            <g transform="matrix(0.187894,0,0,0.187894,85.5738,50.8459)">
                <rect x="194.4" y="-10.5" width="15.7" height="72.5" style="fill:rgb(157,157,157);fill-rule:nonzero;"/>
            </g>
            <g transform="matrix(0.187894,0,0,0.187894,85.5738,50.8459)">
                <rect x="194.4" y="-41" width="15.7" height="14.2" style="fill:rgb(157,157,157);fill-rule:nonzero;"/>
            </g>
            <g transform="matrix(0.187894,0,0,0.187894,85.5738,50.8459)">
                <path d="M279.2,34.4C279.2,21.2 274.1,12.5 262.5,8.6C273,4.1 277.2,-3.9 277.2,-14.9C277.2,-31.6 266,-42.3 249.8,-42.3C234.7,-42.3 223.4,-33.2 221.8,-16.9L229.2,-16.9C230.5,-28.5 237.6,-35.8 249.8,-35.8C261,-35.8 269.8,-28.4 269.8,-14.9C269.8,-1.4 263.3,5.9 249.3,5.9L247.6,5.9L247.6,12.4L249.3,12.4C265.1,12.4 271.8,20.5 271.8,34.5C271.8,48.5 262.2,56.6 249.9,56.6C239,56.6 229,51.1 227.8,37L220.4,37C221.6,54.9 233.8,63.1 249.9,63.1C266.5,63 279.2,52.8 279.2,34.4Z" style="fill:rgb(157,157,157);fill-rule:nonzero;"/>
            </g>
            <g transform="matrix(0.187894,0,0,0.187894,85.5738,50.8459)">
                <path d="M340,32.8C340,16.7 330.1,3.9 313.3,3.9C309.2,3.9 305.1,4.7 301.3,6.4L325,-41.4L317.6,-41.4L291,12.1C286.8,20.8 285.2,26.9 285.2,33.7C285.2,50.5 295.2,62.7 312.6,62.7C330,62.7 340,49.3 340,32.8ZM332.6,33.4C332.6,47.3 324.8,56.3 312.6,56.3C300.4,56.3 292.7,47.3 292.7,33.4C292.7,19.5 300.4,10.5 312.6,10.5C325.8,10.5 332.6,21 332.6,33.4ZM400.9,35.3L400.9,-14.7C400.9,-30.8 389.7,-42.3 373.8,-42.3C357.9,-42.3 346.7,-30.8 346.7,-14.7L346.7,35.3C346.7,51.4 357.9,62.9 373.8,62.9C389.7,62.9 401,51.4 400.9,35.3ZM393.5,34.6C393.5,46.8 386.7,56.4 373.8,56.4C360.9,56.4 354.1,46.8 354.1,34.6L354.1,-13.9C354.1,-26.1 360.9,-35.7 373.8,-35.7C386.7,-35.7 393.5,-26.1 393.5,-13.9L393.5,34.6Z" style="fill:rgb(157,157,157);fill-rule:nonzero;"/>
            </g>
        </g>
    </g>
</svg>
