<svg width="300" height="47" viewBox="0 0 300 47" fill="none" xmlns="http://www.w3.org/2000/svg">
<path d="M6.9544 6.54709C7.59002 6.07563 7.90879 5.27394 7.90879 4.14107C7.90879 3.07216 7.59956 2.30674 6.98207 1.84099C6.36554 1.37716 5.45887 1.14524 4.26301 1.14524H2.35423V7.25334H4.22388C5.40733 7.25334 6.31686 7.01761 6.9544 6.54709ZM7.86011 1.17292C8.6933 1.81618 9.11132 2.7992 9.11132 4.12199C9.11132 5.52208 8.67516 6.54996 7.80285 7.20467C6.93244 7.86129 5.73946 8.18865 4.22388 8.18865H2.35423V13.2851H1.20801V0.208984H4.28115C5.83394 0.208984 7.02693 0.530614 7.86011 1.17292Z" fill="#0A3147"/>
<path d="M14.0349 0.209991H12.8896V13.2851H14.0349V0.209991Z" fill="#0A3147"/>
<path d="M22.2442 1.22162V13.2851H21.117V1.22162H17.2432V0.209015H26.2144L26.0808 1.22162H22.2442Z" fill="#0A3147"/>
<path d="M32.4932 1.22162V13.2851H31.3661V1.22162H27.4922V0.209015H36.4635L36.3308 1.22162H32.4932Z" fill="#0A3147"/>
<path d="M44.3362 0.353125C44.9155 0.587906 45.4786 0.954392 46.0264 1.45067L45.3392 2.1951C44.8553 1.76276 44.3782 1.45067 43.9076 1.25884C43.4362 1.06892 42.9017 0.973479 42.3043 0.973479C41.4902 0.973479 40.8335 1.17295 40.3382 1.57379C39.8419 1.97464 39.5938 2.51387 39.5938 3.18767C39.5938 3.64482 39.6854 4.02467 39.8696 4.32339C40.0548 4.62212 40.364 4.8903 40.7963 5.12508C41.2287 5.35986 41.8462 5.59846 42.6469 5.84087C43.5125 6.10715 44.213 6.39442 44.7475 6.69983C45.281 7.00523 45.6952 7.39939 45.9873 7.88327C46.2803 8.36619 46.4272 8.97796 46.4272 9.7157C46.4272 10.4534 46.2488 11.1091 45.8928 11.6808C45.5368 12.2544 45.03 12.7001 44.3753 13.0179C43.7196 13.3367 42.959 13.4951 42.0933 13.4951C40.4642 13.4951 39.0717 12.9482 37.9141 11.8535L38.6003 11.1091C39.0975 11.5672 39.6186 11.9175 40.1664 12.158C40.7123 12.4004 41.3499 12.5216 42.0752 12.5216C43.0162 12.5216 43.7836 12.2735 44.3753 11.7772C44.9661 11.2799 45.2629 10.6061 45.2629 9.75388C45.2629 9.21942 45.1636 8.7804 44.9661 8.43682C44.7685 8.09228 44.4516 7.79738 44.0117 7.54923C43.5736 7.30014 42.9532 7.05009 42.1516 6.79526C40.8154 6.38774 39.861 5.91722 39.2884 5.38277C38.7158 4.84831 38.4294 4.12202 38.4294 3.20675C38.4294 2.59594 38.5907 2.04526 38.9152 1.55566C39.2397 1.0651 39.6921 0.684299 40.2705 0.410388C40.8507 0.136478 41.515 0 42.2651 0C43.0678 0 43.7588 0.118345 44.3362 0.353125Z" fill="#0A3147"/>
<path d="M57.4605 9.65843C57.4605 8.7174 57.1704 8.01592 56.592 7.55877C56.0127 7.10066 55.2463 6.87161 54.2919 6.87161H51.5242V12.3307H53.9474C56.2885 12.3307 57.4605 11.4403 57.4605 9.65843ZM51.5242 5.95444H54.1583C54.9733 5.95444 55.6281 5.74161 56.1253 5.315C56.6206 4.89029 56.8688 4.30144 56.8688 3.55033C56.8688 2.69806 56.5796 2.08629 56.0003 1.7179C55.42 1.34855 54.5591 1.16435 53.4139 1.16435H51.5242V5.95444ZM57.8041 7.30013C58.3633 7.82886 58.643 8.61433 58.643 9.65843C58.643 10.8791 58.2307 11.7896 57.4032 12.387C56.5758 12.9854 55.4238 13.2851 53.9474 13.2851H50.3789V0.209961H53.2993C54.814 0.209961 55.9812 0.483871 56.802 1.03074C57.6227 1.5776 58.0341 2.39265 58.0341 3.47398C58.0341 4.27471 57.8136 4.92465 57.3736 5.42094C56.9356 5.91722 56.3534 6.22835 55.6281 6.35624C56.5185 6.4574 57.2429 6.77331 57.8041 7.30013Z" fill="#0A3147"/>
<path d="M69.8867 12.3212C69.149 13.1028 68.0858 13.4941 66.6991 13.4941C65.2875 13.4941 64.2176 13.1066 63.4923 12.3307C62.767 11.5539 62.4043 10.5107 62.4043 9.19937V0.209961H63.5496V9.10488C63.5496 10.1986 63.8073 11.0394 64.3226 11.6245C64.838 12.2105 65.6301 12.5025 66.6991 12.5025C67.768 12.5025 68.5563 12.2067 69.0659 11.6149C69.5746 11.0232 69.8295 10.1862 69.8295 9.10488V0.209961H70.9938V9.19937C70.9938 10.4983 70.6245 11.5386 69.8867 12.3212Z" fill="#0A3147"/>
<path d="M82.4462 3.7603C82.4462 2.8689 82.1723 2.21133 81.6254 1.78471C81.0776 1.35715 80.1938 1.14527 78.9722 1.14527H76.9871V6.48891H79.1631C81.3515 6.48891 82.4462 5.57937 82.4462 3.7603ZM76.9871 7.42517V13.2842H75.8418V0.209015H79.0094C82.115 0.209015 83.6678 1.39341 83.6678 3.7603C83.6678 4.70133 83.4206 5.45244 82.9234 6.01171C82.4261 6.57194 81.7018 6.97278 80.7474 7.21424L84.3349 13.2842H82.9616L79.6031 7.42517H76.9871Z" fill="#0A3147"/>
<path d="M94.232 0.31498C94.7855 0.524946 95.3419 0.852302 95.9021 1.298L95.215 2.00521C94.7435 1.64731 94.2864 1.38676 93.8416 1.22165C93.3959 1.05559 92.8796 0.97351 92.2945 0.97351C91.5558 0.97351 90.8668 1.17011 90.2235 1.56523C89.5812 1.96035 89.0592 2.58643 88.6583 3.44538C88.2575 4.30433 88.057 5.38948 88.057 6.69986C88.057 8.64586 88.4264 10.1042 89.1641 11.0719C89.9028 12.0378 90.9336 12.5216 92.2573 12.5216C93.2747 12.5216 94.19 12.2926 95.005 11.8335V7.19614H92.4472L92.3136 6.24175H96.1312V12.4262C94.9096 13.1391 93.5992 13.4951 92.1991 13.4951C91.1178 13.4951 90.1758 13.2413 89.3741 12.7316C88.5724 12.2229 87.953 11.4594 87.513 10.4411C87.074 9.42369 86.8555 8.1763 86.8555 6.69986C86.8555 5.274 87.1084 4.05619 87.618 3.04454C88.1277 2.03288 88.7957 1.27223 89.6232 0.763544C90.4488 0.254853 91.3344 3.05176e-05 92.2755 3.05176e-05C93.0266 3.05176e-05 93.6794 0.105014 94.232 0.31498Z" fill="#0A3147"/>
<path d="M101.457 6.8907V13.2851H100.312V0.209961H101.457V5.91722H107.719V0.209961H108.864V13.2851H107.719V6.8907H101.457Z" fill="#0A3147"/>
<path d="M34.6845 21.8718H0V25.6894H6.68074V45.7316H11.4527V25.6894H34.2016L34.6845 21.8718Z" fill="#0A3147"/>
<path d="M52.0868 21.888C53.1805 22.3031 54.2342 22.9368 55.2487 23.7891L52.899 26.5196C51.539 25.3677 50.0644 24.7912 48.4744 24.7912C46.6992 24.7912 45.2829 25.5061 44.2235 26.9338C43.1632 28.3626 42.6345 30.6102 42.6345 33.6737C42.6345 36.6925 43.1632 38.9219 44.2235 40.3612C45.2829 41.8013 46.724 42.521 48.5431 42.521C49.4651 42.521 50.282 42.3482 50.9978 42.0027C51.7117 41.6572 52.5057 41.1619 53.3819 40.5177L55.5254 43.2816C54.719 44.111 53.6987 44.8029 52.4666 45.3555C51.2326 45.909 49.8573 46.1849 48.336 46.1849C46.2621 46.1849 44.4316 45.701 42.8406 44.7332C41.2506 43.7655 40.0185 42.3434 39.1424 40.4652C38.2672 38.587 37.8301 36.3241 37.8301 33.6737C37.8301 31.0702 38.2844 28.835 39.1949 26.9682C40.1044 25.1024 41.3422 23.686 42.9103 22.7173C44.4765 21.7496 46.2392 21.2667 48.1986 21.2667C49.6951 21.2667 50.9921 21.4728 52.0868 21.888Z" fill="#0A3147"/>
<path d="M63.3364 34.9869V45.6656H58.7734V21.7839H63.3364V31.3574H71.8381V21.7839H76.4354V45.6656H71.8381V34.9869H63.3364Z" fill="#0A3147"/>
<path d="M93.7142 45.6667L85.5236 26.3469C85.7307 28.0524 85.8872 29.5957 85.9893 30.9776C86.0943 32.3605 86.1459 34.0078 86.1459 35.9204V45.6667H81.999V21.7849H87.7693L96.0992 41.139C95.9608 40.218 95.8224 39.0022 95.684 37.4933C95.5466 35.9834 95.4779 34.4803 95.4779 32.9828V21.7849H99.6247V45.6667H93.7142Z" fill="#0A3147"/>
<path d="M109.82 21.784H105.224V45.6657H109.82V21.784Z" fill="#0A3147"/>
<path d="M128.363 21.888C129.457 22.3031 130.511 22.9368 131.525 23.7891L129.175 26.5196C127.815 25.3677 126.342 24.7912 124.752 24.7912C122.977 24.7912 121.56 25.5061 120.501 26.9338C119.44 28.3626 118.911 30.6102 118.911 33.6737C118.911 36.6925 119.44 38.9219 120.501 40.3612C121.56 41.8013 123 42.521 124.82 42.521C125.741 42.521 126.559 42.3482 127.274 42.0027C127.988 41.6572 128.783 41.1619 129.658 40.5177L131.803 43.2816C130.995 44.111 129.975 44.8029 128.743 45.3555C127.51 45.909 126.134 46.1849 124.612 46.1849C122.539 46.1849 120.708 45.701 119.117 44.7332C117.528 43.7655 116.295 42.3434 115.42 40.4652C114.545 38.587 114.106 36.3241 114.106 33.6737C114.106 31.0702 114.561 28.835 115.471 26.9682C116.382 25.1024 117.62 23.686 119.188 22.7173C120.753 21.7496 122.517 21.2667 124.475 21.2667C125.972 21.2667 127.268 21.4728 128.363 21.888Z" fill="#0A3147"/>
<path d="M142.239 25.2741L139.196 36.6801H145.28L142.239 25.2741ZM138.298 40.1359L136.812 45.6657H132.078L139.508 21.7839H145.142L152.537 45.6657H147.7L146.213 40.1359H138.298Z" fill="#0A3147"/>
<path d="M169.335 41.934L168.816 45.6666H155.199V21.7849H159.761V41.934H169.335Z" fill="#0A3147"/>
<path d="M185.075 22.1495C185.985 22.5065 186.901 23.0533 187.823 23.7911L186.717 25.173C185.91 24.5279 185.138 24.0679 184.401 23.7911C183.664 23.5143 182.824 23.3759 181.878 23.3759C179.644 23.3759 177.829 24.2291 176.435 25.9337C175.042 27.6382 174.345 30.2647 174.345 33.8131C174.345 36.117 174.668 38.0516 175.313 39.6187C175.957 41.1849 176.839 42.3435 177.956 43.0917C179.074 43.8409 180.346 44.215 181.775 44.215C182.881 44.215 183.82 44.048 184.591 43.714C185.363 43.38 186.164 42.8789 186.993 42.2108L188.1 43.5928C186.417 45.2296 184.286 46.0465 181.706 46.0465C179.862 46.0465 178.221 45.5751 176.781 44.6302C175.341 43.6844 174.212 42.2967 173.395 40.4652C172.576 38.6328 172.168 36.4167 172.168 33.8131C172.168 31.2096 172.594 28.9916 173.446 27.1601C174.298 25.3286 175.444 23.9466 176.886 23.0132C178.325 22.0808 179.943 21.6132 181.741 21.6132C183.054 21.6132 184.165 21.7926 185.075 22.1495Z" fill="#0A3147"/>
<path d="M194.667 26.0206C193.33 27.7833 192.661 30.4041 192.661 33.8819C192.661 37.3158 193.335 39.9079 194.684 41.6583C196.031 43.4096 197.846 44.2847 200.127 44.2847C202.499 44.2847 204.343 43.4153 205.656 41.6745C206.97 39.9356 207.625 37.3272 207.625 33.8475C207.625 30.3459 206.964 27.7251 205.638 25.9852C204.314 24.2463 202.477 23.3759 200.127 23.3759C197.823 23.3759 196.002 24.2578 194.667 26.0206ZM205.207 23.0142C206.657 23.9467 207.787 25.3344 208.594 27.1782C209.4 29.0221 209.802 31.2449 209.802 33.8475C209.802 36.4053 209.405 38.5994 208.61 40.4319C207.815 42.2633 206.693 43.6568 205.241 44.6121C203.79 45.5684 202.084 46.0465 200.127 46.0465C198.214 46.0465 196.532 45.5751 195.082 44.6302C193.629 43.6854 192.5 42.3034 191.695 40.4824C190.887 38.6634 190.484 36.4626 190.484 33.8819C190.484 31.3251 190.887 29.1252 191.695 27.2813C192.5 25.4393 193.635 24.0335 195.098 23.0648C196.561 22.098 198.237 21.6141 200.127 21.6141C202.062 21.6141 203.755 22.0808 205.207 23.0142Z" fill="#0A3147"/>
<path d="M227.878 43.8008L227.601 45.6667H215.921V21.994H217.995V43.8008H227.878Z" fill="#0A3147"/>
<path d="M244.257 43.8008L243.981 45.6667H232.301V21.994H234.375V43.8008H244.257Z" fill="#0A3147"/>
<path d="M250.754 23.7214V32.5333H259.151V34.2617H250.754V43.9383H260.948V45.6657H248.68V21.993H260.706L260.465 23.7214H250.754Z" fill="#0A3147"/>
<path d="M278.176 22.1839C279.179 22.5637 280.186 23.1574 281.201 23.9629L279.956 25.2418C279.104 24.5975 278.274 24.1251 277.468 23.8254C276.661 23.5258 275.728 23.3759 274.669 23.3759C273.333 23.3759 272.082 23.7338 270.919 24.4467C269.755 25.1616 268.811 26.2964 268.085 27.8511C267.36 29.4058 266.996 31.3709 266.996 33.7435C266.996 37.269 267.664 39.9069 269.001 41.6573C270.337 43.4086 272.203 44.2838 274.6 44.2838C276.443 44.2838 278.102 43.8696 279.576 43.0402V34.6425H274.944L274.703 32.9141H281.616V44.111C279.403 45.4014 277.03 46.0465 274.496 46.0465C272.537 46.0465 270.833 45.5865 269.381 44.6646C267.93 43.7426 266.806 42.3607 266.011 40.5168C265.217 38.6739 264.819 36.4167 264.819 33.7435C264.819 31.1637 265.279 28.9572 266.201 27.1257C267.123 25.2942 268.333 23.9171 269.831 22.9961C271.327 22.0751 272.929 21.6132 274.634 21.6132C275.993 21.6132 277.174 21.804 278.176 22.1839Z" fill="#0A3147"/>
<path d="M289.804 23.7214V32.5333H298.202V34.2617H289.804V43.9383H299.999V45.6657H287.73V21.993H299.757L299.515 23.7214H289.804Z" fill="#0A3147"/>
<path d="M20.9844 45.6514H34.9824L34.0271 42.2604H20.9844V45.6514Z" fill="#0A3147"/>
<path d="M33.2197 31.8815H20.9844V35.2724H33.2197V31.8815Z" fill="#0A3147"/>
</svg>
