<?xml version="1.0" encoding="UTF-8" standalone="no"?>
<!DOCTYPE svg PUBLIC "-//W3C//DTD SVG 1.1//EN" "http://www.w3.org/Graphics/SVG/1.1/DTD/svg11.dtd">
<svg width="100%" height="100%" viewBox="0 0 300 83" version="1.1" xmlns="http://www.w3.org/2000/svg" xmlns:xlink="http://www.w3.org/1999/xlink" xml:space="preserve" xmlns:serif="http://www.serif.com/" style="fill-rule:evenodd;clip-rule:evenodd;stroke-linejoin:round;stroke-miterlimit:1.41421;">
    <g transform="matrix(1,0,0,1,-1170.6,-526.805)">
        <g transform="matrix(1,0,0,1,195.507,-75.7851)">
            <g transform="matrix(0.654593,0,0,0.654593,137.216,258.346)">
                <g transform="matrix(2.60765,0,0,2.60765,1445.98,345.274)">
                    <g>
                        <g>
                            <g transform="matrix(1,0,0,1,-200.045,323.352)">
                                <path d="M213.757,-247.824C213.757,-248.04 213.829,-248.184 214.045,-248.328C214.693,-248.544 215.917,-248.616 216.421,-247.608C216.709,-246.384 216.781,-244.944 216.277,-243.864C215.845,-243.216 214.981,-243.216 214.333,-243.36C213.685,-243.504 213.757,-244.008 213.757,-244.296L213.757,-247.824Z" style="fill:rgb(157,157,157);"/>
                            </g>
                            <g transform="matrix(0.993779,0,0,0.993779,-198.65,321.771)">
                                <path d="M238.741,-236.52C238.741,-233.856 236.581,-231.696 233.917,-231.696L214.693,-231.696C212.029,-231.696 209.797,-233.856 209.797,-236.52L209.797,-249.264C209.797,-251.928 212.029,-254.088 214.693,-254.088L217.501,-254.088C218.293,-254.088 219.013,-253.44 219.013,-252.576L219.013,-247.32C218.941,-247.536 218.869,-247.896 218.653,-248.256C217.069,-250.92 214.333,-249.336 211.309,-249.768L211.165,-249.84L211.165,-238.392L214.621,-238.392C214.189,-238.536 213.757,-239.112 213.757,-239.544L213.757,-243.072L214.909,-241.92C216.853,-241.632 218.077,-242.712 218.293,-243.072C218.725,-243.648 219.013,-244.44 219.013,-244.44L219.013,-235.728L223.477,-235.728C222.829,-235.944 222.397,-236.52 222.325,-237.096L222.325,-243.432L223.909,-241.848C225.133,-241.776 226.573,-241.92 227.581,-242.496C229.021,-243.288 229.597,-244.728 229.597,-244.728L229.597,-244.224C229.597,-242.064 230.101,-239.688 232.477,-238.824C233.341,-238.464 234.349,-238.32 235.429,-238.464C236.149,-238.464 236.869,-238.536 237.589,-238.68L237.589,-244.296L234.205,-244.296C234.781,-244.08 235.285,-243.36 235.285,-242.712C235.285,-242.064 235.285,-241.344 235.285,-240.912C235.285,-240.696 235.141,-240.48 234.925,-240.336C234.637,-240.192 234.349,-240.264 233.989,-240.336C233.629,-240.408 233.197,-240.624 232.981,-240.984C232.189,-242.424 232.189,-244.44 232.477,-246.096C232.621,-246.96 233.341,-248.04 234.277,-248.112C235.429,-248.328 236.869,-248.328 237.589,-247.32L237.589,-249.768C234.565,-250.272 232.909,-250.056 231.757,-249.264C230.749,-248.616 230.317,-247.824 230.317,-247.824C230.317,-247.824 230.461,-250.848 229.525,-252.144C228.445,-253.8 226.789,-254.088 226.501,-254.088L233.917,-254.088C236.581,-254.088 238.741,-251.928 238.741,-249.264L238.741,-236.52Z" style="fill:rgb(157,157,157);"/>
                            </g>
                            <g transform="matrix(1,0,0,1,-200.045,323.352)">
                                <path d="M222.325,-251.856C222.397,-252.144 222.613,-252.432 222.829,-252.576C223.837,-252.936 225.997,-252.936 226.573,-251.352C227.005,-250.2 226.861,-249.408 226.933,-248.4C226.861,-246.744 226.861,-244.728 225.061,-244.08C224.341,-243.864 223.549,-243.864 222.829,-244.08C222.469,-244.224 222.325,-244.728 222.325,-245.16L222.325,-251.856Z" style="fill:rgb(157,157,157);"/>
                            </g>
                        </g>
                    </g>
                </g>
                <g>
                    <g transform="matrix(2.60765,0,0,2.60765,1254.57,345.274)">
                        <g transform="matrix(1,0,0,1,-200.045,323.352)">
                            <path d="M215.557,-217.368C215.557,-215.28 213.901,-214.92 212.965,-214.92C212.749,-214.92 212.389,-214.992 212.389,-214.992L212.389,-219.6C212.389,-219.6 212.677,-219.672 213.181,-219.672C214.837,-219.672 215.557,-218.664 215.557,-217.368ZM217.717,-217.368C217.717,-218.736 216.853,-220.464 213.541,-220.464L209.797,-220.464C210.085,-220.32 210.229,-220.104 210.229,-219.672L210.229,-210.024C210.229,-209.592 210.085,-209.376 209.797,-209.232L212.749,-209.232C212.533,-209.376 212.389,-209.592 212.389,-210.024L212.389,-214.344C213.613,-213.84 215.125,-214.2 215.629,-214.416C216.133,-214.704 217.717,-215.568 217.717,-217.368Z" style="fill:rgb(157,157,157);"/>
                        </g>
                        <g transform="matrix(1,0,0,1,-200.045,323.352)">
                            <path d="M224.197,-217.368C224.197,-215.28 222.541,-214.92 221.677,-214.92C221.461,-214.92 221.101,-214.992 221.029,-214.992L221.029,-219.6C221.029,-219.6 221.389,-219.672 221.893,-219.672C223.549,-219.672 224.197,-218.664 224.197,-217.368ZM226.357,-217.368C226.357,-218.736 225.565,-220.464 222.253,-220.464L218.437,-220.464C218.725,-220.32 218.941,-220.104 218.941,-219.672L218.941,-210.024C218.941,-209.592 218.725,-209.376 218.437,-209.232L221.461,-209.232C221.173,-209.376 221.029,-209.592 221.029,-210.024L221.029,-214.344C222.325,-213.84 223.837,-214.2 224.269,-214.416C224.773,-214.704 226.357,-215.568 226.357,-217.368Z" style="fill:rgb(157,157,157);"/>
                        </g>
                        <g transform="matrix(1,0,0,1,-200.045,323.352)">
                            <path d="M237.805,-210.888C237.805,-210.6 237.949,-210.312 238.021,-210.312C236.653,-209.52 234.277,-209.088 232.981,-209.088C229.669,-209.088 226.789,-211.248 226.789,-214.776C226.789,-217.728 228.949,-220.608 233.125,-220.608C234.565,-220.608 235.717,-220.32 237.085,-219.744L237.157,-217.152C236.293,-219.384 234.205,-219.744 233.413,-219.744C230.605,-219.744 229.021,-217.656 229.021,-214.992C229.021,-212.76 230.101,-210.024 233.557,-210.024C233.917,-210.024 234.925,-210.024 235.645,-210.528L235.645,-214.2C235.645,-214.56 235.501,-214.848 235.285,-214.992L238.237,-214.992C237.949,-214.848 237.805,-214.56 237.805,-214.2L237.805,-210.888Z" style="fill:rgb(157,157,157);"/>
                        </g>
                        <g transform="matrix(1,0,0,1,-200.045,323.352)">
                            <path d="M247.813,-213.192L244.429,-213.192C245.005,-214.416 246.157,-217.224 246.157,-217.224C246.157,-217.224 247.021,-214.992 247.813,-213.192ZM252.277,-209.232C251.773,-209.52 251.629,-209.736 251.485,-210.024C251.125,-210.6 246.805,-220.824 246.805,-220.824C246.805,-220.824 242.413,-210.6 242.125,-210.024C241.909,-209.736 241.765,-209.52 241.333,-209.232L243.637,-209.232C243.205,-209.448 243.061,-209.664 243.277,-210.096C243.277,-210.24 243.709,-211.176 244.141,-212.328L248.173,-212.328C248.677,-211.176 249.109,-210.24 249.181,-210.024C249.253,-209.736 249.181,-209.448 248.749,-209.232L252.277,-209.232Z" style="fill:rgb(157,157,157);"/>
                        </g>
                        <g transform="matrix(1,0,0,1,-200.045,323.352)">
                            <path d="M255.805,-215.712C255.229,-215.712 254.797,-215.352 254.437,-214.92L254.437,-209.952C254.437,-209.52 254.653,-209.376 254.869,-209.232L252.061,-209.232C252.349,-209.376 252.565,-209.52 252.565,-209.952L252.565,-216.072C252.565,-216.504 252.205,-216.576 251.917,-216.648L254.437,-217.08L254.437,-215.712C254.869,-216.36 255.661,-217.08 256.237,-217.08C256.669,-217.08 256.741,-217.08 256.957,-216.936L256.957,-214.92C256.669,-215.352 256.237,-215.712 255.805,-215.712Z" style="fill:rgb(157,157,157);"/>
                        </g>
                        <g transform="matrix(1,0,0,1,-200.045,323.352)">
                            <path d="M260.917,-209.088C258.325,-209.088 257.101,-211.104 257.101,-213.12C257.101,-214.704 258.325,-217.08 261.205,-217.08C262.141,-217.08 263.437,-216.576 263.437,-216.576L263.437,-214.056C263.005,-215.352 262.213,-216.36 261.205,-216.36C259.837,-216.36 259.117,-214.848 259.117,-213.336C259.117,-211.608 259.909,-210.168 261.565,-210.168C262.645,-210.168 263.365,-210.672 263.797,-211.176C263.725,-210.6 262.861,-209.088 260.917,-209.088Z" style="fill:rgb(157,157,157);"/>
                        </g>
                        <g transform="matrix(1,0,0,1,-200.045,323.352)">
                            <path d="M269.341,-209.232C269.629,-209.376 269.773,-209.52 269.773,-209.952L269.773,-214.2C269.773,-215.136 269.413,-215.928 268.189,-215.928C267.541,-215.928 266.965,-215.568 266.677,-215.208L266.677,-209.952C266.677,-209.52 266.821,-209.376 267.037,-209.232L264.229,-209.232C264.445,-209.376 264.661,-209.52 264.661,-209.952L264.661,-219.456C264.661,-220.032 264.301,-220.104 264.085,-220.176L266.677,-220.608L266.677,-216.072C267.037,-216.36 268.045,-217.08 269.125,-217.08C270.565,-217.08 271.645,-216.36 271.645,-214.704L271.645,-209.952C271.645,-209.52 271.861,-209.376 272.077,-209.232L269.341,-209.232Z" style="fill:rgb(157,157,157);"/>
                        </g>
                        <g transform="matrix(1,0,0,1,-200.045,323.352)">
                            <path d="M274.309,-218.376C273.733,-218.376 273.229,-218.88 273.229,-219.384C273.229,-219.96 273.733,-220.464 274.309,-220.464C274.885,-220.464 275.317,-219.96 275.317,-219.384C275.317,-218.88 274.885,-218.376 274.309,-218.376ZM272.941,-209.232C273.157,-209.376 273.373,-209.52 273.373,-209.952L273.373,-216.072C273.373,-216.504 273.013,-216.576 272.797,-216.648L275.317,-217.08L275.317,-209.952C275.317,-209.52 275.533,-209.376 275.677,-209.232L272.941,-209.232Z" style="fill:rgb(157,157,157);"/>
                        </g>
                        <g transform="matrix(1,0,0,1,-200.045,323.352)">
                            <path d="M279.637,-209.088C278.053,-209.088 276.973,-210.024 276.973,-211.608L276.973,-216.072L276.181,-216.072L278.989,-218.664L278.989,-216.864L281.221,-216.864L281.221,-216.072L278.917,-216.072L278.917,-211.608C278.917,-210.024 279.997,-209.88 280.501,-209.88C281.077,-209.88 281.293,-210.168 281.437,-210.312C281.437,-209.88 280.789,-209.088 279.637,-209.088Z" style="fill:rgb(157,157,157);"/>
                        </g>
                        <g transform="matrix(1,0,0,1,-200.045,323.352)">
                            <path d="M286.477,-214.272L283.237,-214.272C283.381,-215.424 283.957,-216.36 284.965,-216.36C285.757,-216.36 286.477,-215.712 286.477,-214.272ZM288.421,-213.48C288.421,-216.144 286.837,-217.08 285.037,-217.08C282.589,-217.08 281.221,-215.064 281.221,-213.12C281.221,-210.816 282.805,-209.088 285.037,-209.088C287.125,-209.088 288.277,-210.528 288.349,-211.752C287.989,-211.032 286.909,-210.168 285.757,-210.168C284.101,-210.168 283.237,-211.752 283.237,-213.192C283.237,-213.336 283.237,-213.48 283.237,-213.48L288.421,-213.48Z" style="fill:rgb(157,157,157);"/>
                        </g>
                        <g transform="matrix(1,0,0,1,-200.045,323.352)">
                            <path d="M292.957,-209.088C290.293,-209.088 289.141,-211.104 289.141,-213.12C289.141,-214.704 290.293,-217.08 293.173,-217.08C294.181,-217.08 295.477,-216.576 295.477,-216.576L295.477,-214.056C295.045,-215.352 294.253,-216.36 293.173,-216.36C291.877,-216.36 291.085,-214.848 291.085,-213.336C291.085,-211.608 291.949,-210.168 293.605,-210.168C294.685,-210.168 295.405,-210.672 295.765,-211.176C295.765,-210.6 294.901,-209.088 292.957,-209.088Z" style="fill:rgb(157,157,157);"/>
                        </g>
                        <g transform="matrix(1,0,0,1,-200.045,323.352)">
                            <path d="M299.437,-209.088C297.853,-209.088 296.845,-210.024 296.845,-211.608L296.845,-216.072L295.981,-216.072L298.789,-218.664L298.789,-216.864L301.021,-216.864L301.021,-216.072L298.717,-216.072L298.717,-211.608C298.717,-210.024 299.869,-209.88 300.301,-209.88C300.949,-209.88 301.093,-210.168 301.309,-210.312C301.309,-209.88 300.589,-209.088 299.437,-209.088Z" style="fill:rgb(157,157,157);"/>
                        </g>
                        <g transform="matrix(1,0,0,1,-200.045,323.352)">
                            <path d="M307.789,-209.088C307.357,-209.304 307.141,-209.52 307.141,-210.24C306.637,-209.664 305.917,-209.088 304.693,-209.088C303.613,-209.088 302.029,-209.736 302.029,-212.256C302.029,-212.904 302.029,-216.072 302.029,-216.072C302.029,-216.576 301.741,-216.648 301.525,-216.648L304.045,-217.152C304.045,-217.152 304.045,-213.192 304.045,-212.256C304.045,-210.816 304.765,-210.312 305.557,-210.312C306.277,-210.312 306.709,-210.6 307.069,-210.96L307.069,-216.072C307.069,-216.576 306.781,-216.648 306.493,-216.648L308.941,-217.152C308.941,-217.152 308.941,-210.96 308.941,-210.816C308.941,-210.24 309.085,-209.88 309.661,-209.736L307.789,-209.088Z" style="fill:rgb(157,157,157);"/>
                        </g>
                        <g transform="matrix(1,0,0,1,-200.045,323.352)">
                            <path d="M313.909,-215.712C313.261,-215.712 312.901,-215.352 312.613,-214.92L312.613,-209.952C312.613,-209.52 312.757,-209.376 313.045,-209.232L310.237,-209.232C310.381,-209.376 310.597,-209.52 310.597,-209.952L310.597,-216.072C310.597,-216.504 310.309,-216.576 310.021,-216.648L312.613,-217.08L312.613,-215.712C313.045,-216.36 313.765,-217.08 314.413,-217.08C314.773,-217.08 314.845,-217.08 315.061,-216.936L315.061,-214.92C314.773,-215.352 314.413,-215.712 313.909,-215.712Z" style="fill:rgb(157,157,157);"/>
                        </g>
                        <g transform="matrix(1,0,0,1,-200.045,323.352)">
                            <path d="M319.597,-210.816C319.237,-210.528 318.805,-210.24 318.157,-210.24C317.509,-210.24 316.933,-210.6 316.933,-211.392C316.933,-212.184 317.509,-212.544 318.157,-212.832C318.805,-213.12 319.093,-213.192 319.597,-213.48L319.597,-210.816ZM321.973,-209.664C321.541,-209.808 321.541,-210.024 321.541,-210.528C321.541,-210.6 321.541,-213.912 321.541,-214.632C321.541,-216.864 319.741,-217.08 318.805,-217.08C317.437,-217.08 316.573,-216.72 315.997,-216.36L315.997,-214.128C316.285,-215.208 317.005,-216.36 318.373,-216.36C319.237,-216.36 319.597,-215.712 319.597,-214.92C319.669,-214.776 319.669,-214.344 319.453,-214.2C318.949,-213.696 317.149,-213.48 316.285,-213.048C315.421,-212.472 315.133,-211.752 315.133,-211.104C315.133,-210.312 315.781,-209.088 317.221,-209.088C318.301,-209.088 319.165,-209.664 319.669,-210.168C319.741,-209.448 319.957,-209.304 320.317,-209.088L321.973,-209.664Z" style="fill:rgb(157,157,157);"/>
                        </g>
                        <g transform="matrix(1,0,0,1,-200.045,323.352)">
                            <path d="M322.549,-209.232C322.765,-209.376 322.981,-209.52 322.981,-209.952L322.981,-219.456C322.981,-220.032 322.621,-220.104 322.333,-220.176L324.925,-220.608L324.925,-209.952C324.925,-209.52 325.069,-209.376 325.357,-209.232L322.549,-209.232Z" style="fill:rgb(157,157,157);"/>
                        </g>
                    </g>
                    <g transform="matrix(2.60765,0,0,2.60765,1254.57,345.274)">
                        <g transform="matrix(1,0,0,1,-200.045,323.352)">
                            <path d="M339.469,-210.168C338.101,-209.376 336.589,-209.088 335.293,-209.088C332.053,-209.088 329.101,-211.248 329.101,-214.776C329.101,-217.728 331.261,-220.608 335.509,-220.608C336.805,-220.608 338.101,-220.392 339.325,-219.744C339.325,-219.744 339.541,-217.152 339.469,-217.224C338.533,-219.456 336.517,-219.744 335.797,-219.744C332.989,-219.744 331.333,-217.656 331.333,-214.992C331.333,-212.76 332.485,-210.024 335.941,-210.024C336.661,-210.024 338.533,-210.24 339.613,-212.544L339.469,-210.168Z" style="fill:rgb(157,157,157);"/>
                        </g>
                        <g transform="matrix(1,0,0,1,-200.045,323.352)">
                            <path d="M345.805,-213.192C345.877,-211.104 345.229,-209.952 344.005,-209.88C342.853,-209.808 342.061,-211.104 341.989,-213.048C341.989,-214.848 342.565,-216.36 343.861,-216.36C345.085,-216.36 345.733,-214.92 345.805,-213.192ZM347.821,-213.12C347.821,-215.208 346.525,-217.08 344.005,-217.08C341.485,-217.08 340.117,-215.136 340.117,-213.048C340.045,-211.32 341.125,-209.088 343.933,-209.088C346.237,-209.088 347.749,-210.888 347.821,-213.12Z" style="fill:rgb(157,157,157);"/>
                        </g>
                        <g transform="matrix(1,0,0,1,-200.045,323.352)">
                            <path d="M352.789,-210.816C352.357,-210.528 351.853,-210.24 351.205,-210.24C350.557,-210.24 350.053,-210.6 350.053,-211.392C350.053,-212.184 350.557,-212.544 351.205,-212.832C351.853,-213.12 352.213,-213.192 352.789,-213.48L352.789,-210.816ZM355.093,-209.664C354.589,-209.808 354.589,-210.024 354.589,-210.528C354.589,-210.6 354.589,-213.912 354.589,-214.632C354.589,-216.864 352.861,-217.08 351.853,-217.08C350.557,-217.08 349.693,-216.72 349.045,-216.36L349.045,-214.128C349.405,-215.208 350.125,-216.36 351.421,-216.36C352.357,-216.36 352.789,-215.712 352.789,-214.92C352.789,-214.776 352.789,-214.344 352.573,-214.2C352.069,-213.696 350.269,-213.48 349.405,-213.048C348.469,-212.472 348.181,-211.752 348.181,-211.104C348.181,-210.312 348.829,-209.088 350.341,-209.088C351.349,-209.088 352.285,-209.664 352.789,-210.168C352.861,-209.448 353.077,-209.304 353.437,-209.088L355.093,-209.664Z" style="fill:rgb(157,157,157);"/>
                        </g>
                        <g transform="matrix(1,0,0,1,-200.045,323.352)">
                            <path d="M358.621,-209.088C357.037,-209.088 356.029,-210.024 356.029,-211.608L356.029,-216.072L355.237,-216.072L357.973,-218.664L357.973,-216.864L360.133,-216.864L360.133,-216.072L357.973,-216.072L357.973,-211.608C357.973,-210.024 359.053,-209.88 359.413,-209.88C360.061,-209.88 360.205,-210.168 360.421,-210.312C360.421,-209.88 359.701,-209.088 358.621,-209.088Z" style="fill:rgb(157,157,157);"/>
                        </g>
                        <g transform="matrix(1,0,0,1,-200.045,323.352)">
                            <path d="M362.077,-218.376C361.573,-218.376 361.069,-218.88 361.069,-219.384C361.069,-219.96 361.573,-220.464 362.077,-220.464C362.653,-220.464 363.157,-219.96 363.157,-219.384C363.157,-218.88 362.653,-218.376 362.077,-218.376ZM360.781,-209.232C360.997,-209.376 361.213,-209.52 361.213,-209.952L361.213,-216.072C361.213,-216.504 360.853,-216.576 360.637,-216.648L363.157,-217.08L363.157,-209.952C363.157,-209.52 363.301,-209.376 363.589,-209.232L360.781,-209.232Z" style="fill:rgb(157,157,157);"/>
                        </g>
                        <g transform="matrix(1,0,0,1,-200.045,323.352)">
                            <path d="M369.421,-209.232C369.781,-209.376 369.925,-209.52 369.925,-209.952L369.925,-214.128C369.925,-214.92 369.781,-215.928 368.341,-215.928C367.765,-215.928 367.117,-215.568 366.901,-215.208L366.901,-209.952C366.901,-209.52 367.045,-209.376 367.333,-209.232L364.525,-209.232C364.813,-209.376 364.957,-209.52 364.957,-209.952L364.957,-216.072C364.957,-216.504 364.741,-216.648 364.381,-216.72L366.901,-217.08L366.901,-216.072C367.333,-216.432 368.197,-217.08 369.349,-217.08C370.645,-217.08 371.797,-216.288 371.797,-214.704L371.797,-209.952C371.797,-209.52 371.941,-209.376 372.229,-209.232L369.421,-209.232Z" style="fill:rgb(157,157,157);"/>
                        </g>
                        <g transform="matrix(1,0,0,1,-200.045,323.352)">
                            <path d="M377.341,-214.2C377.341,-212.688 376.693,-212.04 375.973,-212.04C375.253,-212.04 374.533,-212.616 374.533,-214.272C374.533,-215.856 375.181,-216.432 375.973,-216.432C376.693,-216.432 377.341,-215.784 377.341,-214.2ZM379.861,-208.44C379.861,-209.88 378.709,-210.312 377.269,-210.384L375.829,-210.384C374.893,-210.456 374.677,-210.6 374.677,-210.816C374.677,-211.104 375.037,-211.32 375.397,-211.392C375.613,-211.32 375.829,-211.32 375.973,-211.32C377.989,-211.32 379.285,-212.688 379.285,-214.128C379.285,-214.92 378.997,-215.712 378.421,-216.216L379.789,-216.216L379.789,-216.936L377.197,-216.936C376.621,-217.08 376.333,-217.08 375.829,-217.08C373.957,-217.08 372.733,-215.784 372.733,-214.2C372.733,-212.976 373.453,-212.04 374.533,-211.536C373.741,-211.248 373.093,-210.744 373.093,-210.096C373.093,-209.304 373.885,-209.088 373.885,-209.088C373.381,-208.872 372.373,-208.368 372.373,-207.36C372.373,-206.064 373.813,-205.488 375.613,-205.488C378.205,-205.488 379.861,-206.856 379.861,-208.44ZM378.421,-207.72C378.421,-206.856 377.269,-206.352 376.189,-206.352C374.749,-206.352 373.669,-206.856 373.669,-207.72C373.669,-208.224 374.029,-208.656 374.605,-208.872C375.037,-208.8 375.685,-208.728 376.621,-208.728C376.981,-208.728 378.421,-208.728 378.421,-207.72Z" style="fill:rgb(157,157,157);"/>
                        </g>
                        <g transform="matrix(1,0,0,1,-200.045,323.352)">
                            <path d="M382.525,-209.088C381.661,-209.088 380.869,-209.376 380.149,-209.808L380.149,-212.184C380.365,-210.96 381.157,-209.88 382.237,-209.88C383.389,-209.88 383.677,-210.6 383.677,-211.032C383.677,-211.752 383.173,-211.968 382.021,-212.688C380.581,-213.48 380.221,-213.984 380.221,-214.992C380.221,-215.928 380.941,-217.08 382.957,-217.08C383.389,-217.08 384.181,-217.008 384.973,-216.648L384.973,-214.416C384.685,-215.352 384.109,-216.36 383.101,-216.36C382.237,-216.36 381.949,-215.928 381.949,-215.496C381.949,-214.848 382.453,-214.56 383.317,-214.128C384.397,-213.48 385.549,-212.904 385.549,-211.464C385.549,-209.808 383.749,-209.088 382.525,-209.088Z" style="fill:rgb(157,157,157);"/>
                        </g>
                    </g>
                </g>
            </g>
        </g>
    </g>
</svg>
