<?xml version="1.0" encoding="UTF-8" standalone="no"?>
<!DOCTYPE svg PUBLIC "-//W3C//DTD SVG 1.1//EN" "http://www.w3.org/Graphics/SVG/1.1/DTD/svg11.dtd">
<svg width="100%" height="100%" viewBox="0 0 300 47" version="1.1" xmlns="http://www.w3.org/2000/svg" xmlns:xlink="http://www.w3.org/1999/xlink" xml:space="preserve" xmlns:serif="http://www.serif.com/" style="fill-rule:evenodd;clip-rule:evenodd;stroke-linejoin:round;stroke-miterlimit:1.41421;">
    <g transform="matrix(1,0,0,1,-750.749,-545.192)">
        <g transform="matrix(1,0,0,1,195.507,-75.7851)">
            <g transform="matrix(0.954391,0,0,0.954391,387.27,146.565)">
                <g transform="matrix(1,0,0,1,183.287,504.362)">
                    <path d="M0,-0.419C0.666,-0.913 1,-1.753 1,-2.94C1,-4.06 0.676,-4.862 0.029,-5.35C-0.617,-5.836 -1.567,-6.079 -2.82,-6.079L-4.82,-6.079L-4.82,0.321L-2.861,0.321C-1.621,0.321 -0.668,0.074 0,-0.419M0.949,-6.05C1.822,-5.376 2.26,-4.346 2.26,-2.96C2.26,-1.493 1.803,-0.416 0.889,0.27C-0.023,0.958 -1.273,1.301 -2.861,1.301L-4.82,1.301L-4.82,6.641L-6.021,6.641L-6.021,-7.06L-2.801,-7.06C-1.174,-7.06 0.076,-6.723 0.949,-6.05" style="fill:rgb(157,157,157);fill-rule:nonzero;"/>
                </g>
                <g transform="matrix(1,0,0,1,0,216.306)">
                    <rect x="189.506" y="280.997" width="1.2" height="13.7" style="fill:rgb(157,157,157);"/>
                </g>
                <g transform="matrix(1,0,0,1,199.307,509.942)">
                    <path d="M0,-11.579L0,1.061L-1.181,1.061L-1.181,-11.579L-5.24,-11.579L-5.24,-12.64L4.16,-12.64L4.02,-11.579L0,-11.579Z" style="fill:rgb(157,157,157);fill-rule:nonzero;"/>
                </g>
                <g transform="matrix(1,0,0,1,210.046,509.942)">
                    <path d="M0,-11.579L0,1.061L-1.181,1.061L-1.181,-11.579L-5.24,-11.579L-5.24,-12.64L4.16,-12.64L4.021,-11.579L0,-11.579Z" style="fill:rgb(157,157,157);fill-rule:nonzero;"/>
                </g>
                <g transform="matrix(1,0,0,1,222.455,510.853)">
                    <path d="M0,-13.4C0.607,-13.154 1.197,-12.77 1.771,-12.25L1.051,-11.47C0.544,-11.923 0.044,-12.25 -0.449,-12.451C-0.943,-12.65 -1.503,-12.75 -2.129,-12.75C-2.982,-12.75 -3.67,-12.541 -4.189,-12.121C-4.709,-11.701 -4.969,-11.136 -4.969,-10.43C-4.969,-9.951 -4.873,-9.553 -4.68,-9.24C-4.486,-8.927 -4.162,-8.646 -3.709,-8.4C-3.256,-8.154 -2.609,-7.904 -1.77,-7.65C-0.863,-7.371 -0.129,-7.07 0.431,-6.75C0.99,-6.43 1.424,-6.017 1.73,-5.51C2.037,-5.004 2.191,-4.363 2.191,-3.59C2.191,-2.817 2.004,-2.13 1.631,-1.531C1.258,-0.93 0.727,-0.463 0.041,-0.13C-0.646,0.204 -1.443,0.37 -2.35,0.37C-4.057,0.37 -5.516,-0.203 -6.729,-1.35L-6.01,-2.13C-5.489,-1.65 -4.943,-1.283 -4.369,-1.031C-3.797,-0.777 -3.129,-0.65 -2.369,-0.65C-1.383,-0.65 -0.579,-0.91 0.041,-1.43C0.66,-1.951 0.971,-2.657 0.971,-3.55C0.971,-4.11 0.867,-4.57 0.66,-4.93C0.453,-5.291 0.121,-5.6 -0.34,-5.86C-0.799,-6.121 -1.449,-6.383 -2.289,-6.65C-3.689,-7.077 -4.689,-7.57 -5.289,-8.13C-5.889,-8.69 -6.189,-9.451 -6.189,-10.41C-6.189,-11.05 -6.02,-11.627 -5.68,-12.14C-5.34,-12.654 -4.866,-13.053 -4.26,-13.34C-3.652,-13.627 -2.956,-13.77 -2.17,-13.77C-1.329,-13.77 -0.605,-13.646 0,-13.4" style="fill:rgb(157,157,157);fill-rule:nonzero;"/>
                </g>
                <g transform="matrix(1,0,0,1,236.206,501.103)">
                    <path d="M0,6.1C0,5.114 -0.304,4.379 -0.91,3.9C-1.517,3.42 -2.32,3.18 -3.32,3.18L-6.22,3.18L-6.22,8.9L-3.681,8.9C-1.228,8.9 0,7.967 0,6.1M-6.22,2.219L-3.46,2.219C-2.606,2.219 -1.92,1.996 -1.399,1.549C-0.88,1.104 -0.62,0.487 -0.62,-0.3C-0.62,-1.193 -0.923,-1.834 -1.53,-2.22C-2.138,-2.607 -3.04,-2.8 -4.24,-2.8L-6.22,-2.8L-6.22,2.219ZM0.36,3.629C0.946,4.183 1.239,5.006 1.239,6.1C1.239,7.379 0.807,8.333 -0.06,8.959C-0.927,9.586 -2.134,9.9 -3.681,9.9L-7.42,9.9L-7.42,-3.8L-4.36,-3.8C-2.773,-3.8 -1.55,-3.513 -0.69,-2.94C0.17,-2.367 0.601,-1.513 0.601,-0.38C0.601,0.459 0.37,1.14 -0.091,1.66C-0.55,2.18 -1.16,2.506 -1.92,2.64C-0.987,2.746 -0.228,3.077 0.36,3.629" style="fill:rgb(157,157,157);fill-rule:nonzero;"/>
                </g>
                <g transform="matrix(1,0,0,1,249.226,498.532)">
                    <path d="M0,11.461C-0.773,12.28 -1.887,12.69 -3.34,12.69C-4.819,12.69 -5.94,12.284 -6.7,11.471C-7.46,10.657 -7.84,9.564 -7.84,8.19L-7.84,-1.229L-6.64,-1.229L-6.64,8.091C-6.64,9.237 -6.37,10.118 -5.83,10.731C-5.29,11.345 -4.46,11.651 -3.34,11.651C-2.22,11.651 -1.394,11.341 -0.86,10.721C-0.327,10.101 -0.06,9.224 -0.06,8.091L-0.06,-1.229L1.16,-1.229L1.16,8.19C1.16,9.551 0.773,10.641 0,11.461" style="fill:rgb(157,157,157);fill-rule:nonzero;"/>
                </g>
                <g transform="matrix(1,0,0,1,262.386,507.281)">
                    <path d="M0,-6.258C0,-7.192 -0.287,-7.881 -0.86,-8.328C-1.434,-8.776 -2.36,-8.998 -3.64,-8.998L-5.72,-8.998L-5.72,-3.399L-3.44,-3.399C-1.147,-3.399 0,-4.352 0,-6.258M-5.72,-2.418L-5.72,3.721L-6.92,3.721L-6.92,-9.979L-3.601,-9.979C-0.347,-9.979 1.28,-8.738 1.28,-6.258C1.28,-5.272 1.021,-4.485 0.5,-3.899C-0.021,-3.312 -0.78,-2.892 -1.78,-2.639L1.979,3.721L0.54,3.721L-2.979,-2.418L-5.72,-2.418Z" style="fill:rgb(157,157,157);fill-rule:nonzero;"/>
                </g>
                <g transform="matrix(1,0,0,1,274.735,510.893)">
                    <path d="M0,-13.48C0.58,-13.26 1.163,-12.917 1.75,-12.45L1.03,-11.709C0.536,-12.084 0.057,-12.357 -0.409,-12.53C-0.876,-12.704 -1.417,-12.79 -2.03,-12.79C-2.804,-12.79 -3.526,-12.584 -4.2,-12.17C-4.873,-11.756 -5.42,-11.1 -5.84,-10.2C-6.26,-9.3 -6.47,-8.163 -6.47,-6.79C-6.47,-4.751 -6.083,-3.223 -5.31,-2.209C-4.536,-1.197 -3.456,-0.69 -2.069,-0.69C-1.003,-0.69 -0.044,-0.93 0.81,-1.411L0.81,-6.27L-1.87,-6.27L-2.01,-7.27L1.99,-7.27L1.99,-0.79C0.71,-0.043 -0.663,0.33 -2.13,0.33C-3.263,0.33 -4.25,0.064 -5.09,-0.47C-5.93,-1.003 -6.579,-1.803 -7.04,-2.87C-7.5,-3.936 -7.729,-5.243 -7.729,-6.79C-7.729,-8.284 -7.464,-9.56 -6.93,-10.62C-6.396,-11.68 -5.696,-12.477 -4.829,-13.01C-3.964,-13.543 -3.036,-13.81 -2.05,-13.81C-1.263,-13.81 -0.579,-13.7 0,-13.48" style="fill:rgb(157,157,157);fill-rule:nonzero;"/>
                </g>
                <g transform="matrix(1,0,0,1,282.305,504.003)">
                    <path d="M0,0.3L0,7L-1.199,7L-1.199,-6.7L0,-6.7L0,-0.72L6.561,-0.72L6.561,-6.7L7.761,-6.7L7.761,7L6.561,7L6.561,0.3L0,0.3Z" style="fill:rgb(157,157,157);fill-rule:nonzero;"/>
                </g>
                <g transform="matrix(1,0,0,1,212.342,545)">
                    <path d="M0,-25L-36.342,-25L-36.342,-21L-29.342,-21L-29.342,0L-24.342,0L-24.342,-21L-0.506,-21L0,-25Z" style="fill:rgb(157,157,157);fill-rule:nonzero;"/>
                </g>
                <g transform="matrix(1,0,0,1,230.576,544.824)">
                    <path d="M0,-24.807C1.146,-24.372 2.25,-23.708 3.313,-22.815L0.851,-19.954C-0.574,-21.161 -2.119,-21.765 -3.785,-21.765C-5.645,-21.765 -7.129,-21.016 -8.239,-19.52C-9.35,-18.023 -9.904,-15.668 -9.904,-12.458C-9.904,-9.295 -9.35,-6.959 -8.239,-5.451C-7.129,-3.942 -5.619,-3.188 -3.713,-3.188C-2.747,-3.188 -1.891,-3.369 -1.141,-3.731C-0.393,-4.093 0.439,-4.612 1.357,-5.287L3.603,-2.391C2.758,-1.522 1.689,-0.797 0.398,-0.218C-0.895,0.362 -2.336,0.651 -3.93,0.651C-6.103,0.651 -8.021,0.144 -9.688,-0.87C-11.354,-1.884 -12.645,-3.374 -13.563,-5.342C-14.48,-7.31 -14.938,-9.681 -14.938,-12.458C-14.938,-15.186 -14.462,-17.528 -13.508,-19.484C-12.555,-21.439 -11.258,-22.923 -9.615,-23.938C-7.974,-24.952 -6.127,-25.458 -4.074,-25.458C-2.506,-25.458 -1.147,-25.242 0,-24.807" style="fill:rgb(157,157,157);fill-rule:nonzero;"/>
                </g>
                <g transform="matrix(1,0,0,1,242.363,531.097)">
                    <path d="M0,2.645L0,13.834L-4.781,13.834L-4.781,-11.189L0,-11.189L0,-1.158L8.908,-1.158L8.908,-11.189L13.725,-11.189L13.725,13.834L8.908,13.834L8.908,2.645L0,2.645Z" style="fill:rgb(157,157,157);fill-rule:nonzero;"/>
                </g>
                <g transform="matrix(1,0,0,1,274.193,519.909)">
                    <path d="M0,25.023L-8.582,4.78C-8.365,6.567 -8.201,8.184 -8.094,9.632C-7.984,11.081 -7.93,12.807 -7.93,14.811L-7.93,25.023L-12.275,25.023L-12.275,0L-6.229,0L2.499,20.279C2.354,19.314 2.209,18.04 2.064,16.459C1.92,14.877 1.848,13.302 1.848,11.733L1.848,0L6.193,0L6.193,25.023L0,25.023Z" style="fill:rgb(157,157,157);fill-rule:nonzero;"/>
                </g>
                <g transform="matrix(1,0,0,1,0,272.839)">
                    <rect x="286.252" y="247.069" width="4.816" height="25.023" style="fill:rgb(157,157,157);"/>
                </g>
                <g transform="matrix(1,0,0,1,310.497,544.824)">
                    <path d="M0,-24.807C1.146,-24.372 2.251,-23.708 3.313,-22.815L0.851,-19.954C-0.574,-21.161 -2.118,-21.765 -3.784,-21.765C-5.644,-21.765 -7.128,-21.016 -8.238,-19.52C-9.35,-18.023 -9.904,-15.668 -9.904,-12.458C-9.904,-9.295 -9.35,-6.959 -8.238,-5.451C-7.128,-3.942 -5.619,-3.188 -3.712,-3.188C-2.747,-3.188 -1.89,-3.369 -1.141,-3.731C-0.393,-4.093 0.44,-4.612 1.357,-5.287L3.604,-2.391C2.758,-1.522 1.689,-0.797 0.398,-0.218C-0.894,0.362 -2.336,0.651 -3.93,0.651C-6.102,0.651 -8.021,0.144 -9.688,-0.87C-11.353,-1.884 -12.645,-3.374 -13.562,-5.342C-14.479,-7.31 -14.938,-9.681 -14.938,-12.458C-14.938,-15.186 -14.462,-17.528 -13.508,-19.484C-12.554,-21.439 -11.257,-22.923 -9.614,-23.938C-7.974,-24.952 -6.126,-25.458 -4.074,-25.458C-2.505,-25.458 -1.147,-25.242 0,-24.807" style="fill:rgb(157,157,157);fill-rule:nonzero;"/>
                </g>
                <g transform="matrix(1,0,0,1,325.036,541.274)">
                    <path d="M0,-17.709L-3.188,-5.758L3.187,-5.758L0,-17.709ZM-4.129,-2.137L-5.686,3.657L-10.646,3.657L-2.861,-21.366L3.042,-21.366L10.791,3.657L5.722,3.657L4.164,-2.137L-4.129,-2.137Z" style="fill:rgb(157,157,157);fill-rule:nonzero;"/>
                </g>
                <g transform="matrix(1,0,0,1,353.427,523.82)">
                    <path d="M0,17.201L-0.543,21.112L-14.811,21.112L-14.811,-3.911L-10.031,-3.911L-10.031,17.201L0,17.201Z" style="fill:rgb(157,157,157);fill-rule:nonzero;"/>
                </g>
                <g transform="matrix(1,0,0,1,369.92,544.768)">
                    <path d="M0,-24.477C0.953,-24.103 1.913,-23.53 2.879,-22.757L1.72,-21.309C0.875,-21.985 0.066,-22.467 -0.706,-22.757C-1.479,-23.047 -2.359,-23.192 -3.35,-23.192C-5.691,-23.192 -7.592,-22.298 -9.053,-20.512C-10.513,-18.726 -11.243,-15.974 -11.243,-12.256C-11.243,-9.842 -10.905,-7.815 -10.229,-6.173C-9.554,-4.532 -8.63,-3.318 -7.459,-2.534C-6.288,-1.749 -4.955,-1.357 -3.458,-1.357C-2.299,-1.357 -1.315,-1.532 -0.507,-1.882C0.302,-2.232 1.141,-2.757 2.01,-3.457L3.169,-2.009C1.406,-0.294 -0.827,0.562 -3.53,0.562C-5.462,0.562 -7.182,0.068 -8.69,-0.922C-10.199,-1.913 -11.382,-3.367 -12.238,-5.286C-13.096,-7.206 -13.524,-9.528 -13.524,-12.256C-13.524,-14.984 -13.078,-17.308 -12.185,-19.227C-11.292,-21.146 -10.091,-22.594 -8.581,-23.572C-7.073,-24.549 -5.377,-25.039 -3.494,-25.039C-2.118,-25.039 -0.954,-24.851 0,-24.477" style="fill:rgb(157,157,157);fill-rule:nonzero;"/>
                </g>
                <g transform="matrix(1,0,0,1,379.969,540.713)">
                    <path d="M0,-16.366C-1.4,-14.519 -2.101,-11.773 -2.101,-8.129C-2.101,-4.531 -1.395,-1.815 0.018,0.019C1.43,1.854 3.331,2.771 5.721,2.771C8.207,2.771 10.139,1.86 11.515,0.036C12.891,-1.786 13.578,-4.519 13.578,-8.165C13.578,-11.834 12.885,-14.58 11.496,-16.403C10.108,-18.225 8.184,-19.137 5.721,-19.137C3.307,-19.137 1.399,-18.213 0,-16.366M11.044,-19.516C12.564,-18.539 13.747,-17.085 14.593,-15.153C15.438,-13.221 15.859,-10.892 15.859,-8.165C15.859,-5.485 15.443,-3.186 14.61,-1.266C13.777,0.653 12.601,2.113 11.08,3.114C9.56,4.116 7.772,4.617 5.721,4.617C3.717,4.617 1.955,4.123 0.435,3.133C-1.087,2.143 -2.27,0.695 -3.114,-1.213C-3.96,-3.119 -4.382,-5.425 -4.382,-8.129C-4.382,-10.808 -3.96,-13.113 -3.114,-15.045C-2.27,-16.975 -1.081,-18.448 0.452,-19.463C1.985,-20.476 3.741,-20.983 5.721,-20.983C7.749,-20.983 9.523,-20.494 11.044,-19.516" style="fill:rgb(157,157,157);fill-rule:nonzero;"/>
                </g>
                <g transform="matrix(1,0,0,1,414.767,522.083)">
                    <path d="M0,20.894L-0.29,22.849L-12.528,22.849L-12.528,-1.955L-10.355,-1.955L-10.355,20.894L0,20.894Z" style="fill:rgb(157,157,157);fill-rule:nonzero;"/>
                </g>
                <g transform="matrix(1,0,0,1,431.93,522.083)">
                    <path d="M0,20.894L-0.29,22.849L-12.528,22.849L-12.528,-1.955L-10.355,-1.955L-10.355,20.894L0,20.894Z" style="fill:rgb(157,157,157);fill-rule:nonzero;"/>
                </g>
                <g transform="matrix(1,0,0,1,438.737,543.12)">
                    <path d="M0,-21.182L0,-11.949L8.799,-11.949L8.799,-10.138L0,-10.138L0,0.001L10.682,0.001L10.682,1.811L-2.173,1.811L-2.173,-22.993L10.428,-22.993L10.175,-21.182L0,-21.182Z" style="fill:rgb(157,157,157);fill-rule:nonzero;"/>
                </g>
                <g transform="matrix(1,0,0,1,467.47,544.732)">
                    <path d="M0,-24.405C1.051,-24.007 2.106,-23.385 3.169,-22.541L1.865,-21.201C0.972,-21.876 0.103,-22.371 -0.742,-22.685C-1.587,-22.999 -2.565,-23.156 -3.675,-23.156C-5.075,-23.156 -6.385,-22.781 -7.604,-22.034C-8.823,-21.285 -9.813,-20.096 -10.573,-18.467C-11.333,-16.838 -11.714,-14.779 -11.714,-12.293C-11.714,-8.599 -11.014,-5.835 -9.613,-4.001C-8.214,-2.166 -6.259,-1.249 -3.747,-1.249C-1.816,-1.249 -0.078,-1.683 1.467,-2.552L1.467,-11.351L-3.386,-11.351L-3.639,-13.162L3.604,-13.162L3.604,-1.43C1.286,-0.078 -1.201,0.598 -3.856,0.598C-5.908,0.598 -7.694,0.116 -9.215,-0.85C-10.736,-1.816 -11.913,-3.264 -12.746,-5.196C-13.578,-7.127 -13.995,-9.492 -13.995,-12.293C-13.995,-14.996 -13.513,-17.308 -12.547,-19.227C-11.581,-21.146 -10.313,-22.589 -8.744,-23.554C-7.176,-24.519 -5.498,-25.003 -3.711,-25.003C-2.287,-25.003 -1.05,-24.803 0,-24.405" style="fill:rgb(157,157,157);fill-rule:nonzero;"/>
                </g>
                <g transform="matrix(1,0,0,1,479.654,543.12)">
                    <path d="M0,-21.182L0,-11.949L8.799,-11.949L8.799,-10.138L0,-10.138L0,0.001L10.682,0.001L10.682,1.811L-2.173,1.811L-2.173,-22.993L10.428,-22.993L10.175,-21.182L0,-21.182Z" style="fill:rgb(157,157,157);fill-rule:nonzero;"/>
                </g>
                <g transform="matrix(1,0,0,1,197.987,541.363)">
                    <path d="M0,3.553L14.667,3.553L13.666,0L0,0L0,3.553Z" style="fill:rgb(157,157,157);fill-rule:nonzero;"/>
                </g>
                <g transform="matrix(1,0,0,1,0,272.529)">
                    <rect x="197.987" y="257.959" width="12.82" height="3.553" style="fill:rgb(157,157,157);"/>
                </g>
            </g>
        </g>
    </g>
</svg>
