<svg width="56" height="56" fill="none" xmlns="http://www.w3.org/2000/svg">
  <path d="M1.889 38.072H39.66V10.373l-37.772.002v27.697Z" fill="#76E2F8"/>
  <path d="m39.66 10.373-18.886.001v27.698H39.66V10.373Z" fill="#73BCFF"/>
  <path d="M40.996 9.038a1.889 1.889 0 0 0-1.336-.553l-37.77.002A1.889 1.889 0 0 0 0 10.375v27.697a1.89 1.89 0 0 0 1.889 1.889h11.96v3.777h-1.888a1.889 1.889 0 0 0 0 3.777h17.627a1.889 1.889 0 1 0 0-3.777h-1.889v-3.777H39.66a1.888 1.888 0 0 0 1.889-1.889V10.373c0-.5-.199-.981-.553-1.335Zm-3.224 27.146H3.778v-23.92l33.994-.002v23.922Z" fill="#07234F"/>
  <path d="M40.996 9.038a1.89 1.89 0 0 0-1.336-.553H20.775v3.778l16.997-.001v23.922H20.774v11.331h8.814a1.888 1.888 0 1 0 0-3.777h-1.889v-3.777H39.66a1.889 1.889 0 0 0 1.889-1.889V10.373c0-.5-.199-.981-.553-1.335Z" fill="#020813"/>
  <path d="M51.593 25.34c0 7.649-6.2 13.85-13.85 13.85-7.648 0-13.85-6.201-13.85-13.85 0-7.65 6.201-13.85 13.85-13.85 7.65 0 13.85 6.2 13.85 13.85Z" fill="#fff"/>
  <path d="M51.594 25.34c0-7.65-6.201-13.85-13.85-13.85v27.7c7.649 0 13.85-6.202 13.85-13.85Z" fill="#D5E8FE"/>
  <path d="M43.809 26.348h-.994v-.834l1.034-1.033a1.259 1.259 0 0 0-1.635-1.904 5.1 5.1 0 0 0-2.027-2.03l.403-.403a1.26 1.26 0 0 0-1.78-1.78l-.89.89h-.309l-.89-.89a1.259 1.259 0 1 0-1.78 1.78l.402.403a5.102 5.102 0 0 0-2.031 2.037 1.258 1.258 0 0 0-1.644 1.897l1.033 1.034v.834h-1.023a1.26 1.26 0 0 0 0 2.518h1.177c.09.354.218.693.377 1.014l-.642.642a1.26 1.26 0 0 0 1.781 1.78l.516-.515a5.027 5.027 0 0 0 2.87.897c1.06 0 2.042-.327 2.855-.885l.503.503a1.255 1.255 0 0 0 1.78 0 1.259 1.259 0 0 0 0-1.78l-.622-.622c.165-.327.296-.672.388-1.034h1.148a1.259 1.259 0 0 0 0-2.519Z" fill="#FC6990"/>
  <path d="m55.447 41.474-5.823-5.823a15.673 15.673 0 0 0 3.858-10.311c0-8.679-7.06-15.739-15.738-15.739-8.679 0-15.739 7.06-15.739 15.738s7.06 15.739 15.739 15.739c3.378 0 6.51-1.07 9.077-2.889l5.955 5.955c.369.37.852.553 1.335.553s.967-.184 1.335-.553a1.888 1.888 0 0 0 0-2.67ZM25.782 25.34c0-6.596 5.366-11.961 11.961-11.961 6.596 0 11.962 5.365 11.962 11.96 0 6.596-5.366 11.962-11.962 11.962-6.595 0-11.96-5.366-11.96-11.961Z" fill="#07234F"/>
  <path d="M37.744 9.601c-4.63 0-8.8 2.01-11.682 5.203l2.676 2.677a11.934 11.934 0 0 1 9.006-4.102c6.595 0 11.96 5.365 11.96 11.96 0 3.59-1.59 6.812-4.101 9.006l9.82 9.82.024-.02a1.888 1.888 0 0 0 0-2.671l-5.823-5.823a15.672 15.672 0 0 0 3.858-10.311c0-8.678-7.06-15.739-15.738-15.739Z" fill="#020813"/>
  <path d="M43.81 26.348h-.995v-.834l1.034-1.033a1.26 1.26 0 0 0-1.634-1.904 5.1 5.1 0 0 0-2.028-2.03l.403-.403a1.26 1.26 0 0 0-1.78-1.78l-.89.89h-.176v13.43h.014a5.032 5.032 0 0 0 2.854-.884l.503.503a1.255 1.255 0 0 0 1.781 0 1.26 1.26 0 0 0 0-1.78l-.622-.623c.165-.326.296-.672.387-1.033h1.148a1.26 1.26 0 0 0 0-2.519Z" fill="#FA255D"/>
</svg>
