<svg width="56" height="56" fill="none" xmlns="http://www.w3.org/2000/svg">
  <path d="M37.61 0H17.921A4.927 4.927 0 0 0 13 4.922v46.156A4.927 4.927 0 0 0 17.922 56h19.687a4.927 4.927 0 0 0 4.922-4.922V4.922A4.927 4.927 0 0 0 37.61 0Z" fill="#07234F"/>
  <path d="M42.531 51.078V4.922A4.927 4.927 0 0 0 37.61 0h-9.843v56h9.843a4.927 4.927 0 0 0 4.922-4.922Z" fill="#020813"/>
  <path d="M37.61 3.281H17.921c-.905 0-1.64.736-1.64 1.64v46.157c0 .905.735 1.64 1.64 1.64h19.688c.906 0 1.641-.735 1.641-1.64V4.922c0-.905-.735-1.64-1.64-1.64Z" fill="#76E2F8"/>
  <path d="M39.25 51.078V4.922c0-.905-.735-1.64-1.64-1.64h-9.844v49.437h9.843c.906 0 1.641-.736 1.641-1.64Z" fill="#73BCFF"/>
  <path d="M31.047 46.156h-6.563a1.64 1.64 0 1 0 0 3.282h6.562a1.64 1.64 0 1 0 0-3.282Z" fill="#EDF5FF"/>
  <path d="M32.688 47.797a1.64 1.64 0 0 0-1.641-1.64h-3.281v3.28h3.28a1.64 1.64 0 0 0 1.642-1.64Z" fill="#D5E8FE"/>
  <path d="M27.766 9.844a1.64 1.64 0 1 0 0-3.281 1.64 1.64 0 0 0 0 3.28Z" fill="#EDF5FF"/>
  <path d="M29.406 8.203a1.64 1.64 0 0 0-1.64-1.64v3.28a1.64 1.64 0 0 0 1.64-1.64Z" fill="#D5E8FE"/>
  <path d="M40.89 29.64a1.64 1.64 0 1 0 0-3.28 1.64 1.64 0 0 0 0 3.28Z" fill="#61729B"/>
</svg>
