<svg width="56" height="53" fill="none" xmlns="http://www.w3.org/2000/svg">
  <path d="M51.078 0H4.922a1.64 1.64 0 0 0-1.64 1.64v9.844h49.437V1.641A1.64 1.64 0 0 0 51.079 0Z" fill="#07234F"/>
  <path d="M52.719 1.64A1.64 1.64 0 0 0 51.079 0H28v11.484h24.719V1.641Z" fill="#020813"/>
  <path d="M54.36 9.844H1.64A1.64 1.64 0 0 0 0 11.484V50.86a1.64 1.64 0 0 0 1.64 1.641h52.72A1.64 1.64 0 0 0 56 50.86V11.483a1.64 1.64 0 0 0-1.64-1.64Z" fill="#EDF5FF"/>
  <path d="M56 50.86V11.483a1.64 1.64 0 0 0-1.64-1.64H28V52.5h26.36A1.64 1.64 0 0 0 56 50.86Z" fill="#D5E8FE"/>
  <path d="M28 13.125H3.281v26.25l4.211 3.281H26.36l1.64-.82 24.719-12.304V13.125H28Z" fill="#76E2F8"/>
  <path d="M52.719 13.125H28v28.711l24.719-12.304V13.125Z" fill="#73BCFF"/>
  <path d="M16.516 32.813a6.569 6.569 0 0 1-6.563-6.563 6.569 6.569 0 0 1 6.563-6.563 6.569 6.569 0 0 1 6.562 6.563 6.569 6.569 0 0 1-6.562 6.563Z" fill="#FA255D"/>
  <path d="M45.718 20.344c-.618-.826-2.006-.826-2.624 0L26.36 42.656h22.148l4.21-3.281v-9.843l-7-9.188Z" fill="#020813"/>
  <path d="m41.945 39.375-9.351-12.469c-.624-.82-2.002-.82-2.625 0L28 29.531l-7.383 9.844H3.281v9.844H52.72v-9.844H41.945Z" fill="#61729B"/>
  <path d="M52.719 39.375H41.945l-9.351-12.469c-.624-.82-2.002-.82-2.625 0L28 29.531V49.22h24.719v-9.844Z" fill="#07234F"/>
</svg>
