<svg width="56" height="56" fill="none" xmlns="http://www.w3.org/2000/svg">
  <path d="M49.438 11.594v34.453H3.28V11.594a4.915 4.915 0 0 1 4.922-4.922h36.313a4.915 4.915 0 0 1 4.922 4.922Z" fill="#07234F"/>
  <path d="M49.438 11.594v34.453h-23.08V6.672h18.157a4.915 4.915 0 0 1 4.922 4.922Z" fill="#020813"/>
  <path d="M37.953 42.766v6.562H3.281A3.29 3.29 0 0 1 0 46.047v-1.64c0-.92.722-1.641 1.64-1.641h36.313Z" fill="#EDF5FF"/>
  <path d="M26.36 42.766h11.593v6.562H26.36v-6.562Z" fill="#D5E8FE"/>
  <path d="M46.156 11.594v27.89H6.563v-27.89c0-.92.721-1.64 1.64-1.64h36.313c.919 0 1.64.72 1.64 1.64Z" fill="#76E2F8"/>
  <path d="M46.156 11.594v27.89H26.36V9.954h18.157c.919 0 1.64.72 1.64 1.64Z" fill="#73BCFF"/>
  <path d="M51.078 13.234H37.953a4.927 4.927 0 0 0-4.922 4.922v26.25a4.927 4.927 0 0 0 4.922 4.922h13.125A4.927 4.927 0 0 0 56 44.406v-26.25a4.927 4.927 0 0 0-4.922-4.922Z" fill="#07234F"/>
  <path d="M56 44.406v-26.25a4.927 4.927 0 0 0-4.922-4.922h-6.562v36.094h6.562A4.927 4.927 0 0 0 56 44.406Z" fill="#020813"/>
  <path d="M51.078 16.516H37.953c-.905 0-1.64.735-1.64 1.64v26.25c0 .905.735 1.64 1.64 1.64h13.125c.905 0 1.64-.735 1.64-1.64v-26.25c0-.905-.735-1.64-1.64-1.64Z" fill="#76E2F8"/>
  <path d="M52.719 44.406v-26.25c0-.905-.736-1.64-1.64-1.64h-6.563v29.53h6.562c.905 0 1.64-.735 1.64-1.64Z" fill="#73BCFF"/>
  <path d="M47.797 41.125c0 .919-.722 1.64-1.64 1.64h-3.282c-.919 0-1.64-.721-1.64-1.64 0-.919.721-1.64 1.64-1.64h3.281c.92 0 1.64.721 1.64 1.64Zm-3.281-18.047a1.64 1.64 0 1 0 0-3.281 1.64 1.64 0 0 0 0 3.281Z" fill="#EDF5FF"/>
  <path d="M44.516 23.078v-3.281c.919 0 1.64.722 1.64 1.64 0 .92-.721 1.641-1.64 1.641Zm3.281 18.047c0 .919-.722 1.64-1.64 1.64h-1.641v-3.28h1.64c.92 0 1.64.721 1.64 1.64Z" fill="#D5E8FE"/>
</svg>
