<svg width="56" height="56" fill="none" xmlns="http://www.w3.org/2000/svg">
  <path d="M49.788 10.432H5.555a2.19 2.19 0 0 0-2.211 2.211v30.964a2.19 2.19 0 0 0 2.211 2.211h44.233A2.19 2.19 0 0 0 52 43.607V12.644a2.19 2.19 0 0 0-2.212-2.212Z" fill="#76E2F8"/>
  <path d="M52 12.643v30.964a2.19 2.19 0 0 1-2.212 2.211H27.672V10.432h22.116A2.19 2.19 0 0 1 52 12.643Z" fill="#73BCFF"/>
  <path d="M32.743 36.324a2.21 2.21 0 0 1 0-3.128l5.071-5.071-5.07-5.071a2.21 2.21 0 1 1 3.127-3.128l6.634 6.635a2.211 2.211 0 0 1 0 3.128l-6.635 6.635a2.21 2.21 0 0 1-3.127 0Z" fill="#020813"/>
  <path d="m19.473 36.324-6.635-6.635a2.211 2.211 0 0 1 0-3.128l6.635-6.635a2.211 2.211 0 1 1 3.128 3.128l-5.072 5.07 5.072 5.072a2.211 2.211 0 1 1-3.128 3.128Z" fill="#07234F"/>
</svg>
