<svg width="206" height="40" fill="none" xmlns="http://www.w3.org/2000/svg">
  <path d="M2.048 10.132H.663l.01-1.275h1.375c.38 0 .677-.067.889-.2.212-.134.36-.344.447-.632.09-.288.135-.666.135-1.133V5.696c0-.355-.024-.655-.07-.9a1.453 1.453 0 0 0-.238-.602.982.982 0 0 0-.447-.342 1.903 1.903 0 0 0-.695-.11H.636v-1.28h1.433c.453 0 .864.071 1.234.215.37.144.688.355.954.632.266.274.47.613.614 1.017.144.404.216.864.216 1.38v1.186c0 .52-.072.98-.216 1.38-.144.4-.348.74-.614 1.017a2.59 2.59 0 0 1-.954.627 3.466 3.466 0 0 1-1.255.216Zm-.47-7.67v7.67H0v-7.67h1.579Zm10.706 6.395v1.275h-3.41V8.857h3.41ZM9.364 2.46v7.67h-1.58V2.46h1.58Zm2.462 3.109v1.238H8.873V5.57h2.953Zm.447-3.109v1.28h-3.4V2.46h3.4Zm5.797 5.654c0-.137-.013-.262-.038-.374a.703.703 0 0 0-.162-.31 1.422 1.422 0 0 0-.35-.285 4.098 4.098 0 0 0-.593-.295 14.53 14.53 0 0 1-.846-.38 3.984 3.984 0 0 1-.738-.474 2.069 2.069 0 0 1-.523-.632 1.873 1.873 0 0 1-.188-.864c0-.323.06-.616.178-.88.122-.263.294-.488.517-.674.223-.19.483-.336.781-.437a3.137 3.137 0 0 1 1.008-.153c.503 0 .937.102 1.304.305.37.204.655.483.857.838.204.355.307.762.307 1.222H18.01c0-.217-.032-.409-.097-.574a.797.797 0 0 0-.296-.395.906.906 0 0 0-.528-.142.95.95 0 0 0-.501.12.728.728 0 0 0-.291.322 1.077 1.077 0 0 0-.092.453c0 .127.03.24.092.343.064.098.152.188.264.268.111.078.242.153.393.227.155.074.323.146.507.216.355.137.67.288.943.453.273.162.5.344.684.548.183.2.322.427.415.68.093.252.14.54.14.864 0 .32-.058.61-.172.874-.112.26-.275.485-.49.674-.216.187-.477.33-.782.432-.302.102-.64.153-1.013.153-.363 0-.706-.049-1.03-.147a2.533 2.533 0 0 1-.856-.459 2.158 2.158 0 0 1-.577-.785c-.14-.32-.21-.697-.21-1.132h1.579c0 .232.023.43.07.595a.898.898 0 0 0 .216.39.95.95 0 0 0 .355.216c.144.046.307.068.49.068.209 0 .374-.038.496-.116a.651.651 0 0 0 .27-.31c.054-.13.08-.278.08-.443Zm5.823-5.653v7.67h-1.568v-7.67h1.568Zm8.221 3.641v3.16a3.634 3.634 0 0 1-.49.406c-.212.151-.49.285-.835.4-.342.113-.759.17-1.25.17-.435 0-.83-.067-1.186-.201a2.408 2.408 0 0 1-.91-.606 2.748 2.748 0 0 1-.577-1.022c-.133-.41-.2-.897-.2-1.46V5.644c0-.555.063-1.038.189-1.449.13-.414.316-.758.56-1.032a2.28 2.28 0 0 1 .873-.611c.341-.134.726-.2 1.153-.2.59 0 1.073.096 1.45.29.38.193.668.479.862.858.198.38.316.845.356 1.396h-1.525c-.025-.323-.081-.576-.167-.758a.776.776 0 0 0-.35-.39c-.151-.081-.347-.121-.588-.121-.208 0-.39.036-.544.11a.909.909 0 0 0-.388.348 1.786 1.786 0 0 0-.232.622c-.05.252-.075.561-.075.927V6.95c0 .362.029.67.086.927.058.256.142.465.253.627.115.162.259.28.431.353.176.07.383.105.62.105.19 0 .343-.019.458-.058.115-.038.206-.079.275-.12.072-.046.13-.082.178-.106V7.266h-1.127V6.102h2.7Zm8.167-3.641v7.67h-1.525l-2.462-4.799v4.8h-1.498v-7.67h1.503l2.484 4.851V2.461h1.498Zm9.745 1.37-1.687 6.3h-1.665l2.452-7.67h1.04l-.14 1.37Zm1.33 6.3-1.697-6.3-.156-1.37h1.056l2.474 7.67h-1.676Zm.06-2.86v1.28h-3.54v-1.28h3.54Zm9.396-4.81v7.67h-1.525l-2.463-4.799v4.8h-1.498v-7.67h1.504l2.484 4.851V2.461h1.498Zm4.864 7.671h-1.385l.01-1.275h1.375c.38 0 .677-.067.89-.2.211-.134.36-.344.446-.632.09-.288.135-.666.135-1.133V5.696c0-.355-.023-.655-.07-.9a1.454 1.454 0 0 0-.237-.602.982.982 0 0 0-.447-.342 1.903 1.903 0 0 0-.695-.11h-1.434v-1.28h1.434c.452 0 .864.071 1.234.215.37.144.687.355.953.632.266.274.47.613.614 1.017.144.404.216.864.216 1.38v1.186c0 .52-.072.98-.216 1.38-.143.4-.348.74-.614 1.017-.262.274-.58.483-.954.627a3.466 3.466 0 0 1-1.255.216Zm-.469-7.67v7.67h-1.579v-7.67h1.58Z" fill="#495569"/>
  <path stroke="#495569" stroke-width="1.011" d="M0 15.127h68.715"/>
  <path d="M5.478 37.21 1.804 23.484 0 23.316v-2.29h7.183v2.29l-1.771.256 1.738 7.236.252 1.045h.065l.263-1.056 3.116-9.77h2.646l3.28 10.226.23.7h.065l.186-.7 1.858-7.68-1.825-.257v-2.29h7.04v2.29l-1.694.167-3.838 13.728h-3.422l-2.744-8.37-.339-1.156h-.066l-.426 1.223L9.01 37.21H5.478Zm20.312 0v-2.278l1.652-.356V23.672l-1.651-.356v-2.29h7.128v2.29l-1.65.356v10.904l1.65.356v2.279h-7.128Zm12.41 0v-2.278l1.661-.356V24.05h-2.46l-.098 1.745h-2.897v-4.768h14.792v4.768h-2.93l-.087-1.745h-2.482v10.526l1.662.356v2.279h-7.162Zm12.473 0v-2.278l1.651-.356V23.672l-1.65-.356v-2.29h7.139v2.29l-1.651.356v4.09h5.795v-4.09l-1.651-.356v-2.29h7.128v2.29l-1.65.356v10.904l1.65.356v2.279h-7.128v-2.279l1.65-.356v-3.823h-5.794v3.823l1.65.356v2.279h-7.139Z" fill="#495569"/>
  <path fill-rule="evenodd" clip-rule="evenodd" d="M78.101 0c-.343 0-.672.14-.915.39-.243.249-.38.587-.38.94v4.518c0 .735.58 1.33 1.295 1.33h19.587s3.335.572 3.335 3.426-2.302 4.079-2.302 4.079l-8.893 1.876v-5.36c0-.734-.58-1.329-1.294-1.329h-5.67c-.714 0-1.293.595-1.293 1.33v7.072l-3.649.762a1.322 1.322 0 0 0-1.036 1.303v4.956c0 .4.174.777.475 1.03.3.253.695.353 1.075.274l18.935-3.92s4.287-.68 4.287 4.241c0 4.92-3.334 4.65-3.334 4.65h-8.575V28.53c0-.397-.173-.774-.471-1.026a1.27 1.27 0 0 0-1.07-.28l-5.59 1.116a1.321 1.321 0 0 0-1.047 1.305v8.586c0 .352.136.69.38.94.241.25.57.39.914.39H98.8c6.244 0 11.274-4.761 11.274-11.176 0-10.36-5.399-9.788-5.399-9.788s5.431-1.855 4.288-9.544C108.042 2.86 103.47 0 97.688 0H78.101Z" fill="#E63946"/>
  <path d="M120.194 7.776h-1.371l.011-1.275h1.36c.377 0 .671-.067.881-.2.21-.134.357-.344.443-.632.089-.288.133-.666.133-1.133V3.34c0-.355-.023-.655-.069-.9a1.476 1.476 0 0 0-.235-.601.972.972 0 0 0-.443-.343 1.865 1.865 0 0 0-.688-.11h-1.42V.106h1.42c.448 0 .855.071 1.222.215.366.144.681.355.944.633.263.274.466.612.608 1.016.143.404.214.864.214 1.38v1.186c0 .52-.071.98-.214 1.38-.142.4-.345.74-.608 1.017-.26.274-.574.483-.944.627-.37.144-.785.216-1.244.216Zm-.464-7.67v7.67h-1.563V.106h1.563Zm11.147 6.395v1.275H127.5V6.501h3.377ZM127.985.105v7.671h-1.563V.106h1.563Zm2.439 3.109v1.238H127.5V3.214h2.924Zm.442-3.109v1.28H127.5V.106h3.366Zm5.417 6.033 1.473-6.033h1.686l-2.252 7.671h-1.137l.23-1.638ZM135.024.105l1.467 6.033.24 1.638h-1.142l-2.235-7.67h1.67Zm11.691 6.396v1.275h-3.378V6.501h3.378ZM143.823.105v7.671h-1.563V.106h1.563Zm2.438 3.109v1.238h-2.924V3.214h2.924Zm.443-3.109v1.28h-3.367V.106h3.367Zm7.311 6.396v1.275h-3.228V6.501h3.228ZM151.267.105v7.671h-1.563V.106h1.563Zm10.859 3.24v1.28c0 .541-.068 1.016-.203 1.423a2.8 2.8 0 0 1-.566 1.017c-.241.27-.535.474-.88.61-.341.138-.72.206-1.136.206-.417 0-.797-.068-1.142-.205a2.404 2.404 0 0 1-.886-.611 2.867 2.867 0 0 1-.571-1.017c-.135-.407-.203-.882-.203-1.422v-1.28c0-.556.066-1.04.198-1.455.131-.418.322-.765.571-1.043.249-.28.544-.492.885-.632A2.902 2.902 0 0 1 159.33 0c.416 0 .795.072 1.136.216.342.14.637.351.886.632.249.278.439.625.571 1.043.135.415.203.9.203 1.454Zm-1.553 1.28v-1.29a4.68 4.68 0 0 0-.08-.933 1.847 1.847 0 0 0-.24-.637 1.008 1.008 0 0 0-.39-.364 1.165 1.165 0 0 0-.533-.116 1.2 1.2 0 0 0-.539.116 1.008 1.008 0 0 0-.39.364 1.934 1.934 0 0 0-.234.637 4.97 4.97 0 0 0-.075.933v1.29c0 .352.027.652.08.901.053.25.133.454.24.612.107.158.237.275.39.353.156.073.336.11.539.11.199 0 .375-.037.528-.11a.981.981 0 0 0 .389-.353c.103-.158.182-.362.235-.612.053-.249.08-.55.08-.9Zm7.412.448h-1.59v-1.28h1.59c.221 0 .4-.049.539-.147a.832.832 0 0 0 .309-.406c.064-.176.097-.372.097-.59a1.81 1.81 0 0 0-.102-.616 1.029 1.029 0 0 0-.304-.47c-.135-.119-.315-.178-.539-.178h-1.088v6.39h-1.558V.106h2.646c.523 0 .973.108 1.35.326.377.218.665.518.864.9.203.38.305.816.305 1.307 0 .496-.102.926-.305 1.291a2.069 2.069 0 0 1-.864.843c-.377.2-.827.3-1.35.3Zm6.196-4.968h1.371l1.585 5.248 1.579-5.248h1.211l-2.209 7.671h-1.168l-2.369-7.67Zm-.555 0h1.307l.203 5.058v2.613h-1.51V.106Zm5.704 0h1.312v7.671h-1.505V5.163l.193-5.058Zm9.119 6.396v1.275h-3.378V6.501h3.378ZM185.557.105v7.671h-1.563V.106h1.563Zm2.438 3.109v1.238h-2.924V3.214h2.924Zm.443-3.109v1.28h-3.367V.106h3.367Zm8.431 0v7.671h-1.51l-2.438-4.8v4.8h-1.483V.106h1.488l2.46 4.851V.105h1.483Zm6.27 0v7.671h-1.552V.106h1.552Zm1.932 0v1.28h-5.378V.106h5.378Z" fill="#495569"/>
  <path stroke="#495569" stroke-width="1.011" d="M118.167 12.771h86.904"/>
  <path d="M118.911 34.628v-2.215l1.641-.345V21.469l-1.641-.346v-2.225h7.163c1.993 0 3.547.364 4.663 1.091s1.674 1.811 1.674 3.252c0 .742-.178 1.408-.533 1.999-.355.583-.902 1.026-1.641 1.329.63.136 1.145.37 1.544.702.398.324.692.72.88 1.188.188.461.283.962.283 1.502 0 1.541-.518 2.705-1.555 3.49-1.036.785-2.54 1.177-4.511 1.177h-7.967Zm5.456-2.884h2.511c.754 0 1.319-.148 1.696-.443.384-.296.576-.746.576-1.35 0-.455-.072-.83-.217-1.125a1.383 1.383 0 0 0-.674-.67c-.305-.15-.703-.226-1.196-.226h-2.696v3.814Zm0-6.32h1.544c.898 0 1.569-.141 2.011-.422.449-.288.674-.731.674-1.329 0-.655-.21-1.13-.631-1.426-.413-.302-1.043-.454-1.891-.454h-1.707v3.63Zm11.976 9.204v-2.215l1.642-.345V21.469l-1.642-.346v-2.236h7.783c1.254 0 2.341.198 3.261.594.921.396 1.631.962 2.131 1.696.5.728.75 1.592.75 2.593 0 .922-.254 1.78-.761 2.572-.5.792-1.189 1.43-2.065 1.912-.877.475-1.877.71-3.001.702l-2.641-.032v3.144l1.641.345v2.215h-7.098Zm10.022 0-2.13-6.136 3.315-1.124 1.924 4.678 1.5.378v2.204h-4.609Zm-4.565-8.61h2.37c.739 0 1.308-.17 1.706-.508.399-.346.598-.843.598-1.491 0-.67-.203-1.207-.609-1.61-.405-.41-.985-.616-1.739-.616H141.8v4.224Zm20.813 8.837c-1.362 0-2.55-.216-3.565-.648-1.007-.44-1.786-1.08-2.337-1.923-.551-.843-.826-1.873-.826-3.09v-7.725l-1.631-.346v-2.225h7.088v2.225l-1.642.346v7.725c0 .634.113 1.16.337 1.577.225.41.551.717.979.919.434.201.96.302 1.576.302.637 0 1.17-.1 1.598-.302a2.05 2.05 0 0 0 .978-.919c.225-.418.337-.943.337-1.577v-7.725l-1.631-.346v-2.225h7.088v2.225l-1.642.346v7.725c0 1.196-.282 2.218-.848 3.068-.565.843-1.351 1.487-2.358 1.934-1 .44-2.167.66-3.501.66Zm19.433 0c-1.507 0-2.851-.302-4.032-.907a6.718 6.718 0 0 1-2.783-2.626c-.674-1.152-1.011-2.55-1.011-4.192v-.723c0-1.513.308-2.85.924-4.009a6.753 6.753 0 0 1 2.652-2.733c1.152-.663 2.518-.994 4.098-.994 1.102 0 2.149.148 3.142.443 1 .288 1.927.785 2.782 1.49v4.052h-2.772l-.38-2.323a5.105 5.105 0 0 0-.783-.432 4.092 4.092 0 0 0-.869-.28 4.746 4.746 0 0 0-.989-.098c-.805 0-1.508.191-2.109.573-.602.381-1.069.936-1.402 1.663-.326.72-.49 1.596-.49 2.626v.745c0 .966.171 1.815.511 2.55.341.727.816 1.297 1.424 1.707.616.41 1.326.616 2.131.616.427 0 .862-.043 1.304-.13.442-.093.87-.216 1.283-.367l.38-2.226h2.783v3.965c-.63.433-1.435.81-2.413 1.135-.978.317-2.105.475-3.381.475Zm9.465-.227v-2.215l1.642-.345V21.469l-1.642-.346v-2.225h12.642v4.537h-2.88l-.087-1.62h-4.218v3.23h5.055v2.906h-5.055v3.75h4.424l.087-1.697h2.848v4.624h-12.816Z" fill="#495569"/>
</svg>
