<svg width="206" height="41" viewBox="0 0 206 41" fill="none" xmlns="http://www.w3.org/2000/svg">
<path d="M4.81856 6.28614V7.56106H1.59751V6.28614H4.81856ZM2.04532 3.17784V10.8485H0.46447V3.17784H2.04532ZM5.96239 3.17784V10.8485H4.39772V3.17784H5.96239Z" fill="#0E1A2A"/>
<path d="M13.083 9.57355V10.8485H9.66774V9.57355H13.083ZM10.1587 3.17784V10.8485H8.57786V3.17784H10.1587ZM12.6244 6.28614V7.52419H9.66774V6.28614H12.6244ZM13.0722 3.17784V4.45804H9.66774V3.17784H13.0722Z" fill="#0E1A2A"/>
<path d="M18.175 4.5476L16.4862 10.8485H14.8191L17.274 3.17784H18.3153L18.175 4.5476ZM19.5077 10.8485L17.8081 4.5476L17.6516 3.17784H18.7091L21.1856 10.8485H19.5077ZM19.567 7.9878V9.26799H16.0222V7.9878H19.567Z" fill="#0E1A2A"/>
<path d="M27.6211 9.57355V10.8485H24.3568V9.57355H27.6211ZM24.8424 3.17784V10.8485H23.2616V3.17784H24.8424Z" fill="#0E1A2A"/>
<path d="M31.8821 3.17784V10.8485H30.3121V3.17784H31.8821ZM33.8353 3.17784V4.45804H28.3967V3.17784H33.8353Z" fill="#0E1A2A"/>
<path d="M40.4326 6.28614V7.56106H37.2115V6.28614H40.4326ZM37.6593 3.17784V10.8485H36.0785V3.17784H37.6593ZM41.5764 3.17784V10.8485H40.0117V3.17784H41.5764Z" fill="#0E1A2A"/>
<path d="M50.9078 4.5476L49.2191 10.8485H47.5519L50.0068 3.17784H51.0481L50.9078 4.5476ZM52.2405 10.8485L50.541 4.5476L50.3845 3.17784H51.442L53.9185 10.8485H52.2405ZM52.2999 7.9878V9.26799H48.7551V7.9878H52.2999Z" fill="#0E1A2A"/>
<path d="M61.4869 3.17784V10.8485H59.96L57.4943 6.04906V10.8485H55.9944V3.17784H57.4997L59.987 8.02994V3.17784H61.4869Z" fill="#0E1A2A"/>
<path d="M66.1365 10.8485H64.7499L64.7607 9.57355H66.1365C66.5178 9.57355 66.8145 9.50682 67.0267 9.37336C67.2389 9.2399 67.3882 9.02916 67.4745 8.74116C67.5645 8.45316 67.6094 8.0756 67.6094 7.60848V6.41258C67.6094 6.05784 67.5861 5.75755 67.5393 5.5117C67.4925 5.26233 67.4134 5.06214 67.3019 4.91111C67.1904 4.75657 67.0411 4.64243 66.8541 4.56867C66.667 4.49492 66.435 4.45804 66.1581 4.45804H64.7229V3.17784H66.1581C66.6113 3.17784 67.0231 3.24984 67.3936 3.39384C67.7641 3.53784 68.0824 3.74857 68.3486 4.02604C68.6148 4.29999 68.8198 4.63892 68.9637 5.04282C69.1076 5.44672 69.1795 5.90682 69.1795 6.42311V7.60848C69.1795 8.12828 69.1076 8.58838 68.9637 8.98877C68.8198 9.38916 68.6148 9.72809 68.3486 10.0056C68.086 10.2795 67.7677 10.4885 67.3936 10.6325C67.0195 10.7765 66.6005 10.8485 66.1365 10.8485ZM65.6671 3.17784V10.8485H64.0862V3.17784H65.6671Z" fill="#0E1A2A"/>
<line x1="0.46447" y1="15.738" x2="69.1795" y2="15.738" stroke="#0E1A2A" stroke-width="1.01051"/>
<path d="M5.94207 37.8222L2.26847 24.0945L0.46447 23.9278V21.638H7.64767V23.9278L5.87647 24.1834L7.61487 31.4196L7.86634 32.4645H7.93194L8.19434 31.4085L11.3103 21.638H13.9562L17.2362 31.8642L17.4658 32.5645H17.5314L17.7173 31.8642L19.5759 24.1834L17.7501 23.9278V21.638H24.7911V23.9278L23.0965 24.0945L19.2589 37.8222H15.8367L13.0925 29.4522L12.7535 28.2962H12.6879L12.2615 29.5189L9.47354 37.8222H5.94207Z" fill="#0E1A2A"/>
<path d="M26.2553 37.8222V35.5435L27.9063 35.1878V24.2835L26.2553 23.9278V21.638H33.3839V23.9278L31.7329 24.2835V35.1878L33.3839 35.5435V37.8222H26.2553Z" fill="#0E1A2A"/>
<path d="M38.6638 37.8222V35.5435L40.3257 35.1878V24.6614H37.8657L37.7673 26.4065H34.8699V21.638H49.6627V26.4065H46.7326L46.6451 24.6614H44.1633V35.1878L45.8251 35.5435V37.8222H38.6638Z" fill="#0E1A2A"/>
<path d="M51.1379 37.8222V35.5435L52.7888 35.1878V24.2835L51.1379 23.9278V21.638H58.2773V23.9278L56.6264 24.2835V28.374H62.4211V24.2835L60.7701 23.9278V21.638H62.4211H66.2477H67.8987V23.9278L66.2477 24.2835V35.1878L67.8987 35.5435V37.8222H60.7701V35.5435L62.4211 35.1878V31.364H56.6264V35.1878L58.2773 35.5435V37.8222H51.1379Z" fill="#0E1A2A"/>
<path fill-rule="evenodd" clip-rule="evenodd" d="M78.5656 0.719154C78.2226 0.719154 77.8931 0.859293 77.6509 1.10865C77.408 1.35801 77.2714 1.69628 77.2714 2.04899C77.2714 3.33706 77.2714 5.2794 77.2714 6.56747C77.2714 7.30193 77.851 7.89731 78.5656 7.89731C83.123 7.89731 98.1529 7.89731 98.1529 7.89731C98.1529 7.89731 101.488 8.4696 101.488 11.3232C101.488 14.1769 99.1851 15.4017 99.1851 15.4017L90.2926 17.2778C90.2926 17.2778 90.2926 13.8696 90.2926 11.9189C90.2926 11.1845 89.713 10.5891 88.9984 10.5891C87.4509 10.5891 84.8769 10.5891 83.3294 10.5891C82.6149 10.5891 82.0352 11.1845 82.0352 11.9189C82.0352 14.2875 82.0352 18.9908 82.0352 18.9908C82.0352 18.9908 79.7669 19.4648 78.3869 19.7531C77.7843 19.8791 77.3508 20.424 77.3508 21.0562C77.3508 22.3491 77.3508 24.5196 77.3508 26.0123C77.3508 26.4112 77.5247 26.7889 77.8256 27.0418C78.1257 27.2946 78.5203 27.395 78.9006 27.3167C83.6748 26.328 97.8353 23.3956 97.8353 23.3956C97.8353 23.3956 102.123 22.7169 102.123 27.6372C102.123 32.5575 98.7881 32.2867 98.7881 32.2867H90.2132C90.2132 32.2867 90.2132 30.5933 90.2132 29.2499C90.2132 28.8526 90.0401 28.4766 89.7424 28.2237C89.4438 27.9717 89.0516 27.8689 88.6721 27.9447C87.0373 28.271 84.4997 28.7768 83.0825 29.0598C82.4743 29.1813 82.0352 29.7287 82.0352 30.3649C82.0352 32.3993 82.0352 36.7518 82.0352 38.951C82.0352 39.3033 82.1718 39.6419 82.4148 39.8915C82.6569 40.1403 82.9864 40.2806 83.3294 40.2806C86.7308 40.2806 95.8885 40.2806 99.2645 40.2806C105.508 40.2806 110.539 35.5201 110.539 29.1055C110.539 18.7448 105.14 19.3171 105.14 19.3171C105.14 19.3171 110.571 17.4619 109.427 9.77341C108.506 3.5781 103.935 0.719154 98.1529 0.719154L78.5656 0.719154Z" fill="#2A78ED"/>
<path d="M121.292 5.79779H119.693V4.5176H121.292C121.513 4.5176 121.694 4.46843 121.833 4.37008C121.976 4.27174 122.08 4.13652 122.144 3.96443C122.209 3.78882 122.241 3.59213 122.241 3.37438C122.241 3.15311 122.207 2.94764 122.139 2.75799C122.075 2.56481 121.973 2.40852 121.833 2.28911C121.697 2.16969 121.517 2.10998 121.292 2.10998H120.197V8.50043H118.631V0.829788H121.292C121.817 0.829788 122.27 0.938667 122.649 1.15642C123.028 1.37418 123.317 1.67447 123.517 2.0573C123.721 2.43662 123.823 2.87213 123.823 3.36384C123.823 3.85906 123.721 4.2893 123.517 4.65457C123.317 5.01633 123.028 5.29731 122.649 5.4975C122.27 5.6977 121.817 5.79779 121.292 5.79779Z" fill="#0E1A2A"/>
<path d="M130.781 7.2255V8.50043H127.386V7.2255H130.781ZM127.874 0.829788V8.50043H126.302V0.829788H127.874ZM130.325 3.93808V5.17613H127.386V3.93808H130.325ZM130.77 0.829788V2.10998H127.386V0.829788H130.77Z" fill="#0E1A2A"/>
<path d="M135.953 2.19955L134.274 8.50043H132.616L135.057 0.829788H136.092L135.953 2.19955ZM137.277 8.50043L135.588 2.19955L135.432 0.829788H136.484L138.945 8.50043H137.277ZM137.336 5.63974V6.91994H133.813V5.63974H137.336Z" fill="#0E1A2A"/>
<path d="M144.723 5.94531H146.284C146.263 6.52131 146.145 7.00775 145.93 7.40462C145.715 7.79799 145.41 8.09653 145.013 8.30023C144.62 8.50394 144.144 8.6058 143.586 8.6058C143.154 8.6058 142.769 8.53555 142.433 8.39506C142.097 8.25106 141.811 8.04033 141.575 7.76287C141.339 7.4854 141.16 7.14296 141.038 6.73555C140.92 6.32462 140.861 5.85223 140.861 5.31838V4.01711C140.861 3.48325 140.924 3.01086 141.049 2.59994C141.178 2.18901 141.36 1.84481 141.596 1.56735C141.836 1.28637 142.124 1.07564 142.46 0.935154C142.8 0.791154 143.182 0.719154 143.608 0.719154C144.176 0.719154 144.652 0.82452 145.034 1.03525C145.417 1.24598 145.712 1.5533 145.919 1.9572C146.13 2.35759 146.257 2.84755 146.3 3.42706H144.734C144.723 3.06179 144.68 2.77555 144.605 2.56833C144.534 2.35759 144.419 2.21008 144.262 2.12579C144.105 2.03798 143.887 1.99408 143.608 1.99408C143.4 1.99408 143.221 2.03096 143.071 2.10472C142.921 2.17496 142.798 2.28911 142.701 2.44716C142.605 2.6052 142.533 2.81242 142.487 3.06881C142.444 3.32521 142.422 3.63779 142.422 4.00657V5.31838C142.422 5.68013 142.442 5.98921 142.481 6.2456C142.521 6.49848 142.583 6.7057 142.669 6.86726C142.755 7.02882 142.871 7.14648 143.018 7.22023C143.168 7.29399 143.357 7.33087 143.586 7.33087C143.851 7.33087 144.064 7.29223 144.224 7.21497C144.389 7.1377 144.51 6.99897 144.589 6.79877C144.668 6.59857 144.712 6.31409 144.723 5.94531Z" fill="#0E1A2A"/>
<path d="M153.172 7.2255V8.50043H149.777V7.2255H153.172ZM150.265 0.829788V8.50043H148.694V0.829788H150.265ZM152.716 3.93808V5.17613H149.777V3.93808H152.716ZM153.161 0.829788V2.10998H149.777V0.829788H153.161Z" fill="#0E1A2A"/>
<path d="M164.964 4.06979V5.34999C164.964 5.89087 164.896 6.36501 164.76 6.77243C164.627 7.17633 164.438 7.51526 164.191 7.78921C163.948 8.05965 163.653 8.26336 163.306 8.40033C162.963 8.53731 162.582 8.6058 162.164 8.6058C161.746 8.6058 161.363 8.53731 161.016 8.40033C160.673 8.26336 160.376 8.05965 160.126 7.78921C159.879 7.51526 159.688 7.17633 159.552 6.77243C159.416 6.36501 159.348 5.89087 159.348 5.34999V4.06979C159.348 3.51486 159.414 3.03018 159.546 2.61574C159.679 2.19779 159.87 1.85008 160.12 1.57262C160.371 1.29164 160.667 1.08091 161.011 0.940423C161.354 0.796423 161.735 0.724423 162.153 0.724423C162.571 0.724423 162.952 0.796423 163.296 0.940423C163.639 1.08091 163.936 1.29164 164.186 1.57262C164.436 1.85008 164.627 2.19779 164.76 2.61574C164.896 3.03018 164.964 3.51486 164.964 4.06979ZM163.403 5.34999V4.05925C163.403 3.69399 163.376 3.38316 163.322 3.12677C163.269 2.86686 163.188 2.65438 163.081 2.4893C162.974 2.32423 162.843 2.20306 162.689 2.12579C162.536 2.04852 162.357 2.00989 162.153 2.00989C161.949 2.00989 161.769 2.04852 161.611 2.12579C161.458 2.20306 161.327 2.32423 161.22 2.4893C161.116 2.65438 161.038 2.86686 160.984 3.12677C160.934 3.38316 160.909 3.69399 160.909 4.05925V5.34999C160.909 5.70121 160.936 6.0015 160.989 6.25087C161.043 6.50023 161.123 6.70394 161.231 6.86199C161.338 7.02004 161.468 7.1377 161.622 7.21497C161.779 7.28872 161.96 7.3256 162.164 7.3256C162.364 7.3256 162.541 7.28872 162.695 7.21497C162.852 7.1377 162.983 7.02004 163.086 6.86199C163.19 6.70394 163.269 6.50023 163.322 6.25087C163.376 6.0015 163.403 5.70121 163.403 5.34999Z" fill="#0E1A2A"/>
<path d="M169.106 0.829788V8.50043H167.534V0.829788H169.106ZM171.551 4.09086V5.36579H168.709V4.09086H171.551ZM171.852 0.829788V2.10998H168.709V0.829788H171.852Z" fill="#0E1A2A"/>
<path d="M178.714 0.829788H180.093L181.686 6.07701L183.273 0.829788H184.491L182.27 8.50043H181.096L178.714 0.829788ZM178.156 0.829788H179.47L179.674 5.88735V8.50043H178.156V0.829788ZM183.89 0.829788H185.209V8.50043H183.697V5.88735L183.89 0.829788Z" fill="#0E1A2A"/>
<path d="M189.55 0.829788V8.50043H187.989V0.829788H189.55Z" fill="#0E1A2A"/>
<path d="M197.779 0.829788V8.50043H196.261L193.81 3.70101V8.50043H192.319V0.829788H193.815L196.288 5.68189V0.829788H197.779Z" fill="#0E1A2A"/>
<path d="M202.511 8.50043H201.132L201.143 7.2255H202.511C202.89 7.2255 203.185 7.15877 203.396 7.02531C203.606 6.89184 203.755 6.68111 203.841 6.39311C203.93 6.10511 203.975 5.72755 203.975 5.26043V4.06452C203.975 3.70979 203.952 3.4095 203.905 3.16364C203.859 2.91428 203.78 2.71408 203.669 2.56306C203.558 2.40852 203.41 2.29438 203.224 2.22062C203.038 2.14686 202.807 2.10998 202.532 2.10998H201.105V0.829788H202.532C202.983 0.829788 203.392 0.901789 203.76 1.04579C204.129 1.18979 204.445 1.40052 204.71 1.67798C204.974 1.95194 205.178 2.29086 205.321 2.69477C205.464 3.09867 205.536 3.55877 205.536 4.07506V5.26043C205.536 5.78023 205.464 6.24033 205.321 6.64072C205.178 7.04111 204.974 7.38004 204.71 7.6575C204.449 7.93145 204.132 8.14043 203.76 8.28443C203.388 8.42843 202.972 8.50043 202.511 8.50043ZM202.044 0.829788V8.50043H200.472V0.829788H202.044Z" fill="#0E1A2A"/>
<line x1="118.631" y1="13.4953" x2="205.536" y2="13.4953" stroke="#0E1A2A" stroke-width="1.01051"/>
<path d="M119.375 35.3526V33.1378L121.016 32.7921V22.1935L119.375 21.8478V19.6222H121.016H126.538C128.531 19.6222 130.086 19.9859 131.202 20.7134C132.318 21.4408 132.876 22.5248 132.876 23.9653C132.876 24.7072 132.698 25.3734 132.343 25.964C131.988 26.5474 131.441 26.9904 130.702 27.2929C131.332 27.4298 131.847 27.6638 132.245 27.9952C132.644 28.3193 132.937 28.7154 133.126 29.1836C133.314 29.6446 133.408 30.1451 133.408 30.6853C133.408 32.2267 132.89 33.3899 131.854 34.175C130.818 34.9601 129.314 35.3526 127.343 35.3526H119.375ZM124.832 32.468H127.343C128.096 32.468 128.662 32.3203 129.038 32.025C129.423 31.7297 129.615 31.2795 129.615 30.6745C129.615 30.2208 129.542 29.8462 129.397 29.5509C129.252 29.2484 129.028 29.0251 128.723 28.8811C128.419 28.7298 128.02 28.6542 127.528 28.6542H124.832V32.468ZM124.832 26.1477H126.375C127.274 26.1477 127.944 26.0073 128.386 25.7264C128.836 25.4382 129.06 24.9953 129.06 24.3975C129.06 23.742 128.85 23.2667 128.43 22.9714C128.017 22.6689 127.386 22.5176 126.538 22.5176H124.832V26.1477Z" fill="#0E1A2A"/>
<path d="M136.808 35.3526V33.1378L138.449 32.7921V22.1935L136.808 21.8478V19.6114H144.591C145.844 19.6114 146.931 19.8094 147.852 20.2056C148.772 20.6017 149.482 21.1671 149.982 21.9018C150.482 22.6292 150.732 23.4935 150.732 24.4947C150.732 25.4166 150.479 26.2737 149.971 27.066C149.471 27.8583 148.783 28.4957 147.906 28.9783C147.029 29.4537 146.029 29.6878 144.906 29.6806L142.265 29.6482V32.7921L143.906 33.1378V35.3526H136.808ZM146.83 35.3526L144.699 29.216L148.015 28.0924L149.939 32.7705L151.439 33.1486V35.3526H146.83ZM142.265 26.7419H144.634C145.373 26.7419 145.942 26.5727 146.341 26.2341C146.739 25.8884 146.939 25.3914 146.939 24.7432C146.939 24.0734 146.736 23.5368 146.33 23.1334C145.924 22.7229 145.344 22.5176 144.591 22.5176H142.265V26.7419Z" fill="#0E1A2A"/>
<path d="M163.078 35.5795C161.716 35.5795 160.527 35.3634 159.513 34.9313C158.505 34.4919 157.726 33.8509 157.176 33.0082C156.625 32.1655 156.349 31.1355 156.349 29.9183V22.1935L154.719 21.8478V19.6222H161.806V21.8478L160.165 22.1935V29.9183C160.165 30.5521 160.277 31.0779 160.502 31.4956C160.726 31.9062 161.053 32.2123 161.48 32.414C161.915 32.6156 162.44 32.7165 163.056 32.7165C163.694 32.7165 164.227 32.6156 164.654 32.414C165.089 32.2123 165.415 31.9062 165.632 31.4956C165.857 31.0779 165.969 30.5521 165.969 29.9183V22.1935L164.339 21.8478V19.6222H171.426V21.8478L169.785 22.1935V29.9183C169.785 31.1139 169.502 32.1367 168.937 32.9866C168.372 33.8293 167.585 34.4739 166.578 34.9205C165.578 35.3598 164.411 35.5795 163.078 35.5795Z" fill="#0E1A2A"/>
<path d="M182.511 35.5795C181.004 35.5795 179.659 35.277 178.478 34.672C177.297 34.0669 176.369 33.1918 175.695 32.0466C175.021 30.8942 174.685 29.4969 174.685 27.8547V27.1309C174.685 25.6183 174.992 24.2822 175.608 23.1226C176.232 21.9558 177.116 21.0447 178.261 20.3892C179.413 19.7266 180.779 19.3953 182.359 19.3953C183.46 19.3953 184.507 19.5429 185.5 19.8382C186.5 20.1263 187.428 20.6233 188.283 21.3292V25.3806H185.511L185.131 23.0578C184.884 22.8921 184.623 22.7481 184.348 22.6256C184.08 22.5032 183.79 22.4096 183.478 22.3447C183.174 22.2799 182.844 22.2475 182.489 22.2475C181.685 22.2475 180.982 22.4384 180.38 22.8201C179.779 23.2018 179.312 23.7564 178.978 24.4839C178.652 25.2042 178.489 26.0793 178.489 27.1092V27.8547C178.489 28.8199 178.659 29.6698 179 30.4044C179.34 31.1319 179.815 31.7009 180.424 32.1114C181.04 32.522 181.75 32.7273 182.554 32.7273C182.982 32.7273 183.417 32.684 183.859 32.5976C184.301 32.504 184.728 32.3815 185.141 32.2303L185.522 30.0047H188.305V33.9697C187.674 34.4019 186.87 34.78 185.891 35.1041C184.913 35.421 183.786 35.5795 182.511 35.5795Z" fill="#0E1A2A"/>
<path d="M191.976 35.3526V33.1378L193.617 32.7921V22.1935L191.976 21.8478V19.6222H204.618V24.1598H201.737L201.65 22.5392H197.433V25.7696H202.487V28.6758H197.433V32.4248H201.857L201.944 30.7285H204.792V35.3526H191.976Z" fill="#0E1A2A"/>
</svg>
