<?xml version="1.0" encoding="UTF-8" standalone="no"?>
<!DOCTYPE svg PUBLIC "-//W3C//DTD SVG 1.1//EN" "http://www.w3.org/Graphics/SVG/1.1/DTD/svg11.dtd">
<svg width="100%" height="100%" viewBox="0 0 300 68" version="1.1" xmlns="http://www.w3.org/2000/svg" xmlns:xlink="http://www.w3.org/1999/xlink" xml:space="preserve" xmlns:serif="http://www.serif.com/" style="fill-rule:evenodd;clip-rule:evenodd;stroke-linejoin:round;stroke-miterlimit:1.41421;">
    <g transform="matrix(1,0,0,1,-1590.45,-534.756)">
        <g transform="matrix(1,0,0,1,195.507,-75.7851)">
            <g transform="matrix(0.763681,0,0,0.763681,1394.95,610.541)">
                <g id="Branding-Brand" transform="matrix(1,0,0,1,107,34)">
                    <path id="Fill-1" d="M2.582,17.026L4.862,17.026C6.016,17.026 7.144,16.945 8.003,16.272C8.7,15.76 9.183,14.872 9.183,13.794C9.183,12.367 8.352,11.533 7.654,11.155C6.983,10.778 6.044,10.616 4.622,10.616L2.582,10.616L2.582,17.026ZM2.582,8.839L4.085,8.839C5.131,8.839 7.601,8.624 7.601,5.85C7.601,2.888 4.702,2.835 4.139,2.835L2.582,2.835L2.582,8.839ZM3.817,0.95C4.809,0.95 6.607,1.03 7.923,2.08C8.486,2.511 9.532,3.615 9.532,5.797C9.532,6.685 9.344,8.248 7.762,9.324C10.257,9.944 11.169,12.126 11.169,13.848C11.169,15.572 10.311,16.972 9.344,17.726C7.923,18.857 6.286,18.91 5.051,18.91L0.597,18.91L0.597,0.95L3.817,0.95Z" style="fill:rgb(157,157,157);"/>
                    <path id="Fill-3" d="M22.173,9.27L23.434,9.27C25.903,9.27 27.378,8.087 27.378,5.985C27.378,4.988 27.084,3.993 25.956,3.347C25.151,2.889 24.239,2.835 23.38,2.835L22.173,2.835L22.173,9.27ZM23.058,0.949C24.267,0.949 26.064,1.031 27.406,1.946C28.452,2.646 29.364,4.019 29.364,5.931C29.364,8.678 27.566,10.698 24.857,10.886L30.544,18.911L28.13,18.911L22.682,11.047L22.173,11.047L22.173,18.911L20.187,18.911L20.187,0.949L23.058,0.949Z" style="fill:rgb(157,157,157);"/>
                    <path id="Fill-5" d="M48.122,11.963L45.117,4.774L42.059,11.963L48.122,11.963ZM48.901,13.849L41.28,13.849L39.134,18.91L36.933,18.91L45.171,0.087L53.194,18.91L50.993,18.91L48.901,13.849Z" style="fill:rgb(157,157,157);"/>
                    <path id="Fill-7" d="M61.085,18.911L61.085,0.196L75.039,14.871L75.039,0.949L77.026,0.949L77.026,19.718L63.071,5.043L63.071,18.911L61.085,18.911Z" style="fill:rgb(157,157,157);"/>
                    <path id="Fill-9" d="M88.994,17.026L90.739,17.026C92.161,17.026 94.119,16.864 95.863,15.411C97.205,14.28 98.279,12.502 98.279,9.944C98.279,5.635 95.273,2.835 90.739,2.835L88.994,2.835L88.994,17.026ZM87.009,0.95L90.658,0.95C92.455,0.95 95.004,1.138 97.259,3.05C98.896,4.423 100.317,6.712 100.317,9.944C100.317,13.713 98.466,15.734 97.178,16.837C95.542,18.237 93.824,18.91 90.632,18.91L87.009,18.91L87.009,0.95Z" style="fill:rgb(157,157,157);"/>
                    <path id="Fill-11" d="M109.336,18.91L111.322,18.91L111.322,0.948L109.336,0.948L109.336,18.91Z" style="fill:rgb(157,157,157);"/>
                    <path id="Fill-13" d="M121.305,18.911L121.305,0.196L135.258,14.871L135.258,0.949L137.245,0.949L137.245,19.718L123.29,5.043L123.29,18.911L121.305,18.911Z" style="fill:rgb(157,157,157);"/>
                    <path id="Fill-14" d="M156.459,9.89L163.919,9.89L163.919,10.321C163.919,12.313 163.329,14.467 162.201,16.003C161.665,16.729 159.652,19.234 155.546,19.234C150.233,19.234 146.262,15.168 146.262,9.943C146.262,4.72 150.261,0.653 155.6,0.653C157.318,0.653 159.33,1.084 161.074,2.431C161.879,3.05 162.631,3.858 163.14,4.558L161.665,5.904C161.155,5.177 160.565,4.531 159.975,4.046C159.116,3.347 157.774,2.538 155.628,2.538C151.307,2.538 148.302,5.796 148.302,9.971C148.302,14.871 152.192,17.348 155.574,17.348C157.962,17.348 160.028,16.137 161.047,14.334C161.37,13.768 161.718,12.906 161.772,11.774L156.459,11.774L156.459,9.89Z" style="fill:rgb(157,157,157);"/>
                    <path id="Fill-15" d="M183.484,16.056L184.986,16.056C185.631,16.056 186.597,16.03 187.374,15.572C188.233,15.06 188.474,14.199 188.474,13.498C188.474,12.932 188.287,11.963 187.16,11.452C186.409,11.102 185.523,11.102 184.772,11.102L183.484,11.102L183.484,16.056ZM183.484,8.409L184.476,8.409C185.012,8.409 187.186,8.355 187.186,6.065C187.186,4.424 185.925,3.804 184.504,3.804L183.484,3.804L183.484,8.409ZM184.422,0.949C185.415,0.949 187.349,0.949 188.797,2.08C189.843,2.889 190.461,4.289 190.461,5.797C190.461,8.112 188.931,9.055 188.448,9.324C189.628,9.513 190.325,10.024 190.782,10.456C191.855,11.478 192.069,12.879 192.069,13.821C192.069,14.871 191.775,16.353 190.54,17.457C189.2,18.642 187.562,18.911 186.006,18.911L179.996,18.911L179.996,0.949L184.422,0.949Z" style="fill:rgb(157,157,157);"/>
                    <path id="Fill-16" d="M204.148,9.216L205.14,9.216C205.81,9.216 208.576,9.135 208.576,6.497C208.576,3.831 205.837,3.804 205.193,3.804L204.148,3.804L204.148,9.216ZM205.837,0.949C208.306,0.949 209.568,1.596 210.399,2.296C211.768,3.454 212.171,4.989 212.171,6.335C212.171,8.087 211.473,9.62 210.078,10.563C209.622,10.886 208.978,11.182 208.119,11.344L213.699,18.911L209.353,18.911L204.577,11.695L204.148,11.695L204.148,18.911L200.659,18.911L200.659,0.949L205.837,0.949Z" style="fill:rgb(157,157,157);"/>
                    <path id="Fill-17" d="M231.01,12.286L228.46,5.824L225.911,12.286L231.01,12.286ZM232.03,15.141L224.812,15.141L223.227,18.911L219.443,18.911L227.146,0.949L229.883,0.949L237.369,18.911L233.612,18.911L232.03,15.141Z" style="fill:rgb(157,157,157);"/>
                    <path id="Fill-18" d="M244.831,18.911L244.831,0.949L247.246,0.949L258.14,12.933L258.14,0.949L261.629,0.949L261.629,18.911L259.214,18.911L248.319,6.9L248.319,18.911L244.831,18.911Z" style="fill:rgb(157,157,157);"/>
                    <path id="Fill-19" d="M274.564,15.895L275.638,15.895C276.524,15.895 278.455,15.842 280.012,14.711C281.434,13.686 282.239,11.855 282.239,9.943C282.239,8.059 281.461,6.227 280.04,5.15C278.59,4.072 276.818,3.965 275.638,3.965L274.564,3.965L274.564,15.895ZM275.745,0.949C278.241,0.949 280.413,1.219 282.399,2.699C284.573,4.342 285.834,6.955 285.834,9.943C285.834,12.931 284.599,15.517 282.239,17.187C280.145,18.668 278.187,18.911 275.691,18.911L271.076,18.911L271.076,0.949L275.745,0.949Z" style="fill:rgb(157,157,157);"/>
                </g>
                <g transform="matrix(1.30945,0,0,1.30945,-2078.58,-1196.89)">
                    <g id="mark">
                        <path id="Fill-20" d="M1645.23,981.101L1596.34,981.101C1591.39,981.101 1587.37,977.074 1587.37,972.105L1587.37,923.042C1587.37,918.073 1591.39,914.046 1596.34,914.046L1645.23,914.046C1650.18,914.046 1654.19,918.073 1654.19,923.042L1654.19,972.105C1654.19,977.074 1650.18,981.101 1645.23,981.101ZM1624.52,948.189L1622.43,948.189L1622.43,961.71L1624.52,961.71C1628.23,961.71 1631.26,958.667 1631.26,954.949C1631.26,951.231 1628.23,948.189 1624.52,948.189ZM1619.28,933.437L1612.48,933.437L1612.48,961.709L1619.28,961.709L1619.28,933.437ZM1623.19,933.437L1622.43,933.437L1622.43,945.136L1623.19,945.136C1626.39,945.136 1629.02,942.504 1629.02,939.286C1629.02,936.069 1626.39,933.437 1623.19,933.437Z" style="fill:rgb(157,157,157);"/>
                    </g>
                </g>
            </g>
        </g>
    </g>
</svg>
