<svg width="315" height="209" fill="none" xmlns="http://www.w3.org/2000/svg"><path d="M0 175.267C0 106.924 70.48 51.521 157.425 51.521c86.944 0 157.426 55.403 157.426 123.746 0 68.343-49.045 11.523-135.988 11.523C91.919 186.79 0 243.61 0 175.267Z" fill="url(#a)" fill-opacity=".65"/><path d="M288.968 170.544H22.061a2.525 2.525 0 0 1 0-5.048h266.907a2.525 2.525 0 1 1 0 5.048Z" fill="#040E20"/><path d="M230.278 152.86c0 10.418-4.521 12.584-12.28 12.584H87.524c-7.76 0-12.28-2.166-12.28-12.584 0-10.417 8.6-47.724 31.512-63.722 16.482-11.508 27.472-14.322 46.005-14.322s29.522 2.814 46.005 14.322c22.912 15.998 31.512 53.305 31.512 63.722Z" fill="#E63946"/><path fill-rule="evenodd" clip-rule="evenodd" d="M224.497 160.153c.856-.751 1.915-2.505 1.915-7.293 0-4.572-1.993-16.005-6.891-28.342-4.893-12.323-12.41-24.838-22.969-32.21-8.028-5.605-14.523-8.956-21.133-10.944-6.618-1.99-13.58-2.681-22.658-2.681-9.078 0-16.04.691-22.659 2.681-6.609 1.988-13.104 5.339-21.133 10.944-10.558 7.372-18.075 19.887-22.968 32.21-4.898 12.337-6.89 23.77-6.89 28.342 0 4.788 1.058 6.542 1.914 7.293.969.851 2.77 1.424 6.5 1.424h130.473c3.729 0 5.53-.573 6.499-1.424Zm-6.499 5.291c7.759 0 12.28-2.166 12.28-12.584 0-10.417-8.6-47.724-31.512-63.722-16.483-11.508-27.472-14.322-46.005-14.322s-29.523 2.814-46.005 14.322c-22.913 15.998-31.512 53.305-31.512 63.722 0 10.418 4.52 12.584 12.28 12.584h130.474Z" fill="#BE1825"/><path d="M106.138 121.903c.159-.344.677-.141.561.219-2.32 7.211-4.843 14.506-5.003 19.306-.074 2.623.46 4.813 3.027 5.367 6.419 1.615 18.734 1.732 27.959 1.756.379 0 .409.557.032.601-8.938 1.026-21.077 1.488-28.499-.359-3.508-.77-4.702-3.843-4.463-7.456.332-5.27 3.617-13.407 6.386-19.434Zm93.265 0c-.158-.344-.676-.141-.56.219 2.32 7.211 4.843 14.506 5.002 19.306.075 2.623-.46 4.813-3.027 5.367-6.419 1.615-18.733 1.732-27.958 1.756-.38 0-.41.557-.032.601 8.937 1.026 21.077 1.488 28.499-.359 3.508-.77 4.702-3.843 4.462-7.456-.332-5.27-3.617-13.407-6.386-19.434Z" fill="#2D3749"/><path d="M196.662 163.384H108.95a2.108 2.108 0 0 1-2.106-2.007l-2.889-59.145a2.109 2.109 0 0 1 2.106-2.212h93.49a2.109 2.109 0 0 1 2.107 2.212l-2.889 59.145a2.108 2.108 0 0 1-2.107 2.007Z" fill="#040E20"/><path d="M199.564 165.495h-93.701a2.11 2.11 0 0 1 0-4.22h93.701a2.11 2.11 0 0 1 0 4.22Z" fill="url(#b)"/><path d="M160.935 131.703a8.19 8.19 0 1 1-16.379 0 8.19 8.19 0 0 1 16.379 0Z" fill="url(#c)"/><path d="m126.669 34.251-2.238-.69a2.745 2.745 0 0 0-3.433 3.432l2.978 9.661a2.746 2.746 0 0 0 2.244 1.91l.068.01a2.746 2.746 0 0 0 3.115-2.965l-.809-8.98a2.745 2.745 0 0 0-1.925-2.378Zm52.16 0 2.238-.69a2.747 2.747 0 0 1 3.433 3.432l-2.978 9.661a2.745 2.745 0 0 1-2.244 1.91l-.068.01a2.746 2.746 0 0 1-3.115-2.965l.809-8.98c.1-1.11.861-2.05 1.925-2.378Zm-26.103 57.242c-5.685 0-10.199-4.782-9.872-10.457l.688-11.955h18.368l.689 11.955c.326 5.675-4.188 10.457-9.873 10.457Z" fill="#FDE1D3"/><path d="M255.893 165.496h-12.311a1.916 1.916 0 0 1 0-3.831h12.311a6.525 6.525 0 0 0 6.463-7.388l-8.791-65.557a5.17 5.17 0 0 0-3.466-4.189l-6.044-2.015a1.916 1.916 0 0 1 1.214-3.634l6.042 2.015a9.023 9.023 0 0 1 6.05 7.314l8.793 65.556a10.363 10.363 0 0 1-2.469 8.192 10.36 10.36 0 0 1-7.792 3.537Z" fill="#040E20"/><path d="M221.524 140.171a3.017 3.017 0 0 1-1.715-3.908l44.194-113.324a3.017 3.017 0 1 1 5.622 2.193l-44.193 113.324a3.016 3.016 0 0 1-3.908 1.715Z" fill="#040E20"/><path d="M47.494 112.408c-4.912 15.717 2.554 18.534-1.965 30.486 5.894-12.215.393-18.6 1.965-30.486Zm9.968 3.044c-3.402 10.887 1.77 12.838-1.36 21.116 4.082-8.46.272-12.883 1.36-21.116Zm-5.21 5.383c3.402 10.886-1.77 12.838 1.36 21.116-4.082-8.461-.272-12.883-1.36-21.116Z" fill="#fff"/><path d="M59.047 165.496H44.433a3.34 3.34 0 0 1-3.34-3.339v-17.414a3.34 3.34 0 0 1 3.34-3.339h14.614a3.34 3.34 0 0 1 3.34 3.339v17.414a3.34 3.34 0 0 1-3.34 3.339Z" fill="#E63946"/><path d="M64.628 144.606H55v2.357h9.627a2.664 2.664 0 0 1 2.66 2.661v7.648a2.666 2.666 0 0 1-2.66 2.661H55v2.357h9.627a5.024 5.024 0 0 0 5.019-5.018v-7.648a5.024 5.024 0 0 0-5.02-5.018Z" fill="#E63946"/><path fill-rule="evenodd" clip-rule="evenodd" d="M177.986 29.944a25.37 25.37 0 0 0 .429-4.66C178.415 11.32 167.095 0 153.132 0c-11.39 0-21.021 7.532-24.185 17.886a15.663 15.663 0 0 0-.75 2.064 14.701 14.701 0 0 0-.565 4.038v23.677a21.28 21.28 0 0 0 3.267 11.329l6.799 10.804a9.342 9.342 0 0 0 7.907 4.367h14.408a9.342 9.342 0 0 0 7.907-4.367l6.799-10.804a21.272 21.272 0 0 0 3.267-11.33v-17.72Z" fill="#FDE1D3"/><g filter="url(#d)"><path d="M167.727 47.833c-4.713 0-8.547-3.835-8.547-8.548 0-4.714 3.834-8.548 8.547-8.548 4.714 0 8.548 3.834 8.548 8.548 0 4.713-3.834 8.548-8.548 8.548Zm-30.119 0c-4.713 0-8.548-3.835-8.548-8.548 0-4.714 3.835-8.548 8.548-8.548s8.548 3.834 8.548 8.548c0 4.713-3.835 8.548-8.548 8.548Zm30.119-20.338c-4.746 0-8.843 2.82-10.71 6.872a6.48 6.48 0 0 0-4.341-1.666 6.48 6.48 0 0 0-4.353 1.676c-1.865-4.057-5.965-6.882-10.715-6.882-6.501 0-11.79 5.289-11.79 11.79 0 6.5 5.289 11.79 11.79 11.79 6.501 0 11.79-5.29 11.79-11.79l-.002-.08h.018a3.266 3.266 0 0 1 3.262-3.262 3.266 3.266 0 0 1 3.262 3.262h.002l-.002.08c0 6.5 5.289 11.79 11.789 11.79 6.501 0 11.79-5.29 11.79-11.79 0-6.501-5.289-11.79-11.79-11.79Z" fill="#040E20"/></g><defs><linearGradient id="a" x1="130.784" y1="51.521" x2="267.792" y2="307.935" gradientUnits="userSpaceOnUse"><stop stop-color="#170C3E"/><stop offset="1" stop-color="#7B0D49"/></linearGradient><linearGradient id="b" x1="160.999" y1="165.495" x2="160.593" y2="156.677" gradientUnits="userSpaceOnUse"><stop stop-color="#170C3E"/><stop offset="1" stop-color="#7B0D49"/></linearGradient><linearGradient id="c" x1="154.131" y1="139.892" x2="137.022" y2="123.881" gradientUnits="userSpaceOnUse"><stop stop-color="#170C3E"/><stop offset="1" stop-color="#7B0D49"/></linearGradient><filter id="d" x="110.043" y="13.658" width="85.249" height="55.13" filterUnits="userSpaceOnUse" color-interpolation-filters="sRGB"><feFlood flood-opacity="0" result="BackgroundImageFix"/><feColorMatrix in="SourceAlpha" values="0 0 0 0 0 0 0 0 0 0 0 0 0 0 0 0 0 0 127 0" result="hardAlpha"/><feOffset dy="1.938"/><feGaussianBlur stdDeviation="7.888"/><feColorMatrix values="0 0 0 0 0.396078 0 0 0 0 0.356863 0 0 0 0 0.937255 0 0 0 0.5 0"/><feBlend in2="BackgroundImageFix" result="effect1_dropShadow_771_4313"/><feBlend in="SourceGraphic" in2="effect1_dropShadow_771_4313" result="shape"/></filter></defs></svg>