<?xml version="1.0" encoding="utf-8"?>
<!-- Generator: Adobe Illustrator 22.0.1, SVG Export Plug-In . SVG Version: 6.00 Build 0)  -->
<svg version="1.0" id="Layer_1" xmlns="http://www.w3.org/2000/svg" xmlns:xlink="http://www.w3.org/1999/xlink" x="0px" y="0px"
	 width="500px" height="167.1px" viewBox="0 0 500 167.1" enable-background="new 0 0 500 167.1" xml:space="preserve">
<g id="XMLID_288_">
	<g id="XMLID_310_">
		<path id="XMLID_316_" fill="#445765" d="M12.6,15.5h51.7c23.5,0,39.8,7.3,50.6,23c8.6,12.5,12.9,28.2,12.9,47.4
			c0,45.2-24.8,73.2-65,73.2H12.6V15.5z M58.7,141.3c32.5,0,48.2-17.7,48.2-54.7c0-16.6-3-28.4-9.3-37.7
			C90.4,38.1,78.7,33.4,60,33.4H33.1v107.9H58.7z"/>
		<path id="XMLID_313_" fill="#445765" d="M142.9,15.5h51.7c23.5,0,39.8,7.3,50.6,23c8.6,12.5,12.9,28.2,12.9,47.4
			c0,45.2-24.8,73.2-65,73.2h-50.2L142.9,15.5L142.9,15.5z M189,141.3c32.5,0,48.2-17.7,48.2-54.7c0-16.6-3-28.4-9.3-37.7
			c-7.3-10.8-18.9-15.5-37.7-15.5h-26.9v107.9H189z"/>
		<path id="XMLID_311_" fill="#445765" d="M293.6,159.1h-20.5V15.5h20.5V159.1z"/>
	</g>
	<g id="XMLID_304_">
		<path id="XMLID_305_" fill="#445765" d="M306.6,31.7c-4,0-7.3-3.2-7.3-7.3c0-3.9,3.2-7.3,7.3-7.3c4.1,0,7.3,3.3,7.3,7.3
			C313.9,28.5,310.6,31.7,306.6,31.7z M306.6,18c-3.5,0-6.3,2.9-6.3,6.3c0,3.6,2.9,6.3,6.3,6.3s6.3-2.8,6.3-6.3
			C312.9,21,310.1,18,306.6,18z M303.6,20.1h3.5c0.6,0,1.1,0,1.5,0.1c0.9,0.3,1.5,1.1,1.5,2.1c0,1.2-0.5,1.5-1.1,1.9
			c0.7,0.4,1,0.8,1,1.9V27c0,0.8,0.3,1.1,0.4,1.3h-1.5c-0.1-0.5-0.2-0.9-0.2-1.2l-0.1-1c-0.1-0.9-0.3-1.2-1.3-1.2h-2.4v3.5h-1.4
			v-8.3H303.6z M304.9,21.3v2.5h2.4c1,0,1.4-0.4,1.4-1.2c0-1.1-0.8-1.2-1.7-1.2L304.9,21.3L304.9,21.3z"/>
	</g>
	<path id="XMLID_303_" fill="#F9A31A" d="M423.5,97.3c1.5-8.3,2.3-17.6,1.8-27c-6.2,3.4-13,6-20,8c-2,9-5.2,17.8-9.4,26.1
		c-0.1,0.2-0.2,0.5-0.4,0.7c6.3,0.1,12.6-0.4,18.8-1.5c2.8-0.5,5.5-1.1,8.1-1.9C422.9,100.2,423.2,98.8,423.5,97.3z"/>
	<path id="XMLID_302_" fill="#F9A31A" d="M352.7,116c6.5,3.9,16.2,8.3,23.5,11.2c2.1-2.6,3.9-5,5.3-7c2.6-3.6,5-7.4,7.2-11.3
		c-9.8-0.7-19.5-2.6-28.3-5.2c-13.9-4.1-26.8-10.4-38.7-18.2c0,0.9-0.1,1.8-0.1,2.7c0,0.6,0.2,5,0.2,5.6
		C332.7,103.3,340.3,108.5,352.7,116z"/>
	<path id="XMLID_301_" fill="#F9A31A" d="M393.4,109.1c-3.9,6.9-8.5,13.5-13.8,19.4c9.4,3.6,19.3,6.2,29.2,7.4
		c5.6-9.3,9.8-19.4,12.6-29.8C412.5,108.6,402.9,109.4,393.4,109.1z"/>
	<path id="XMLID_300_" fill="#F9A31A" d="M348.7,144.6c8.7,1.6,17.9-6.3,24.9-14.3c-19-7.3-34.5-16-51.5-31.3
		C324.6,117.9,334.5,133.2,348.7,144.6z"/>
	<path id="XMLID_299_" fill="#F9A31A" d="M412.7,138.9c-4.9,8.1-11,15.7-18.1,21.7c21.9-0.2,41.5-10.1,54.7-25.7
		C437.7,138.5,425,139.6,412.7,138.9z"/>
	<path id="XMLID_298_" fill="#F9A31A" d="M400,79.6c-11.3,2.5-22.9,3.4-33.6,3c-15-0.6-28.5-3.6-43.4-8.9c-0.4,2-0.7,5.2-1,7.2
		c20.2,13.9,44.2,22.6,68.8,24C394.8,96.9,397.9,88.4,400,79.6z"/>
	<path id="XMLID_297_" fill="#F9A31A" d="M388.5,160.3c0.4-0.3,0.7-0.6,1.1-0.8c7.1-5.7,12.9-13.3,17.8-21c-3.2-0.3-6.4-0.8-9.5-1.3
		c-7.2-1.3-14.1-3.2-20.9-5.6c-1.7,1.8-3.4,3.5-5.2,5.2c-5.2,4.8-11.5,10-19.4,10.7C362.3,154.4,374.3,159.3,388.5,160.3z"/>
	<path id="XMLID_296_" fill="#F9A31A" d="M461,60.7c0,0.2-0.1,0.3-0.1,0.5c-1.5,6.7-4.3,13.1-8.1,18.8c-6.2,9.2-14.7,15.7-24.5,19.7
		c2.3-10.7,3.1-21.7,2.3-32.5c8.7-5.8,16-13.4,20.9-23.1c2.3,3,4.4,6.2,6.3,9.6L461,60.7z"/>
	<path id="XMLID_295_" fill="#F9A31A" d="M435.9,29.1c4.4,3.1,8.5,6.8,12.1,10.8c-3.8,9.3-10,16.9-17.9,22.8
		c-0.7-5.8-1.9-11.5-3.6-17.1c-3.3-10.7-8.7-20.8-17-28.3c8.4,1.8,16.2,5.2,23.3,9.7L435.9,29.1z"/>
	<path id="XMLID_294_" fill="#F9A31A" d="M398,16.4l7.4,0.4c0,0,17.7,15.9,19.6,49.2c0,0-8.7,5.4-19,7.7
		C406.1,73.8,411.4,33.7,398,16.4z"/>
	<g id="XMLID_292_">
		<path id="XMLID_293_" fill="#F9A31A" d="M482.5,92.6l3.2,0.6l-5.3-15.6l-9.5,12.9l3.3,0.6c-2,10.9-7.7,21.8-15.8,30
			c5.1-9.9,7.9-21,7.9-32.9c0-6.7-0.9-13.1-2.6-19.2c-2.1,5.7-5.1,11-8.9,15.9c-7.4,9.5-17,15.8-27.8,19.6
			c-1.2,4.6-2.6,9.1-4.3,13.5c-2,5.3-4.5,10.8-7.4,16.2c-0.3,0.5-0.6,1-0.8,1.5c-0.2,0.3-0.3,0.5-0.5,0.8c8.8,0.8,32,1.4,48.9-12.4
			C472.5,115.9,479.7,104.8,482.5,92.6z"/>
	</g>
	<path id="XMLID_291_" fill="#F9A31A" d="M390.1,13.9c0.2,0.1,0.3,0.2,0.5,0.2C390.3,14,390.2,14,390.1,13.9z"/>
	<path id="XMLID_290_" fill="#F9A31A" d="M402.6,51.8c-0.2-9.8-1.1-19.6-5-30.1c-0.2-0.5-0.5-1-0.7-1.5c-2-3.4-5-5.3-6.3-6
		c-0.2-0.1-0.3-0.2-0.5-0.2l0,0c-0.3-0.1-0.5-0.2-0.8-0.4c-22.9-9.5-53.9,2.2-67.4,24.7l-3.3-1l1.8,15l13.1-10.2l-3.4-1.1
		c11.8-19.9,37.4-33.7,59.1-24.9C357.7,18.2,331.7,40.4,324,70c24.3,8.9,51.7,12.2,76.9,5.9C402.4,67.8,402.7,59.9,402.6,51.8z"/>
	<path id="XMLID_289_" fill="#F9A31A" d="M390,13.9L390,13.9L390,13.9z"/>
</g>
</svg>
