<svg width="253" height="94" viewBox="0 0 253 94" fill="none" xmlns="http://www.w3.org/2000/svg">
<g filter="url(#filter0_d_714_7146)">
<path d="M3.31746 35.1328V15.7073H16.976V19.9567H8.59118V23.2954H16.1413V27.5447H8.59118V35.1328H3.31746ZM23.6728 35.1328H17.9817L24.3936 15.7073H31.6023L38.0142 35.1328H32.3232L28.0739 21.0569H27.9221L23.6728 35.1328ZM22.6104 27.4689H33.3096V31.4147H22.6104V27.4689ZM51.7371 21.7778C51.6865 21.1454 51.4494 20.6522 51.0257 20.2981C50.6084 19.944 49.9729 19.7669 49.1192 19.7669C48.5754 19.7669 48.1296 19.8333 47.7818 19.9661C47.4404 20.0926 47.1874 20.2665 47.023 20.4878C46.8586 20.7091 46.7732 20.9621 46.7669 21.2466C46.7543 21.4806 46.7954 21.6924 46.8902 21.8821C46.9914 22.0655 47.1495 22.2331 47.3645 22.3848C47.5795 22.5303 47.8545 22.6631 48.1897 22.7832C48.5248 22.9034 48.9232 23.0109 49.3848 23.1057L50.9783 23.4472C52.0533 23.6748 52.9733 23.9752 53.7385 24.3483C54.5036 24.7213 55.1296 25.1608 55.6165 25.6667C56.1034 26.1662 56.4607 26.729 56.6883 27.355C56.9223 27.981 57.0424 28.664 57.0488 29.4038C57.0424 30.6811 56.7231 31.7624 56.0908 32.6477C55.4584 33.533 54.5542 34.2064 53.378 34.668C52.2082 35.1297 50.8012 35.3605 49.1572 35.3605C47.4688 35.3605 45.9955 35.1107 44.7371 34.6111C43.4851 34.1116 42.5113 33.3433 41.8157 32.3063C41.1264 31.2629 40.7787 29.9287 40.7723 28.3035H45.7805C45.8121 28.8979 45.9607 29.3975 46.2263 29.8022C46.4918 30.2069 46.8649 30.5136 47.3455 30.7222C47.8324 30.9309 48.411 31.0352 49.0813 31.0352C49.6441 31.0352 50.1152 30.9657 50.4946 30.8266C50.874 30.6875 51.1617 30.4946 51.3577 30.248C51.5537 30.0014 51.6549 29.72 51.6612 29.4038C51.6549 29.1066 51.5569 28.8474 51.3672 28.626C51.1838 28.3984 50.8803 28.196 50.4566 28.019C50.0329 27.8356 49.4607 27.6649 48.7398 27.5068L46.8049 27.0894C45.0849 26.7164 43.7285 26.0935 42.7357 25.2209C41.7493 24.3419 41.2592 23.1436 41.2656 21.626C41.2592 20.393 41.588 19.3148 42.252 18.3916C42.9223 17.4621 43.8487 16.738 45.0311 16.2195C46.2199 15.701 47.5826 15.4417 49.1192 15.4417C50.6874 15.4417 52.0438 15.7042 53.1883 16.229C54.3329 16.7538 55.215 17.4937 55.8347 18.4485C56.4607 19.397 56.7769 20.5068 56.7832 21.7778H51.7371ZM60.6605 19.9567V15.7073H77.544V19.9567H71.7012V35.1328H66.5033V19.9567H60.6605Z" fill="white"/>
<path fill-rule="evenodd" clip-rule="evenodd" d="M92.459 24.6811H89.4805V0L123.206 0.227856L117.384 10.9031H100.02C99.7746 10.9031 99.5387 11.0002 99.3645 11.1727C99.1927 11.3452 99.0941 11.5792 99.0941 11.8232V15.6175C99.0941 16.1208 99.5043 16.5289 100.011 16.5289H114.177L109.824 24.6811H99.935C99.7197 24.6811 99.5112 24.767 99.3577 24.9199C99.2042 25.0728 99.1171 25.2799 99.1171 25.496C99.1171 26.2392 99.1194 27.3316 99.1194 28.0744C99.1194 28.5235 99.486 28.8876 99.9396 28.8876C102.052 28.8876 107.532 28.8876 107.532 28.8876L95.3894 50.9919L95.5635 37.4541L92.5208 41.7667L92.459 24.6811Z" fill="url(#paint0_linear_714_7146)"/>
<path fill-rule="evenodd" clip-rule="evenodd" d="M89.4805 24.6813V0H123.475L117.366 10.9034H100.444V16.5289H107.427L95.5039 40.7311V24.6813H89.4805Z" fill="white"/>
<path d="M127.086 35.1328V15.7073H138.809V17.794H129.438V24.3577H138.202V26.4445H129.438V33.0461H138.961V35.1328H127.086ZM144.984 26.3686V35.1328H142.746V20.5637H144.908V22.8401H145.098C145.439 22.1003 145.958 21.5059 146.653 21.0569C147.349 20.6016 148.247 20.374 149.347 20.374C150.334 20.374 151.197 20.5763 151.937 20.981C152.677 21.3794 153.252 21.9865 153.663 22.8022C154.074 23.6116 154.279 24.636 154.279 25.8754V35.1328H152.041V26.0271C152.041 24.8826 151.744 23.991 151.149 23.3523C150.555 22.7073 149.739 22.3848 148.702 22.3848C147.988 22.3848 147.349 22.5398 146.786 22.8496C146.23 23.1595 145.79 23.6116 145.468 24.206C145.145 24.8004 144.984 25.5212 144.984 26.3686ZM163.871 35.4363C162.657 35.4363 161.585 35.1297 160.656 34.5163C159.726 33.8966 158.999 33.024 158.474 31.8984C157.949 30.7665 157.687 29.4291 157.687 27.8862C157.687 26.3559 157.949 25.028 158.474 23.9025C158.999 22.7769 159.729 21.9074 160.665 21.294C161.601 20.6807 162.682 20.374 163.909 20.374C164.858 20.374 165.607 20.5321 166.157 20.8483C166.714 21.1581 167.137 21.5122 167.428 21.9106C167.725 22.3026 167.956 22.6251 168.121 22.8781H168.31V15.7073H170.549V35.1328H168.386V32.8943H168.121C167.956 33.1599 167.722 33.4951 167.419 33.8997C167.115 34.2981 166.682 34.6554 166.119 34.9716C165.556 35.2814 164.807 35.4363 163.871 35.4363ZM164.175 33.4255C165.073 33.4255 165.832 33.1915 166.451 32.7236C167.071 32.2493 167.542 31.5949 167.865 30.7602C168.187 29.9192 168.348 28.9485 168.348 27.8483C168.348 26.7606 168.19 25.809 167.874 24.9932C167.558 24.1712 167.09 23.5325 166.47 23.0772C165.851 22.6156 165.085 22.3848 164.175 22.3848C163.226 22.3848 162.436 22.6283 161.804 23.1152C161.178 23.5958 160.706 24.2502 160.39 25.0786C160.08 25.9006 159.925 26.8239 159.925 27.8483C159.925 28.8853 160.084 29.8275 160.4 30.6748C160.722 31.5158 161.196 32.1861 161.823 32.6857C162.455 33.1789 163.239 33.4255 164.175 33.4255ZM174.959 40.5962V20.5637H177.122V22.8781H177.388C177.552 22.6251 177.78 22.3026 178.07 21.9106C178.368 21.5122 178.791 21.1581 179.341 20.8483C179.898 20.5321 180.65 20.374 181.599 20.374C182.826 20.374 183.907 20.6807 184.843 21.294C185.779 21.9074 186.509 22.7769 187.034 23.9025C187.559 25.028 187.821 26.3559 187.821 27.8862C187.821 29.4291 187.559 30.7665 187.034 31.8984C186.509 33.024 185.782 33.8966 184.852 34.5163C183.923 35.1297 182.851 35.4363 181.637 35.4363C180.701 35.4363 179.952 35.2814 179.389 34.9716C178.826 34.6554 178.393 34.2981 178.089 33.8997C177.786 33.4951 177.552 33.1599 177.388 32.8943H177.198V40.5962H174.959ZM177.16 27.8483C177.16 28.9485 177.321 29.9192 177.644 30.7602C177.966 31.5949 178.437 32.2493 179.057 32.7236C179.677 33.1915 180.435 33.4255 181.333 33.4255C182.269 33.4255 183.05 33.1789 183.676 32.6857C184.309 32.1861 184.783 31.5158 185.099 30.6748C185.421 29.8275 185.583 28.8853 185.583 27.8483C185.583 26.8239 185.425 25.9006 185.108 25.0786C184.799 24.2502 184.327 23.5958 183.695 23.1152C183.069 22.6283 182.282 22.3848 181.333 22.3848C180.423 22.3848 179.658 22.6156 179.038 23.0772C178.418 23.5325 177.95 24.1712 177.634 24.9932C177.318 25.809 177.16 26.7606 177.16 27.8483ZM197.155 35.4363C195.839 35.4363 194.685 35.1233 193.692 34.4973C192.706 33.8713 191.935 32.9955 191.378 31.8699C190.828 30.7444 190.553 29.4291 190.553 27.9241C190.553 26.4065 190.828 25.0818 191.378 23.9499C191.935 22.818 192.706 21.939 193.692 21.313C194.685 20.687 195.839 20.374 197.155 20.374C198.47 20.374 199.621 20.687 200.607 21.313C201.6 21.939 202.371 22.818 202.921 23.9499C203.478 25.0818 203.756 26.4065 203.756 27.9241C203.756 29.4291 203.478 30.7444 202.921 31.8699C202.371 32.9955 201.6 33.8713 200.607 34.4973C199.621 35.1233 198.47 35.4363 197.155 35.4363ZM197.155 33.4255C198.154 33.4255 198.976 33.1694 199.621 32.6572C200.266 32.145 200.743 31.4716 201.053 30.6369C201.363 29.8022 201.518 28.8979 201.518 27.9241C201.518 26.9503 201.363 26.0429 201.053 25.2019C200.743 24.3609 200.266 23.6811 199.621 23.1626C198.976 22.6441 198.154 22.3848 197.155 22.3848C196.155 22.3848 195.333 22.6441 194.688 23.1626C194.043 23.6811 193.566 24.3609 193.256 25.2019C192.946 26.0429 192.791 26.9503 192.791 27.9241C192.791 28.8979 192.946 29.8022 193.256 30.6369C193.566 31.4716 194.043 32.145 194.688 32.6572C195.333 33.1694 196.155 33.4255 197.155 33.4255ZM207.173 35.1328V20.5637H209.412V35.1328H207.173ZM208.311 18.1355C207.875 18.1355 207.499 17.9869 207.183 17.6897C206.873 17.3925 206.718 17.0352 206.718 16.6179C206.718 16.2006 206.873 15.8433 207.183 15.5461C207.499 15.2489 207.875 15.1003 208.311 15.1003C208.748 15.1003 209.121 15.2489 209.431 15.5461C209.747 15.8433 209.905 16.2006 209.905 16.6179C209.905 17.0352 209.747 17.3925 209.431 17.6897C209.121 17.9869 208.748 18.1355 208.311 18.1355ZM215.75 26.3686V35.1328H213.512V20.5637H215.674V22.8401H215.864C216.205 22.1003 216.724 21.5059 217.419 21.0569C218.115 20.6016 219.013 20.374 220.113 20.374C221.1 20.374 221.963 20.5763 222.703 20.981C223.442 21.3794 224.018 21.9865 224.429 22.8022C224.84 23.6116 225.045 24.636 225.045 25.8754V35.1328H222.807V26.0271C222.807 24.8826 222.51 23.991 221.915 23.3523C221.321 22.7073 220.505 22.3848 219.468 22.3848C218.754 22.3848 218.115 22.5398 217.552 22.8496C216.996 23.1595 216.556 23.6116 216.234 24.206C215.911 24.8004 215.75 25.5212 215.75 26.3686ZM235.472 20.5637V22.4607H227.922V20.5637H235.472ZM230.122 17.0732H232.361V30.9594C232.361 31.5917 232.453 32.066 232.636 32.3821C232.826 32.692 233.066 32.9007 233.357 33.0081C233.654 33.1093 233.967 33.1599 234.296 33.1599C234.542 33.1599 234.745 33.1473 234.903 33.122C235.061 33.0904 235.187 33.0651 235.282 33.0461L235.738 35.0569C235.586 35.1138 235.374 35.1708 235.102 35.2277C234.83 35.2909 234.486 35.3225 234.068 35.3225C233.436 35.3225 232.816 35.1866 232.209 34.9147C231.608 34.6427 231.109 34.2286 230.71 33.6721C230.318 33.1156 230.122 32.4138 230.122 31.5664V17.0732ZM248.898 23.8266L246.887 24.3957C246.761 24.0605 246.574 23.7349 246.328 23.4187C246.087 23.0962 245.759 22.8306 245.341 22.622C244.924 22.4133 244.39 22.309 243.738 22.309C242.847 22.309 242.104 22.5145 241.509 22.9255C240.921 23.3302 240.627 23.8455 240.627 24.4716C240.627 25.028 240.829 25.4675 241.234 25.79C241.639 26.1125 242.271 26.3812 243.131 26.5962L245.294 27.1274C246.596 27.4436 247.567 27.9273 248.206 28.5786C248.844 29.2236 249.164 30.0551 249.164 31.0732C249.164 31.9079 248.923 32.654 248.443 33.3117C247.969 33.9693 247.305 34.4878 246.451 34.8672C245.597 35.2466 244.605 35.4363 243.473 35.4363C241.987 35.4363 240.757 35.1138 239.783 34.4689C238.809 33.8239 238.193 32.8817 237.933 31.6423L240.058 31.1111C240.26 31.8952 240.643 32.4833 241.206 32.8754C241.775 33.2674 242.518 33.4634 243.435 33.4634C244.478 33.4634 245.306 33.2421 245.92 32.7995C246.539 32.3505 246.849 31.813 246.849 31.187C246.849 30.6811 246.672 30.2575 246.318 29.916C245.964 29.5682 245.42 29.309 244.687 29.1382L242.259 28.5691C240.924 28.253 239.944 27.7629 239.318 27.0989C238.698 26.4287 238.389 25.5908 238.389 24.5854C238.389 23.7633 238.619 23.0361 239.081 22.4038C239.549 21.7715 240.184 21.2751 240.988 20.9146C241.797 20.5542 242.714 20.374 243.738 20.374C245.18 20.374 246.312 20.6902 247.134 21.3225C247.962 21.9548 248.55 22.7895 248.898 23.8266Z" fill="white"/>
</g>
<rect x="2.81554" y="62.8077" width="246.961" height="30.15" rx="15.075" fill="#000004"/>
<path d="M23.8175 79.2628C23.8175 79.709 23.7296 80.1053 23.554 80.4519C23.3831 80.7937 23.1363 81.0832 22.8135 81.3206C22.4954 81.5579 22.1085 81.7383 21.6528 81.8617C21.2018 81.9852 20.6987 82.0469 20.1433 82.0469H17.708V72.7404H20.3711C22.4456 72.7404 23.4828 73.4951 23.4828 75.0047C23.4828 75.5079 23.3617 75.9398 23.1196 76.3006C22.8823 76.6614 22.493 76.9296 21.9519 77.1052C22.2035 77.1527 22.4408 77.2334 22.6639 77.3473C22.8918 77.4613 23.0912 77.6084 23.2621 77.7888C23.4329 77.9692 23.5682 78.1828 23.6679 78.4297C23.7676 78.6765 23.8175 78.9542 23.8175 79.2628ZM22.1655 75.1756C22.1655 74.9857 22.137 74.8077 22.08 74.6415C22.0231 74.4706 21.9234 74.3259 21.781 74.2072C21.6386 74.0838 21.4463 73.9865 21.2042 73.9152C20.9621 73.844 20.6559 73.8084 20.2857 73.8084H18.9755V76.7207H20.243C20.5325 76.7207 20.7936 76.6899 21.0262 76.6282C21.2636 76.5665 21.4653 76.4715 21.6315 76.3433C21.8023 76.2152 21.9329 76.0561 22.0231 75.8663C22.118 75.6716 22.1655 75.4414 22.1655 75.1756ZM22.4717 79.3055C22.4717 79.0681 22.4218 78.8545 22.3221 78.6646C22.2225 78.4747 22.0777 78.3157 21.8878 78.1876C21.6979 78.0546 21.4653 77.9526 21.19 77.8814C20.9194 77.8102 20.6132 77.7746 20.2714 77.7746H18.9755V80.9788H20.3142C21.0405 80.9788 21.5816 80.8435 21.9376 80.5729C22.2937 80.3023 22.4717 79.8799 22.4717 79.3055ZM31.5883 82.0469H30.4775L30.4348 80.8934C30.2212 81.1402 30.0171 81.3467 29.8224 81.5128C29.6326 81.6742 29.4427 81.8048 29.2528 81.9045C29.0629 82.0042 28.8707 82.073 28.676 82.111C28.4862 82.1537 28.2844 82.175 28.0708 82.175C27.335 82.175 26.7796 81.9591 26.4046 81.5271C26.0296 81.0951 25.8421 80.4424 25.8421 79.5689V74.8979H27.081V79.4692C27.081 80.5658 27.494 81.1141 28.32 81.1141C28.4719 81.1141 28.6191 81.0927 28.7615 81.05C28.9086 81.0025 29.0605 80.9242 29.2172 80.815C29.3786 80.7011 29.5495 80.5492 29.7299 80.3593C29.915 80.1694 30.1215 79.9297 30.3494 79.6401V74.8979H31.5883V82.0469ZM36.3971 75.9232H34.2823V74.8979H37.6503V81.0144H39.7793V82.0469H34.0473V81.0144H36.3971V75.9232ZM36.8314 71.9001C36.9691 71.9001 37.0973 71.9262 37.2159 71.9785C37.3346 72.0259 37.4367 72.0948 37.5221 72.185C37.6123 72.2752 37.6811 72.3796 37.7286 72.4983C37.7808 72.6122 37.8069 72.738 37.8069 72.8756C37.8069 73.0086 37.7808 73.1344 37.7286 73.253C37.6811 73.3717 37.6123 73.4761 37.5221 73.5663C37.4367 73.6565 37.3346 73.7277 37.2159 73.78C37.0973 73.8274 36.9691 73.8512 36.8314 73.8512C36.6938 73.8512 36.5656 73.8274 36.4469 73.78C36.3282 73.7277 36.2238 73.6565 36.1336 73.5663C36.0482 73.4761 35.9793 73.3717 35.9271 73.253C35.8796 73.1344 35.8559 73.0086 35.8559 72.8756C35.8559 72.738 35.8796 72.6122 35.9271 72.4983C35.9793 72.3796 36.0482 72.2752 36.1336 72.185C36.2238 72.0948 36.3282 72.0259 36.4469 71.9785C36.5656 71.9262 36.6938 71.9001 36.8314 71.9001ZM44.5169 73.0038H42.4021V71.9856H45.7701V81.0144H47.8991V82.0469H42.1671V81.0144H44.5169V73.0038ZM49.8383 78.6219C49.8383 78.0143 49.9213 77.4755 50.0875 77.0055C50.2536 76.5308 50.4886 76.1321 50.7924 75.8093C51.101 75.4818 51.4689 75.2349 51.8961 75.0688C52.3281 74.8979 52.8075 74.8124 53.3344 74.8124C53.5623 74.8124 53.7854 74.8267 54.0038 74.8552C54.2269 74.8836 54.4452 74.9287 54.6589 74.9904V71.9856H55.905V82.0469H54.7941L54.7514 80.694C54.4049 81.1972 54.0299 81.5698 53.6264 81.8119C53.2229 82.054 52.7862 82.175 52.3162 82.175C51.908 82.175 51.5472 82.0896 51.2339 81.9187C50.9253 81.7478 50.6666 81.5081 50.4578 81.1995C50.2536 80.8862 50.0994 80.5112 49.9949 80.0745C49.8905 79.6378 49.8383 79.1536 49.8383 78.6219ZM51.1057 78.5436C51.1057 79.4075 51.2315 80.0531 51.4831 80.4804C51.7394 80.9028 52.1002 81.1141 52.5654 81.1141C52.8787 81.1141 53.2086 80.9741 53.5552 80.694C53.9065 80.4139 54.2744 79.9985 54.6589 79.4479V76.1297C54.4547 76.0348 54.2293 75.9636 53.9824 75.9161C53.7356 75.8639 53.4911 75.8378 53.249 75.8378C52.5749 75.8378 52.048 76.0561 51.6682 76.4929C51.2932 76.9296 51.1057 77.6132 51.1057 78.5436ZM72.5361 75.5886C72.5361 75.9683 72.4649 76.3457 72.3225 76.7207C72.1801 77.091 71.9594 77.4233 71.6603 77.7176C71.3613 78.0119 70.9791 78.2516 70.5139 78.4368C70.0487 78.6172 69.4933 78.7074 68.8477 78.7074H67.6942V82.0469H66.4267V72.7404H69.0471C69.5076 72.7404 69.949 72.7926 70.3715 72.897C70.794 72.9967 71.1643 73.1605 71.4823 73.3883C71.8051 73.6162 72.0614 73.9105 72.2513 74.2713C72.4412 74.632 72.5361 75.0711 72.5361 75.5886ZM71.2188 75.6455C71.2188 75.0474 71.0218 74.5893 70.6278 74.2713C70.2386 73.9532 69.6927 73.7942 68.9901 73.7942H67.6942V77.625H68.8762C69.6262 77.625 70.203 77.4613 70.6065 77.1337C71.0147 76.8062 71.2188 76.3101 71.2188 75.6455ZM80.599 78.095C80.599 78.2706 80.5966 78.4178 80.5918 78.5365C80.5871 78.6551 80.58 78.7667 80.5705 78.8711H75.5505C75.5505 79.6022 75.7546 80.1647 76.1629 80.5587C76.5711 80.9479 77.1598 81.1426 77.9288 81.1426C78.1376 81.1426 78.3465 81.1354 78.5554 81.1212C78.7642 81.1022 78.966 81.0785 79.1606 81.05C79.3552 81.0215 79.5404 80.9907 79.716 80.9574C79.8964 80.9195 80.0626 80.8791 80.2145 80.8364V81.8546C79.8774 81.9496 79.4953 82.0255 79.0681 82.0825C78.6456 82.1442 78.2065 82.175 77.7508 82.175C77.1384 82.175 76.6115 82.092 76.17 81.9258C75.7285 81.7597 75.3654 81.52 75.0806 81.2067C74.8005 80.8886 74.5916 80.5017 74.454 80.046C74.321 79.5855 74.2546 79.0658 74.2546 78.4866C74.2546 77.9834 74.3258 77.5087 74.4682 77.0625C74.6154 76.6115 74.8266 76.2175 75.1019 75.8805C75.382 75.5387 75.7238 75.2681 76.1273 75.0688C76.5308 74.8694 76.9889 74.7697 77.5015 74.7697C78 74.7697 78.4414 74.848 78.826 75.0047C79.2105 75.1613 79.5333 75.3844 79.7943 75.674C80.0602 75.9588 80.2596 76.3077 80.3925 76.7207C80.5301 77.129 80.599 77.5871 80.599 78.095ZM79.3101 77.917C79.3244 77.5989 79.2935 77.3094 79.2176 77.0483C79.1416 76.7824 79.023 76.5546 78.8616 76.3647C78.7049 76.1748 78.5079 76.0277 78.2706 75.9232C78.0332 75.814 77.7579 75.7595 77.4446 75.7595C77.174 75.7595 76.9271 75.8117 76.704 75.9161C76.4809 76.0205 76.2887 76.1677 76.1273 76.3576C75.9659 76.5475 75.8353 76.7753 75.7356 77.0412C75.636 77.307 75.5743 77.5989 75.5505 77.917H79.3101ZM82.9725 74.8979H84.1046L84.1402 76.2152C84.5627 75.7072 84.9781 75.3393 85.3863 75.1115C85.7993 74.8836 86.2147 74.7697 86.6324 74.7697C87.373 74.7697 87.9331 75.0094 88.3129 75.4889C88.6974 75.9683 88.8754 76.6804 88.8469 77.625H87.5937C87.6079 76.9984 87.5154 76.5451 87.316 76.265C87.1214 75.9802 86.8342 75.8378 86.4544 75.8378C86.2883 75.8378 86.1198 75.8686 85.9489 75.9304C85.7827 75.9873 85.6094 76.0823 85.4291 76.2152C85.2534 76.3433 85.0659 76.5095 84.8665 76.7136C84.6672 76.9177 84.4536 77.1646 84.2257 77.4541V82.0469H82.9725V74.8979ZM97.1447 73.1391C96.4944 73.0014 95.9342 72.9326 95.4643 72.9326C94.3487 72.9326 93.7909 73.5165 93.7909 74.6843V75.9375H96.924V76.9699H93.7909V82.0469H92.5306V76.9699H90.2307V75.9375H92.5306V74.7555C92.5306 72.8519 93.5227 71.9001 95.507 71.9001C96.0007 71.9001 96.5466 71.9571 97.1447 72.071V73.1391ZM105.143 78.4154C105.143 78.9708 105.065 79.4811 104.908 79.9463C104.752 80.4068 104.526 80.8032 104.232 81.1354C103.938 81.463 103.579 81.7193 103.157 81.9045C102.734 82.0849 102.255 82.175 101.718 82.175C101.206 82.175 100.745 82.0967 100.337 81.9401C99.9336 81.7787 99.5894 81.5437 99.3046 81.2351C99.0245 80.9266 98.8086 80.5444 98.6566 80.0887C98.5095 79.633 98.4359 79.1085 98.4359 78.5151C98.4359 77.9597 98.5142 77.4541 98.6709 76.9984C98.8275 76.538 99.053 76.144 99.3473 75.8164C99.6417 75.4841 100 75.2278 100.423 75.0474C100.845 74.8623 101.324 74.7697 101.861 74.7697C102.374 74.7697 102.832 74.8504 103.235 75.0118C103.643 75.1685 103.988 75.4011 104.268 75.7096C104.552 76.0134 104.768 76.3932 104.916 76.8489C105.067 77.3046 105.143 77.8268 105.143 78.4154ZM103.876 78.4724C103.876 78.0309 103.826 77.6464 103.726 77.3189C103.632 76.9866 103.494 76.7112 103.313 76.4929C103.133 76.2698 102.912 76.1036 102.651 75.9944C102.395 75.8805 102.108 75.8235 101.79 75.8235C101.419 75.8235 101.101 75.8971 100.836 76.0443C100.574 76.1867 100.358 76.3789 100.188 76.621C100.021 76.8631 99.898 77.1456 99.8173 77.4684C99.7413 77.7864 99.7034 78.1211 99.7034 78.4724C99.7034 78.9138 99.7508 79.3007 99.8458 79.633C99.9455 79.9653 100.085 80.243 100.266 80.4661C100.446 80.6845 100.665 80.8506 100.921 80.9646C101.177 81.0737 101.467 81.1283 101.79 81.1283C102.16 81.1283 102.476 81.0571 102.737 80.9147C103.003 80.7676 103.219 80.5729 103.385 80.3308C103.556 80.0887 103.679 79.8087 103.755 79.4906C103.836 79.1678 103.876 78.8284 103.876 78.4724ZM107.332 74.8979H108.464L108.5 76.2152C108.922 75.7072 109.337 75.3393 109.746 75.1115C110.159 74.8836 110.574 74.7697 110.992 74.7697C111.732 74.7697 112.292 75.0094 112.672 75.4889C113.057 75.9683 113.235 76.6804 113.206 77.625H111.953C111.967 76.9984 111.875 76.5451 111.675 76.265C111.481 75.9802 111.194 75.8378 110.814 75.8378C110.648 75.8378 110.479 75.8686 110.308 75.9304C110.142 75.9873 109.969 76.0823 109.788 76.2152C109.613 76.3433 109.425 76.5095 109.226 76.7136C109.027 76.9177 108.813 77.1646 108.585 77.4541V82.0469H107.332V74.8979ZM120.258 82.0469V76.913C120.258 76.6899 120.248 76.5071 120.229 76.3647C120.215 76.2223 120.189 76.1107 120.151 76.03C120.118 75.9446 120.073 75.8853 120.016 75.852C119.964 75.8188 119.897 75.8022 119.816 75.8022C119.722 75.8022 119.634 75.8307 119.553 75.8876C119.472 75.9446 119.385 76.0372 119.29 76.1653C119.199 76.2935 119.097 76.4644 118.983 76.678C118.874 76.8869 118.744 77.1456 118.592 77.4541V82.0469H117.46V77.0483C117.46 76.7872 117.45 76.5759 117.431 76.4145C117.417 76.2531 117.391 76.1274 117.353 76.0372C117.32 75.947 117.274 75.8853 117.218 75.852C117.161 75.8188 117.092 75.8022 117.011 75.8022C116.926 75.8022 116.845 75.8259 116.769 75.8734C116.693 75.9209 116.608 76.0063 116.513 76.1297C116.422 76.2531 116.32 76.4217 116.206 76.6353C116.092 76.8489 115.957 77.1219 115.801 77.4541V82.0469H114.661V74.8979H115.608L115.665 76.2579C115.789 75.9873 115.907 75.7571 116.021 75.5672C116.14 75.3773 116.261 75.2254 116.384 75.1115C116.508 74.9928 116.638 74.9074 116.776 74.8552C116.918 74.7982 117.075 74.7697 117.246 74.7697C117.63 74.7697 117.922 74.8955 118.122 75.1471C118.321 75.3987 118.421 75.7879 118.421 76.3149C118.535 76.068 118.646 75.8497 118.756 75.6598C118.865 75.4651 118.981 75.3037 119.104 75.1756C119.233 75.0427 119.373 74.943 119.525 74.8765C119.676 74.8053 119.852 74.7697 120.051 74.7697C120.949 74.7697 121.397 75.4604 121.397 76.8418V82.0469H120.258ZM127.872 82.0469L127.844 81.0856C127.454 81.4701 127.058 81.7478 126.655 81.9187C126.256 82.0896 125.836 82.175 125.394 82.175C124.986 82.175 124.637 82.1228 124.348 82.0184C124.058 81.914 123.818 81.7715 123.628 81.5912C123.443 81.406 123.306 81.19 123.215 80.9432C123.13 80.6964 123.087 80.4281 123.087 80.1386C123.087 79.4218 123.353 78.8616 123.885 78.4581C124.421 78.0499 125.211 77.8458 126.256 77.8458H127.737V77.2192C127.737 76.7967 127.602 76.4596 127.331 76.2081C127.06 75.9517 126.647 75.8235 126.092 75.8235C125.689 75.8235 125.29 75.8686 124.896 75.9588C124.507 76.049 124.103 76.1772 123.685 76.3433V75.2254C123.842 75.1685 124.015 75.1139 124.205 75.0616C124.4 75.0047 124.604 74.9548 124.817 74.9121C125.031 74.8694 125.254 74.8362 125.487 74.8124C125.719 74.7839 125.954 74.7697 126.192 74.7697C126.624 74.7697 127.013 74.8172 127.36 74.9121C127.706 75.0071 127.998 75.1518 128.235 75.3465C128.477 75.5411 128.663 75.7856 128.791 76.0799C128.919 76.3742 128.983 76.7207 128.983 77.1195V82.0469H127.872ZM127.737 78.7928H126.163C125.855 78.7928 125.589 78.8237 125.366 78.8854C125.143 78.9471 124.96 79.0349 124.817 79.1488C124.675 79.2628 124.568 79.4004 124.497 79.5618C124.431 79.7185 124.397 79.8965 124.397 80.0959C124.397 80.2335 124.419 80.3664 124.461 80.4946C124.504 80.618 124.573 80.7296 124.668 80.8293C124.763 80.9242 124.886 81.0002 125.038 81.0571C125.19 81.1141 125.375 81.1426 125.594 81.1426C125.878 81.1426 126.204 81.0571 126.569 80.8862C126.939 80.7106 127.329 80.4353 127.737 80.0603V78.7928ZM131.399 74.8979H132.503L132.553 76.0514C132.762 75.8046 132.963 75.6004 133.158 75.439C133.353 75.2729 133.543 75.14 133.728 75.0403C133.918 74.9406 134.11 74.8718 134.304 74.8338C134.499 74.7911 134.701 74.7697 134.91 74.7697C135.645 74.7697 136.201 74.9881 136.576 75.4248C136.956 75.8568 137.145 76.5095 137.145 77.3829V82.0469H135.907V77.4826C135.907 76.9225 135.802 76.5095 135.593 76.2437C135.384 75.9731 135.073 75.8378 134.66 75.8378C134.509 75.8378 134.359 75.8615 134.212 75.909C134.069 75.9517 133.92 76.03 133.763 76.144C133.607 76.2531 133.436 76.4027 133.251 76.5926C133.07 76.7824 132.866 77.0198 132.638 77.3046V82.0469H131.399V74.8979ZM145.28 81.9472C144.999 82.0184 144.71 82.0682 144.411 82.0967C144.112 82.1299 143.808 82.1466 143.499 82.1466C142.602 82.1466 141.933 81.9448 141.491 81.5413C141.05 81.1331 140.829 80.5088 140.829 79.6686V75.9375H138.828V74.8979H140.829V72.9326L142.068 72.6122V74.8979H145.28V75.9375H142.068V79.5689C142.068 80.0816 142.203 80.4661 142.474 80.7225C142.749 80.9741 143.153 81.0998 143.685 81.0998C143.912 81.0998 144.162 81.0832 144.432 81.05C144.703 81.012 144.985 80.9551 145.28 80.8791V81.9472ZM162.566 82.0469H161.184L160.536 80.0175H156.663L156.008 82.0469H154.69L157.781 72.7404H159.518L162.566 82.0469ZM160.173 78.8854L158.6 73.9081L157.026 78.8854H160.173ZM169.974 75.5886C169.974 75.9683 169.902 76.3457 169.76 76.7207C169.617 77.091 169.397 77.4233 169.098 77.7176C168.799 78.0119 168.416 78.2516 167.951 78.4368C167.486 78.6172 166.931 78.7074 166.285 78.7074H165.132V82.0469H163.864V72.7404H166.484C166.945 72.7404 167.386 72.7926 167.809 72.897C168.231 72.9967 168.602 73.1605 168.92 73.3883C169.242 73.6162 169.499 73.9105 169.689 74.2713C169.879 74.632 169.974 75.0711 169.974 75.5886ZM168.656 75.6455C168.656 75.0474 168.459 74.5893 168.065 74.2713C167.676 73.9532 167.13 73.7942 166.428 73.7942H165.132V77.625H166.314C167.064 77.625 167.64 77.4613 168.044 77.1337C168.452 76.8062 168.656 76.3101 168.656 75.6455ZM174.227 73.8084H172.084V72.7404H177.652V73.8084H175.509V80.9646H177.652V82.0469H172.084V80.9646H174.227V73.8084ZM185.779 80.0959C185.779 80.3474 185.736 80.5729 185.651 80.7723C185.565 80.9717 185.449 81.1497 185.302 81.3063C185.154 81.4582 184.984 81.5888 184.789 81.698C184.594 81.8072 184.385 81.8973 184.162 81.9685C183.944 82.0398 183.719 82.092 183.486 82.1252C183.253 82.1584 183.025 82.175 182.802 82.175C182.318 82.175 181.872 82.1537 181.464 82.111C181.06 82.0682 180.664 81.9994 180.275 81.9045V80.7652C180.692 80.8839 181.108 80.9741 181.521 81.0358C181.934 81.0975 182.344 81.1283 182.753 81.1283C183.346 81.1283 183.785 81.0476 184.07 80.8862C184.355 80.7248 184.497 80.4946 184.497 80.1955C184.497 80.0674 184.473 79.9534 184.426 79.8538C184.383 79.7493 184.302 79.652 184.184 79.5618C184.065 79.4669 183.88 79.3696 183.628 79.2699C183.381 79.1702 183.042 79.0563 182.61 78.9281C182.287 78.8331 181.988 78.7263 181.713 78.6077C181.442 78.4842 181.207 78.3395 181.008 78.1733C180.809 78.0072 180.652 77.8125 180.538 77.5894C180.424 77.3663 180.367 77.1029 180.367 76.7991C180.367 76.5997 180.412 76.3813 180.502 76.144C180.597 75.9066 180.756 75.6859 180.98 75.4818C181.203 75.2776 181.504 75.1091 181.884 74.9762C182.264 74.8385 182.738 74.7697 183.308 74.7697C183.588 74.7697 183.899 74.7863 184.241 74.8196C184.582 74.848 184.939 74.9002 185.309 74.9762V76.0799C184.92 75.9849 184.549 75.9161 184.198 75.8734C183.851 75.8259 183.55 75.8022 183.294 75.8022C182.985 75.8022 182.724 75.8259 182.51 75.8734C182.302 75.9209 182.131 75.9873 181.998 76.0728C181.87 76.1535 181.777 76.2508 181.72 76.3647C181.663 76.4739 181.635 76.5926 181.635 76.7207C181.635 76.8489 181.658 76.9652 181.706 77.0696C181.758 77.1741 181.851 77.2761 181.983 77.3758C182.121 77.4708 182.311 77.5681 182.553 77.6678C182.795 77.7627 183.111 77.8671 183.5 77.9811C183.923 78.1045 184.279 78.235 184.568 78.3727C184.858 78.5056 185.093 78.6551 185.273 78.8213C185.454 78.9874 185.582 79.1749 185.658 79.3838C185.738 79.5927 185.779 79.83 185.779 80.0959ZM201.926 73.8227H197.974V76.8418H201.719V77.9027H197.974V82.0469H196.678V72.7404H201.926V73.8227ZM209.07 82.0469L209.042 81.0856C208.652 81.4701 208.256 81.7478 207.852 81.9187C207.454 82.0896 207.034 82.175 206.592 82.175C206.184 82.175 205.835 82.1228 205.545 82.0184C205.256 81.914 205.016 81.7715 204.826 81.5912C204.641 81.406 204.503 81.19 204.413 80.9432C204.328 80.6964 204.285 80.4281 204.285 80.1386C204.285 79.4218 204.551 78.8616 205.083 78.4581C205.619 78.0499 206.409 77.8458 207.454 77.8458H208.935V77.2192C208.935 76.7967 208.799 76.4596 208.529 76.2081C208.258 75.9517 207.845 75.8235 207.29 75.8235C206.886 75.8235 206.488 75.8686 206.094 75.9588C205.704 76.049 205.301 76.1772 204.883 76.3433V75.2254C205.04 75.1685 205.213 75.1139 205.403 75.0616C205.598 75.0047 205.802 74.9548 206.015 74.9121C206.229 74.8694 206.452 74.8362 206.685 74.8124C206.917 74.7839 207.152 74.7697 207.39 74.7697C207.822 74.7697 208.211 74.8172 208.557 74.9121C208.904 75.0071 209.196 75.1518 209.433 75.3465C209.675 75.5411 209.86 75.7856 209.989 76.0799C210.117 76.3742 210.181 76.7207 210.181 77.1195V82.0469H209.07ZM208.935 78.7928H207.361C207.053 78.7928 206.787 78.8237 206.564 78.8854C206.34 78.9471 206.158 79.0349 206.015 79.1488C205.873 79.2628 205.766 79.4004 205.695 79.5618C205.628 79.7185 205.595 79.8965 205.595 80.0959C205.595 80.2335 205.617 80.3664 205.659 80.4946C205.702 80.618 205.771 80.7296 205.866 80.8293C205.961 80.9242 206.084 81.0002 206.236 81.0571C206.388 81.1141 206.573 81.1426 206.791 81.1426C207.076 81.1426 207.401 81.0571 207.767 80.8862C208.137 80.7106 208.526 80.4353 208.935 80.0603V78.7928ZM218.258 80.0959C218.258 80.3474 218.215 80.5729 218.13 80.7723C218.044 80.9717 217.928 81.1497 217.781 81.3063C217.634 81.4582 217.463 81.5888 217.268 81.698C217.073 81.8072 216.865 81.8973 216.642 81.9685C216.423 82.0398 216.198 82.092 215.965 82.1252C215.732 82.1584 215.505 82.175 215.281 82.175C214.797 82.175 214.351 82.1537 213.943 82.111C213.539 82.0682 213.143 81.9994 212.754 81.9045V80.7652C213.171 80.8839 213.587 80.9741 214 81.0358C214.413 81.0975 214.823 81.1283 215.232 81.1283C215.825 81.1283 216.264 81.0476 216.549 80.8862C216.834 80.7248 216.976 80.4946 216.976 80.1955C216.976 80.0674 216.952 79.9534 216.905 79.8538C216.862 79.7493 216.782 79.652 216.663 79.5618C216.544 79.4669 216.359 79.3696 216.107 79.2699C215.861 79.1702 215.521 79.0563 215.089 78.9281C214.766 78.8331 214.467 78.7263 214.192 78.6077C213.921 78.4842 213.687 78.3395 213.487 78.1733C213.288 78.0072 213.131 77.8125 213.017 77.5894C212.903 77.3663 212.846 77.1029 212.846 76.7991C212.846 76.5997 212.891 76.3813 212.982 76.144C213.077 75.9066 213.236 75.6859 213.459 75.4818C213.682 75.2776 213.983 75.1091 214.363 74.9762C214.743 74.8385 215.217 74.7697 215.787 74.7697C216.067 74.7697 216.378 74.7863 216.72 74.8196C217.062 74.848 217.418 74.9002 217.788 74.9762V76.0799C217.399 75.9849 217.028 75.9161 216.677 75.8734C216.331 75.8259 216.029 75.8022 215.773 75.8022C215.464 75.8022 215.203 75.8259 214.99 75.8734C214.781 75.9209 214.61 75.9873 214.477 76.0728C214.349 76.1535 214.256 76.2508 214.199 76.3647C214.142 76.4739 214.114 76.5926 214.114 76.7207C214.114 76.8489 214.137 76.9652 214.185 77.0696C214.237 77.1741 214.33 77.2761 214.463 77.3758C214.6 77.4708 214.79 77.5681 215.032 77.6678C215.274 77.7627 215.59 77.8671 215.979 77.9811C216.402 78.1045 216.758 78.235 217.047 78.3727C217.337 78.5056 217.572 78.6551 217.752 78.8213C217.933 78.9874 218.061 79.1749 218.137 79.3838C218.218 79.5927 218.258 79.83 218.258 80.0959ZM226.477 81.9472C226.197 82.0184 225.908 82.0682 225.609 82.0967C225.31 82.1299 225.006 82.1466 224.697 82.1466C223.8 82.1466 223.131 81.9448 222.689 81.5413C222.248 81.1331 222.027 80.5088 222.027 79.6686V75.9375H220.026V74.8979H222.027V72.9326L223.266 72.6122V74.8979H226.477V75.9375H223.266V79.5689C223.266 80.0816 223.401 80.4661 223.672 80.7225C223.947 80.9741 224.351 81.0998 224.882 81.0998C225.11 81.0998 225.359 81.0832 225.63 81.05C225.901 81.012 226.183 80.9551 226.477 80.8791V81.9472ZM232.44 71.9856L232.247 79.3197H231.151L230.937 71.9856H232.44ZM231.692 80.2952C231.82 80.2952 231.941 80.3213 232.055 80.3736C232.169 80.421 232.266 80.4875 232.347 80.5729C232.432 80.6584 232.499 80.7604 232.546 80.8791C232.599 80.993 232.625 81.1141 232.625 81.2423C232.625 81.3704 232.599 81.4915 232.546 81.6054C232.499 81.7193 232.432 81.819 232.347 81.9045C232.266 81.9852 232.169 82.0492 232.055 82.0967C231.941 82.1489 231.82 82.175 231.692 82.175C231.559 82.175 231.436 82.1489 231.322 82.0967C231.208 82.0492 231.108 81.9852 231.023 81.9045C230.937 81.819 230.868 81.7193 230.816 81.6054C230.769 81.4915 230.745 81.3704 230.745 81.2423C230.745 81.1141 230.769 80.993 230.816 80.8791C230.868 80.7604 230.937 80.6584 231.023 80.5729C231.108 80.4875 231.208 80.421 231.322 80.3736C231.436 80.3213 231.559 80.2952 231.692 80.2952Z" fill="#B5B8C0"/>
<rect x="2.81554" y="62.8077" width="246.961" height="30.15" rx="15.075" stroke="#161D34" stroke-width="1.63107"/>
<defs>
<filter id="filter0_d_714_7146" x="0.230801" y="0" width="252.337" height="56.4961" filterUnits="userSpaceOnUse" color-interpolation-filters="sRGB">
<feFlood flood-opacity="0" result="BackgroundImageFix"/>
<feColorMatrix in="SourceAlpha" type="matrix" values="0 0 0 0 0 0 0 0 0 0 0 0 0 0 0 0 0 0 127 0" result="hardAlpha"/>
<feOffset dy="3.66926"/>
<feGaussianBlur stdDeviation="0.917314"/>
<feComposite in2="hardAlpha" operator="out"/>
<feColorMatrix type="matrix" values="0 0 0 0 0 0 0 0 0 0 0 0 0 0 0 0 0 0 0.25 0"/>
<feBlend mode="normal" in2="BackgroundImageFix" result="effect1_dropShadow_714_7146"/>
<feBlend mode="normal" in="SourceGraphic" in2="effect1_dropShadow_714_7146" result="shape"/>
</filter>
<linearGradient id="paint0_linear_714_7146" x1="95.3894" y1="50.9896" x2="114.017" y2="16.4417" gradientUnits="userSpaceOnUse">
<stop stop-color="#00DFFF"/>
<stop offset="1" stop-color="#096EEB"/>
</linearGradient>
</defs>
</svg>
