<svg width="64" height="64" fill="none" xmlns="http://www.w3.org/2000/svg">
  <circle cx="32" cy="32" r="32" fill="url(#a)" fill-opacity=".65"/>
  <path d="M8 32C8 18.745 18.745 8 32 8s24 10.745 24 24-10.745 24-24 24S8 45.255 8 32Z" fill="#F7DF1E"/>
  <path d="M18 18h30.158v30.158H18V18Z" fill="#F7DF1E"/>
  <path d="m25.93 43.202 2.308-1.396c.445.789.85 1.457 1.821 1.457.932 0 1.519-.364 1.519-1.781v-9.636h2.834v9.676c0 2.935-1.72 4.271-4.231 4.271-2.267 0-3.583-1.174-4.251-2.59m10.021-.304 2.308-1.336c.607.992 1.397 1.72 2.794 1.72 1.174 0 1.923-.587 1.923-1.397 0-.971-.77-1.315-2.065-1.882l-.709-.304c-2.044-.87-3.4-1.964-3.4-4.271 0-2.126 1.619-3.746 4.15-3.746 1.801 0 3.097.628 4.028 2.268l-2.207 1.417c-.486-.87-1.012-1.215-1.822-1.215-.83 0-1.356.527-1.356 1.215 0 .85.526 1.194 1.74 1.72l.71.304c2.408 1.033 3.765 2.085 3.765 4.454 0 2.55-2.004 3.948-4.697 3.948-2.631 0-4.332-1.255-5.162-2.895" fill="#000"/>
  <defs>
    <linearGradient id="a" x1="37.415" y1="64" x2="-29.439" y2="1.44" gradientUnits="userSpaceOnUse">
      <stop stop-color="#170C3E"/>
      <stop offset="1" stop-color="#7B0D49"/>
    </linearGradient>
  </defs>
</svg>
