 <svg
        width="104"
        height="15"
        viewBox="0 0 104 15"
        fill="none"
        xmlns="http://www.w3.org/2000/svg"
      >
        <path
          d="M42.5753 14.839H40.645L35.2336 7.65359V14.8082H32.9107V4.42201H35.6099L40.308 10.7859V4.42201H42.5721V14.839H42.5753Z"
          fill="#1B004E"
        />
        <path
          d="M43.498 4.41516L45.8045 4.41858V6.24662H43.498V4.41516ZM43.498 7.2291H45.8045V14.8082H43.498V7.2291Z"
          fill="#1B004E"
        />
        <path
          d="M53.0317 14.8117H50.7644C49.0729 14.8117 48.2877 13.9764 48.2877 12.3983V9.20776H46.413V7.23252H48.2877V4.42201H50.5681V7.23252H53.0284V9.20776H50.5681V11.563C50.5681 12.3811 50.8069 12.72 51.6576 12.72H53.0284V14.8117H53.0317Z"
          fill="#1B004E"
        />
        <path
          d="M56.0678 14.8117H53.8005V7.22909H56.0678V8.41355C56.2216 8.06095 56.7385 7.21198 58.2631 7.21198H59.8139V9.5535H57.828C56.5422 9.5535 56.0646 10.0499 56.0646 11.1042V14.8117H56.0678Z"
          fill="#1B004E"
        />
        <path
          d="M67.9343 11.0187C67.9343 13.3602 66.2429 14.9999 63.9625 14.9999C61.6821 14.9999 59.9906 13.3602 59.9906 11.0187C59.9906 8.67713 61.6821 7.03738 63.9625 7.03738C66.2429 7.04081 67.9343 8.67713 67.9343 11.0187ZM65.654 11.0187C65.654 9.91978 64.9833 9.10162 63.9625 9.10162C62.9548 9.10162 62.2547 9.91978 62.2547 11.0187C62.2547 12.1175 62.9548 12.9357 63.9625 12.9357C64.9833 12.9357 65.654 12.1175 65.654 11.0187Z"
          fill="#1B004E"
        />
        <path
          d="M68.8569 4.42201H74.6609C76.9119 4.42201 78.2271 5.59277 78.2271 7.7734C78.2271 9.94034 76.9119 11.1522 74.6609 11.1522H71.2191V14.8117H68.8569V4.42201ZM71.2191 6.58552V8.98524H74.4352C75.3447 8.98524 75.7929 8.53337 75.7929 7.78367C75.7929 6.9792 75.3447 6.5821 74.4352 6.5821H71.2191V6.58552Z"
          fill="#1B004E"
        />
        <path
          d="M83.8315 13.6991C83.7072 13.949 83.0202 14.9726 81.4955 14.9726C79.6765 14.9726 78.2075 13.48 78.2075 11.0221C78.2075 8.57788 79.6765 7.08533 81.5086 7.08533C82.9776 7.08533 83.6778 8.037 83.8021 8.2869V7.23253H86.0661V14.8117H83.8283V13.6991H83.8315ZM82.1793 9.10164C81.1716 9.10164 80.5009 9.9198 80.5009 11.0187C80.5009 12.1175 81.1716 12.9357 82.1793 12.9357C83.187 12.9357 83.8283 12.1175 83.8283 11.0187C83.8315 9.92322 83.187 9.10164 82.1793 9.10164Z"
          fill="#1B004E"
        />
        <path
          d="M92.0239 9.87871C91.9126 9.68701 91.5626 9.10163 90.6661 9.10163C89.7141 9.10163 89.1121 9.91979 89.1121 11.0187C89.1121 12.1175 89.7271 12.9494 90.6792 12.9494C91.5757 12.9494 91.9814 12.3503 92.0501 12.1723H94.2323C94.1636 13.2267 93.1821 14.9965 90.6236 14.9965C88.497 14.9965 86.835 13.415 86.835 11.0152C86.835 8.61552 88.4839 7.03397 90.5974 7.03397C93.1559 7.03397 94.121 8.77641 94.2323 9.87186H92.0239V9.87871Z"
          fill="#1B004E"
        />
        <path
          d="M97.2488 11.4295V14.8082H94.9815V4.0386H97.2488V10.2005L100.144 7.2291H102.997L99.5292 10.7277L103.18 14.8117H100.242L97.2488 11.4295Z"
          fill="#1B004E"
        />
        <path
          d="M14.3359 2.50095C20.9351 2.50095 26.2814 8.09801 26.2814 15H28.6717C28.6717 6.71461 22.2544 -6.10352e-05 14.3359 -6.10352e-05C6.41736 -6.10352e-05 0 6.71461 0 15H2.39027C2.39027 8.09801 7.73952 2.50095 14.3359 2.50095Z"
          fill="#00E5B9"
        />
        <path
          d="M12.1217 13.8733C11.6078 12.7225 12.266 11.3723 13.4583 11.1306L21.8646 9.11896L14.9883 14.565C14.0472 15.3624 12.6355 15.0241 12.1217 13.8733Z"
          fill="#00E5B9"
        />
      </svg>