<svg width="236" height="76" viewBox="0 0 236 76" fill="none" xmlns="http://www.w3.org/2000/svg">
<path d="M157.351 2.4856C158.951 0.496596 161.015 -0.298692 163.543 0.099739C166.684 0.595809 168.895 4.01397 169.436 6.92897C170.055 10.2574 169.271 14.5236 166.602 16.7889C165.631 17.611 164.95 18.2488 164.457 19.3236C163.928 20.4764 164.039 21.8583 164.081 23.1363C164.199 26.8403 164.166 30.6883 164.254 34.2388C164.38 39.3459 164.469 44.4539 164.523 49.5626C164.547 51.7382 162.123 51.1453 160.743 51.1241C160.665 51.1225 160.591 51.0996 160.524 51.0555C159.34 50.2902 159.886 49.4327 159.879 48.3957C159.836 40.5034 160.063 34.1797 160.056 27.0741C160.054 25.0402 160.264 22.378 160.115 20.3016C160.009 18.8441 159.073 17.6346 157.93 16.5338C154.29 13.0353 154.207 6.39746 157.351 2.4856ZM159.272 14.7645C162.224 17.4362 165.789 15.5984 167.206 12.4141C167.228 12.3662 167.23 12.3116 167.211 12.2622C167.192 12.2127 167.155 12.1723 167.107 12.1495C166.519 11.8778 166.247 12.1684 165.995 12.681C164.405 15.922 160.068 15.9527 158.624 12.5487C158.428 12.081 158.065 11.807 157.642 12.2464C157.615 12.2739 157.596 12.3085 157.588 12.3462C157.58 12.3838 157.583 12.4229 157.597 12.459C157.902 13.2637 158.461 14.0322 159.272 14.7645Z" fill="#113B44"/>
<path d="M227.344 24.3174C227.291 24.3174 227.24 24.3385 227.202 24.3762C227.165 24.4138 227.144 24.4649 227.144 24.5182C227.137 29.3781 227.138 34.253 227.146 39.1428C227.147 39.8263 227.499 40.105 228.202 39.979C228.792 39.8735 229.382 39.8302 229.971 39.8491C230.053 39.8522 230.094 39.8948 230.094 39.9767V40.6097C230.094 40.8066 229.996 40.8971 229.799 40.8814C228.15 40.7444 226.587 40.6759 225.11 40.6759C224.061 40.6759 222.655 40.8294 221.439 40.8176C221.37 40.817 221.303 40.8002 221.242 40.7686C221.181 40.737 221.129 40.6915 221.089 40.6357C221.049 40.58 221.023 40.5157 221.013 40.4479C221.003 40.3802 221.008 40.311 221.03 40.2459C221.128 39.9515 221.354 39.8436 221.708 39.9223C222.119 40.0121 222.751 39.9885 223.603 39.8515C223.678 39.8389 223.716 39.7948 223.716 39.7192L223.702 24.6056C223.702 24.5448 223.678 24.4865 223.635 24.4436C223.592 24.4006 223.533 24.3764 223.473 24.3764H221.316C221.201 24.3764 221.136 24.3197 221.12 24.2064L221.047 23.715C221.031 23.6048 221.079 23.5497 221.191 23.5497H223.482C223.58 23.5497 223.632 23.5008 223.64 23.4032C223.766 21.7969 223.586 20.1669 223.822 18.596C224.635 13.1487 230.985 11.3629 235.064 14.5661C235.127 14.6149 235.17 14.6771 235.192 14.7527C235.468 15.6787 235.688 17.4976 234.929 18.2559C234.155 19.0331 232.435 19.1276 231.471 18.7401C231.44 18.7281 231.414 18.7072 231.395 18.6801C231.376 18.653 231.365 18.6209 231.365 18.5878C231.364 18.5547 231.373 18.5221 231.391 18.4942C231.408 18.4662 231.434 18.4441 231.464 18.4307C235.041 16.8244 232.567 12.7542 229.433 13.9117C227.413 14.6582 227.167 16.7063 227.148 18.7354C227.136 20.285 227.135 21.8355 227.146 23.3867C227.146 23.4109 227.151 23.4348 227.161 23.457C227.17 23.4792 227.184 23.4994 227.202 23.5163C227.219 23.5332 227.239 23.5465 227.262 23.5554C227.284 23.5644 227.308 23.5689 227.333 23.5686L231.157 23.4953C231.196 23.4944 231.235 23.5013 231.271 23.5157C231.307 23.53 231.34 23.5516 231.368 23.579C231.396 23.6064 231.417 23.639 231.432 23.675C231.446 23.711 231.453 23.7495 231.452 23.7882L231.448 24.1355C231.446 24.2568 231.385 24.3174 231.263 24.3174H227.344ZM148.283 25.567L148.226 14.3795C148.226 14.3467 148.219 14.3142 148.206 14.2842C148.193 14.2541 148.174 14.227 148.15 14.2046C148.126 14.1822 148.097 14.165 148.066 14.1541C148.035 14.1431 148.001 14.1386 147.968 14.1409C147.387 14.1802 146.772 14.2243 146.121 14.2732C145.879 14.2921 145.695 14.1968 145.571 13.9873C145.537 13.9314 145.519 13.8675 145.518 13.8022C145.518 13.7368 145.534 13.6726 145.567 13.6159C145.599 13.5593 145.646 13.5124 145.703 13.4801C145.76 13.4478 145.824 13.4313 145.89 13.4322L151.561 13.5196C151.68 13.5212 151.739 13.581 151.739 13.6991L151.753 39.4026C151.753 39.5318 151.802 39.6561 151.891 39.7494C151.98 39.8428 152.101 39.8979 152.23 39.9034C152.828 39.9318 154.226 39.5184 154.354 40.3711C154.362 40.4289 154.357 40.4878 154.341 40.5437C154.324 40.5996 154.295 40.6511 154.256 40.6945C154.217 40.738 154.169 40.7724 154.115 40.7953C154.061 40.8182 154.003 40.829 153.945 40.8271L148.415 40.6286C148.327 40.6255 148.284 40.5798 148.287 40.4916L148.375 38.1388C148.375 38.1147 148.369 38.091 148.355 38.0708C148.342 38.0506 148.323 38.035 148.301 38.026C148.278 38.017 148.254 38.015 148.23 38.0204C148.207 38.0258 148.185 38.0383 148.169 38.0562C146.931 39.4333 145.753 40.7255 143.799 40.9003C141.451 41.1105 139.146 40.5743 137.61 38.7743C135.021 35.7388 135.167 29.0088 137.61 25.9261C139.181 23.9418 141.598 23.037 144.227 23.2733C146.135 23.4434 146.934 24.3812 148.11 25.6355C148.124 25.6504 148.142 25.6608 148.161 25.6653C148.181 25.6698 148.201 25.6682 148.22 25.6608C148.239 25.6534 148.255 25.6404 148.266 25.6236C148.277 25.6069 148.283 25.5871 148.283 25.567ZM140.79 38.864C141.687 40.2294 143.813 40.2672 145.134 39.6365C148.852 37.8601 148.363 32.6348 148.188 29.3112C148.113 27.8489 147.789 26.7103 146.884 25.6757C145.479 24.067 143.199 23.5497 141.435 24.9457C140.263 25.8741 139.866 27.3977 139.675 28.8623C139.28 31.9096 139.056 36.2278 140.79 38.864ZM187.04 14.1054L184.786 14.2921C184.597 14.3078 184.503 14.2204 184.503 14.0298V13.5999C184.503 13.5039 184.552 13.4558 184.649 13.4558L190.635 13.4747C190.69 13.4747 190.718 13.5031 190.718 13.5598L190.697 26.4316C190.696 26.4741 190.71 26.5157 190.736 26.5494C190.762 26.5832 190.798 26.6072 190.839 26.6176C190.881 26.628 190.924 26.6241 190.963 26.6066C191.002 26.5892 191.034 26.5591 191.053 26.5213C192.662 23.5378 196.189 22.5292 199.302 23.715C201.166 24.4237 202.17 26.0206 202.194 27.967C202.238 31.8332 202.235 35.6742 202.184 39.49C202.184 39.5516 202.195 39.6127 202.219 39.6696C202.242 39.7266 202.276 39.7782 202.32 39.8214C202.364 39.8646 202.416 39.8986 202.473 39.9212C202.53 39.9438 202.591 39.9546 202.652 39.953L204.591 39.9011C204.681 39.8995 204.74 39.9412 204.768 40.0263C204.872 40.3475 204.794 40.6152 204.532 40.8294C204.476 40.8734 204.406 40.8937 204.336 40.8861C201.845 40.6278 199.351 40.6097 196.855 40.8318C196.777 40.8389 196.699 40.8235 196.63 40.7875C196.561 40.7514 196.504 40.6963 196.465 40.6286C196.168 40.1066 196.494 39.8916 196.975 39.9152C197.519 39.9436 198.056 39.9105 198.586 39.816C198.623 39.8091 198.657 39.7916 198.684 39.7655C198.71 39.7395 198.729 39.7062 198.738 39.6696C198.865 39.1144 198.74 38.5073 198.74 38.1081C198.734 34.5742 198.734 31.0403 198.74 27.5064C198.742 26.1434 198.39 24.5465 196.794 24.2772C194.06 23.8166 191.901 26.0087 191.034 28.3521C190.833 28.8985 190.728 29.6009 190.72 30.4592C190.692 33.5065 190.69 36.5703 190.715 39.6507C190.716 39.6976 190.726 39.744 190.745 39.7869C190.765 39.8297 190.793 39.8681 190.827 39.8996C190.862 39.9311 190.903 39.9551 190.948 39.97C190.992 39.9848 191.04 39.9903 191.086 39.9861L192.721 39.8467C192.763 39.8433 192.806 39.849 192.846 39.8634C192.886 39.8779 192.923 39.9008 192.953 39.9306C192.984 39.9604 193.007 39.9963 193.023 40.0361C193.038 40.0758 193.045 40.1184 193.042 40.1609L193.023 40.4963C193.009 40.7389 192.882 40.8499 192.641 40.8294C190.038 40.6137 187.433 40.6247 184.826 40.8625C184.794 40.8653 184.762 40.8595 184.733 40.8458C184.704 40.8321 184.679 40.811 184.661 40.7845C184.508 40.5546 184.47 40.3081 184.545 40.0452C184.571 39.9538 184.63 39.9081 184.725 39.9081H186.752C187.1 39.9081 187.274 39.7341 187.274 39.3861C187.278 31.5387 187.278 23.7599 187.274 16.0496C187.274 15.4338 187.237 14.8196 187.163 14.207C187.155 14.1346 187.114 14.1007 187.04 14.1054ZM42.5962 26.8261C42.6003 26.8368 42.6073 26.8461 42.6164 26.8531C42.6256 26.86 42.6365 26.8643 42.6481 26.8655C42.6597 26.8667 42.6716 26.8648 42.6824 26.8599C42.6932 26.8551 42.7026 26.8475 42.7096 26.8379C43.9639 25.0544 45.5135 23.2851 48.0057 23.2567L49.2482 23.2426C51.3506 23.2213 53.7318 24.2772 53.9444 26.6607C53.9468 26.6933 53.9588 26.7243 53.9788 26.75C53.9988 26.7757 54.026 26.795 54.0571 26.8055C54.0882 26.816 54.1217 26.8173 54.1537 26.8092C54.1857 26.8011 54.2147 26.784 54.2373 26.7599C54.4711 26.5072 54.7617 26.2757 54.953 25.9733C56.8192 23.0205 60.587 22.574 63.4713 23.8567C65.3091 24.6741 65.8595 26.7245 65.8666 28.7419C65.8807 31.9907 65.8689 35.2404 65.8311 38.4908C65.8248 38.9207 65.8681 39.3058 65.9611 39.6459C65.983 39.7285 66.0327 39.8012 66.1018 39.8519C66.171 39.9025 66.2555 39.9282 66.3414 39.9247L68.1839 39.8373C68.2261 39.8351 68.2675 39.8489 68.3003 39.876C68.333 39.903 68.3547 39.9415 68.3611 39.9837L68.465 40.6735C68.4824 40.7853 68.4343 40.842 68.3209 40.8436C67.7146 40.8499 66.7359 40.7948 65.3847 40.6782C64.4398 40.5979 62.9035 40.6523 60.7759 40.8412C60.4429 40.8696 60.1429 40.9428 59.9539 40.6192C59.9119 40.5475 59.8896 40.466 59.8892 40.383C59.8888 40.3 59.9103 40.2183 59.9515 40.1462C59.9927 40.0741 60.0521 40.0141 60.1239 39.9723C60.1957 39.9305 60.2772 39.9084 60.3602 39.9081H62.1886C62.2531 39.9081 62.315 39.8825 62.3606 39.8369C62.4062 39.7913 62.4319 39.7294 62.4319 39.6648C62.4366 35.8506 62.4382 32.0143 62.4366 28.156C62.4342 25.7087 61.8153 23.6229 58.8365 24.2512C56.8428 24.6717 55.2625 26.6135 54.6696 28.4442C54.4302 29.1891 54.3058 30.4789 54.2963 32.3136C54.2853 34.5955 54.2711 36.9687 54.2538 39.4333C54.2531 39.4988 54.2658 39.5638 54.291 39.6243C54.3163 39.6847 54.3536 39.7394 54.4007 39.7849C54.4478 39.8305 54.5036 39.8659 54.5649 39.8892C54.6262 39.9124 54.6915 39.9228 54.757 39.92L56.7696 39.8349C56.8672 39.8302 56.9105 39.8766 56.8995 39.9743L56.8216 40.6948C56.8171 40.7347 56.7984 40.7717 56.7689 40.799C56.7394 40.8263 56.7011 40.8421 56.6609 40.8436C56.1019 40.8641 55.7089 40.8617 55.4822 40.8365C53.3877 40.6082 51.2963 40.62 49.2081 40.8719C49.0837 40.8877 48.9199 40.8641 48.7167 40.8011C48.6301 40.7743 48.5766 40.7168 48.5561 40.6286L48.49 40.3428C48.4222 40.0436 48.5419 39.8924 48.849 39.8893L50.7223 39.8656C50.8246 39.8656 50.875 39.8137 50.8734 39.7097C50.8073 35.8435 50.7837 31.9805 50.8026 28.1206C50.8073 26.9678 51.0317 26.0914 50.2947 25.0898C49.2459 23.6678 46.8269 24.1568 45.6151 25.0473C43.5576 26.5639 42.856 28.4915 42.7993 31.097C42.7379 33.96 42.7403 36.8057 42.8064 39.6341C42.8075 39.6849 42.819 39.7348 42.8403 39.7809C42.8615 39.8269 42.8921 39.8681 42.93 39.9018C42.9679 39.9355 43.0124 39.961 43.0606 39.9768C43.1089 39.9925 43.1599 39.9981 43.2104 39.9932L44.7954 39.842C44.832 39.8386 44.8689 39.843 44.9036 39.8549C44.9383 39.8668 44.97 39.8859 44.9966 39.911C45.0233 39.9361 45.0442 39.9665 45.0579 40.0002C45.0717 40.0339 45.0781 40.0702 45.0765 40.1066L45.0576 40.6712C45.0529 40.783 44.9954 40.8412 44.8852 40.846C44.4568 40.8633 44.1647 40.8633 44.0088 40.846C41.8828 40.6097 39.7583 40.6294 37.6355 40.905C37.2607 40.9538 37.0055 40.8467 36.8701 40.5837C36.8379 40.5222 36.8217 40.4534 36.823 40.3839C36.8244 40.3144 36.8432 40.2464 36.8778 40.1861C36.9124 40.1258 36.9617 40.0753 37.021 40.0391C37.0804 40.0029 37.1479 39.9822 37.2174 39.979L39.0008 39.8916C39.0944 39.8874 39.1828 39.8472 39.2475 39.7794C39.3121 39.7116 39.3482 39.6215 39.3481 39.5278L39.3434 24.6386C39.3434 24.6019 39.336 24.5654 39.3215 24.5316C39.307 24.4977 39.2858 24.467 39.2591 24.4415C39.2325 24.4159 39.2009 24.3959 39.1662 24.3827C39.1316 24.3695 39.0946 24.3634 39.0575 24.3646L36.4591 24.4497C36.3725 24.4528 36.3292 24.4119 36.3292 24.3268L36.3339 23.3843C36.3342 23.3613 36.3391 23.3387 36.3484 23.3177C36.3576 23.2967 36.3711 23.2778 36.3878 23.2621C36.4046 23.2464 36.4244 23.2343 36.446 23.2265C36.4675 23.2187 36.4905 23.2153 36.5134 23.2166L42.6033 23.5378C42.6662 23.541 42.6985 23.5741 42.7001 23.6371C42.7096 24.3694 42.3741 26.2969 42.5962 26.8261ZM110.133 26.5426C110.13 26.591 110.144 26.6389 110.173 26.6777C110.202 26.7166 110.244 26.7439 110.291 26.755C110.338 26.766 110.388 26.76 110.431 26.738C110.474 26.716 110.508 26.6794 110.527 26.6347C111.316 24.8276 112.901 23.1504 114.985 23.2048C120.326 23.3465 119.633 31.0214 114.857 29.793C114.815 29.7824 114.78 29.756 114.757 29.7194C114.735 29.6828 114.727 29.6389 114.737 29.597C114.933 28.7371 116.017 28.5623 115.984 27.8111C115.939 26.8284 116.017 25.5765 115.313 24.8205C114.42 23.8615 113.239 24.4166 112.507 25.2528C110.886 27.0977 110.27 28.6899 110.277 31.2057C110.285 33.9222 110.261 36.6837 110.206 39.49C110.199 39.7845 110.344 39.9302 110.64 39.927L113.09 39.9058C113.119 39.9055 113.148 39.9115 113.174 39.9233C113.201 39.9351 113.224 39.9524 113.244 39.9742C113.263 39.9959 113.277 40.0214 113.286 40.0492C113.294 40.0769 113.297 40.1061 113.293 40.1349L113.222 40.6948C113.22 40.7144 113.213 40.7333 113.202 40.7502C113.192 40.7671 113.178 40.7815 113.162 40.7927C113.146 40.8038 113.127 40.8114 113.108 40.8149C113.089 40.8183 113.069 40.8177 113.05 40.8129C112.914 40.7782 112.786 40.7814 112.665 40.8223C112.591 40.8475 112.515 40.857 112.438 40.8507C109.808 40.6223 107.18 40.6397 104.553 40.9026C104.508 40.9071 104.462 40.9012 104.419 40.8854C104.377 40.8696 104.338 40.8443 104.307 40.8115C104.276 40.7786 104.252 40.7391 104.239 40.6959C104.225 40.6527 104.222 40.6071 104.229 40.5625L104.31 40.0546C104.316 40.0137 104.337 39.9765 104.369 39.9497C104.401 39.9229 104.441 39.9082 104.482 39.9081H106.372C106.481 39.9081 106.585 39.8646 106.662 39.7871C106.74 39.7095 106.783 39.6044 106.783 39.4948V24.6623C106.783 24.4182 106.662 24.2993 106.419 24.3056L104.499 24.3481C104.465 24.3487 104.432 24.3427 104.401 24.3304C104.37 24.318 104.341 24.2997 104.318 24.2763C104.294 24.253 104.275 24.2251 104.262 24.1944C104.25 24.1638 104.243 24.1309 104.243 24.0977L104.251 23.5189C104.251 23.4834 104.264 23.4489 104.287 23.4217C104.31 23.3945 104.343 23.3762 104.378 23.3701C104.843 23.2977 105.213 23.2749 105.488 23.3016C106.994 23.4497 108.411 23.5 109.74 23.4528C110.104 23.4386 110.277 23.6134 110.258 23.9772L110.133 26.5426ZM5.99095 26.2166C6.75632 25.1229 7.97759 23.8709 9.33115 23.441C10.2217 23.1599 12.0737 23.1268 13.0351 23.3796C15.7738 24.1008 17.4612 25.8883 18.0974 28.7419C19.4463 34.7845 16.9399 41.8475 9.38312 40.8176C8.18783 40.6546 6.89096 39.4381 6.09725 38.5971C5.96339 38.4554 5.89646 38.4821 5.89646 38.6774L5.9626 48.1925C5.96323 48.2667 5.99312 48.3375 6.04577 48.3898C6.09842 48.442 6.16957 48.4713 6.24371 48.4713H8.09098C8.20122 48.4713 8.25633 48.5264 8.25633 48.6366L8.25161 49.1681C8.25161 49.2799 8.19492 49.3327 8.08153 49.3264C5.51457 49.1878 2.94839 49.2075 0.383001 49.3854C0.279063 49.3917 0.224731 49.3437 0.220006 49.2413L0.191661 48.6295C0.190392 48.6043 0.194185 48.5791 0.202817 48.5554C0.211448 48.5317 0.224744 48.5099 0.241918 48.4914C0.259092 48.4729 0.279796 48.4581 0.302811 48.4477C0.325825 48.4373 0.350682 48.4317 0.375915 48.4311L2.39327 48.3697C2.4363 48.3685 2.47715 48.3505 2.50715 48.3196C2.53714 48.2887 2.55392 48.2474 2.5539 48.2043L2.54445 24.4851C2.54445 24.4596 2.5394 24.4343 2.52961 24.4108C2.51981 24.3872 2.50547 24.3659 2.48742 24.3481C2.46937 24.3303 2.44797 24.3163 2.4245 24.3069C2.40103 24.2976 2.37595 24.2931 2.35074 24.2938L0.194022 24.3339C0.105832 24.3355 0.0585872 24.2922 0.0522879 24.204L0.000318378 23.4811C-0.00101055 23.461 0.00183064 23.4409 0.00865736 23.4219C0.0154841 23.403 0.0261448 23.3857 0.0399497 23.3713C0.0537546 23.3568 0.0703958 23.3454 0.0887977 23.3379C0.1072 23.3304 0.126953 23.3269 0.146778 23.3276L5.57284 23.526C5.61334 23.5274 5.65313 23.5372 5.68972 23.5547C5.72631 23.5722 5.75891 23.5972 5.7855 23.628C5.81209 23.6588 5.8321 23.6948 5.84428 23.7337C5.85646 23.7727 5.86056 23.8138 5.8563 23.8544L5.62008 26.0773C5.61548 26.1226 5.62605 26.1684 5.65011 26.2073C5.67417 26.2462 5.71035 26.276 5.75292 26.292C5.79549 26.308 5.84202 26.3092 5.88513 26.2956C5.92825 26.2819 5.96549 26.2542 5.99095 26.2166ZM6.30277 36.9624C7.84767 41.0066 13.3517 41.309 14.2517 36.7215C14.7926 33.9648 15.0572 29.6182 14.1525 26.767C13.38 24.3339 10.9186 23.4339 8.80438 24.7213C5.22086 26.904 5.97205 30.8088 5.99095 34.7396C5.9941 35.6845 6.09804 36.4254 6.30277 36.9624Z" fill="#113B44"/>
<path d="M30.1496 30.9198C30.2221 29.4867 30.2488 28.0529 30.2299 26.6182C30.2063 24.5229 28.1346 23.7386 26.337 23.9654C23.5425 24.3197 22.4794 27.6883 25.5007 29.0206C25.5294 29.0329 25.553 29.0545 25.5679 29.0819C25.5828 29.1093 25.5881 29.1409 25.5829 29.1716C25.5778 29.2024 25.5624 29.2305 25.5394 29.2515C25.5164 29.2725 25.487 29.2852 25.4559 29.2875C24.3078 29.3962 22.9165 29.4671 21.9905 28.7938C20.592 27.7757 20.7243 25.7914 22.0046 24.6906C23.807 23.1433 26.9724 23.0276 29.1291 23.3087C29.5795 23.3685 30.2607 23.6205 31.1725 24.0646C32.7867 24.852 33.6032 26.1615 33.6221 27.993C33.6583 31.645 33.6922 35.2963 33.7237 38.9467C33.73 39.6129 34.0442 39.9121 34.6662 39.8444C35.7269 39.7262 36.1993 38.3869 36.4072 37.5294C36.4252 37.4556 36.4691 37.3905 36.5307 37.3459C36.5924 37.3013 36.6678 37.2801 36.7434 37.2861C36.819 37.292 36.8898 37.3249 36.943 37.3786C36.9961 37.4323 37.0281 37.5034 37.0332 37.579C37.2552 40.4727 34.867 41.4601 32.4339 40.6688C31.4914 40.364 30.9315 39.1995 30.5158 38.401C30.4607 38.2939 30.3969 38.2884 30.3244 38.3845C28.5764 40.6593 26.5023 41.3467 23.8023 40.7633C21.707 40.3121 20.1786 39.0412 20.103 36.8207C19.94 32.1104 26.5945 30.9742 30.0055 31.0521C30.0969 31.0537 30.1449 31.0096 30.1496 30.9198ZM24.1425 38.642C25.1889 41.8286 28.8528 38.9585 29.8496 37.553C30.426 36.7404 30.1992 34.2766 30.1827 32.1128C30.1811 32.0324 30.1402 31.9891 30.0599 31.9828C28.4157 31.8474 26.8842 32.186 25.4653 32.9986C23.6535 34.0333 23.5826 36.9317 24.1425 38.642ZM70.6029 24.3079L68.2927 24.3386C68.1777 24.3402 68.1186 24.2835 68.1155 24.1686L68.099 23.5048C68.0958 23.3882 68.1564 23.3315 68.2809 23.3347L73.9668 23.4552C74.0329 23.4567 74.0683 23.4906 74.0731 23.5567C74.1439 24.3363 74.1235 25.1008 74.0116 25.8505C73.9801 26.0583 74.0109 26.2166 74.1038 26.3253C74.1249 26.3498 74.1517 26.3687 74.1819 26.3804C74.2121 26.3922 74.2446 26.3964 74.2768 26.3927C74.3089 26.3889 74.3397 26.3774 74.3663 26.3591C74.393 26.3407 74.4148 26.3162 74.4298 26.2875C75.151 24.9001 76.2337 23.9575 77.6778 23.4599C78.5471 23.1599 80.3779 23.1268 81.3133 23.363C83.9543 24.0292 85.6126 25.7253 86.2882 28.4513C87.7622 34.4018 85.537 41.7294 77.8928 40.8696C76.5487 40.7184 75.2518 39.5869 74.3447 38.6184C74.3361 38.6088 74.3248 38.6021 74.3123 38.5992C74.2998 38.5962 74.2867 38.597 74.2747 38.6016C74.2627 38.6062 74.2523 38.6144 74.245 38.6249C74.2377 38.6355 74.2338 38.648 74.2337 38.6609L74.2738 48.1523C74.2745 48.2163 74.3 48.2775 74.345 48.3229C74.3899 48.3683 74.4509 48.3944 74.5148 48.3956L76.4069 48.4216C76.4445 48.4216 76.4806 48.4368 76.5072 48.4638C76.5337 48.4909 76.5487 48.5275 76.5487 48.5657V49.2342C76.5487 49.3398 76.4951 49.3886 76.3881 49.3807C73.8321 49.1807 71.2754 49.1831 68.7179 49.3878C68.6791 49.3905 68.6409 49.3782 68.6113 49.3534C68.5817 49.3287 68.5632 49.2936 68.5596 49.2555L68.51 48.8114C68.5044 48.7571 68.5102 48.7023 68.5269 48.6503C68.5436 48.5984 68.571 48.5504 68.6071 48.5096C68.6433 48.4687 68.6876 48.4358 68.7372 48.413C68.7867 48.3901 68.8405 48.3778 68.895 48.3768L70.6218 48.346C70.6763 48.3454 70.7284 48.3234 70.7665 48.2849C70.8046 48.2463 70.8256 48.1944 70.825 48.1405L70.7966 24.4993C70.7966 24.4739 70.7916 24.4489 70.7818 24.4255C70.7721 24.4021 70.7578 24.3809 70.7398 24.3631C70.7217 24.3453 70.7004 24.3313 70.6769 24.3218C70.6534 24.3123 70.6283 24.3076 70.6029 24.3079ZM74.5668 36.7758C75.6865 40.1255 80.4771 41.6845 82.1448 37.8294C83.1724 35.453 83.8881 25.6166 80.7039 24.478C78.9322 23.8434 77.3999 24.1749 76.1069 25.4725C73.74 27.8513 74.314 30.9175 74.2998 33.9411C74.2951 35.2844 74.3841 36.2293 74.5668 36.7758ZM92.4229 31.7608C92.4018 31.7595 92.3806 31.7626 92.3607 31.77C92.3408 31.7774 92.3227 31.7889 92.3074 31.8038C92.292 31.8186 92.2799 31.8365 92.2718 31.8564C92.2636 31.8762 92.2596 31.8976 92.2599 31.9191C92.3001 35.3396 92.3639 40.5696 97.3718 40.0853C99.849 39.8459 101.462 38.4097 102.21 35.7766C102.228 35.7084 102.27 35.6491 102.328 35.61C102.387 35.5708 102.458 35.5545 102.528 35.5641C102.598 35.5737 102.661 35.6086 102.707 35.6621C102.753 35.7156 102.778 35.7841 102.777 35.8545C102.791 38.3349 100.57 40.2223 98.3214 40.7302C97.4214 40.9333 96.0111 40.9782 95.0403 40.8648C90.0725 40.2861 88.6528 36.1427 88.6481 31.8104C88.6457 28.9237 89.5811 25.7276 92.2434 24.2134C93.8639 23.2898 95.5245 23.1433 97.2183 23.2544C102.018 23.5709 103.341 27.2064 103.173 31.4183C103.164 31.6403 103.047 31.7529 102.824 31.7561C99.3419 31.8009 95.886 31.9616 92.4229 31.7608ZM92.6709 30.9907C94.7686 30.9529 97.0671 30.771 99.1411 31.0001C99.412 31.0285 99.5624 30.8931 99.5923 30.5938C99.7458 29.0253 99.7411 26.5591 98.8364 25.2245C97.8938 23.8331 95.8174 23.6229 94.5135 24.5394C92.7347 25.7914 92.3733 28.7584 92.4347 30.7639C92.436 30.8249 92.4615 30.883 92.5057 30.9254C92.5499 30.9679 92.6093 30.9913 92.6709 30.9907ZM126.512 40.8672C119.289 40.8247 118.45 32.597 120.234 27.5324C121.131 24.9882 123.779 23.2189 126.465 23.2591C127.464 23.2733 128.57 23.2473 129.486 23.5071C133.36 24.6103 133.994 27.6599 133.892 31.3616C133.886 31.5852 133.771 31.7017 133.547 31.7112C130.155 31.8718 126.762 31.9057 123.368 31.8128C123.267 31.8096 123.212 31.8584 123.203 31.9592C123.049 33.6821 123.189 35.4018 123.626 37.1183C124.157 39.2066 125.56 40.1444 127.717 40.1042C130.459 40.0554 132.178 38.6207 132.874 35.8002C132.892 35.7272 132.936 35.6632 132.998 35.6201C133.06 35.577 133.135 35.5577 133.21 35.5658C133.285 35.5738 133.354 35.6087 133.405 35.664C133.456 35.7192 133.486 35.7911 133.488 35.8664C133.566 38.7105 130.856 40.631 128.26 40.8105C127.684 40.8515 127.101 40.8704 126.512 40.8672ZM123.415 30.9647L130.044 30.9434C130.13 30.9435 130.213 30.9103 130.275 30.8508C130.337 30.7913 130.374 30.7102 130.377 30.6245C130.45 28.5907 130.717 24.615 127.875 24.0741C123.76 23.2922 123.404 27.9458 123.134 30.6576C123.13 30.6965 123.135 30.7358 123.147 30.773C123.159 30.8101 123.179 30.8443 123.206 30.8732C123.232 30.9022 123.265 30.9253 123.301 30.9411C123.337 30.9568 123.376 30.9649 123.415 30.9647ZM175.718 25.0402C173.901 26.7741 174.041 32.0301 174.215 34.423C174.404 37.0569 174.912 40.116 178.302 40.1916C180.14 40.231 181.55 39.4388 182.533 37.8152C182.887 37.2294 182.965 36.4758 183.1 35.7931C183.115 35.7175 183.161 35.6742 183.237 35.6632C183.671 35.6018 183.927 35.8191 183.889 36.275C183.704 38.6018 181.935 40.3168 179.778 40.7916C175.283 41.7814 171.534 39.49 170.724 34.8482C170.122 31.4041 170.599 26.956 173.578 24.7591C176.237 22.7985 179.731 22.7252 182.559 24.5465C183.903 25.4111 184.538 27.1213 183.65 28.5174C182.911 29.6844 181.089 29.7245 179.887 29.6749C179.854 29.6741 179.822 29.6636 179.795 29.6445C179.768 29.6255 179.748 29.5988 179.736 29.5678C179.724 29.5368 179.722 29.5029 179.729 29.4702C179.736 29.4376 179.752 29.4078 179.776 29.3844C180.137 29.0348 180.484 28.7119 180.818 28.4159C182.162 27.23 181.288 25.2127 180.01 24.4875C178.72 23.7575 176.79 24.0174 175.718 25.0402ZM208.288 39.5089C205.317 37.2695 205.182 32.2167 205.921 28.8718C206.581 25.8985 208.381 24.0882 211.321 23.441C213.773 22.9 216.984 23.4504 218.663 25.482C219.967 27.0623 220.062 29.6348 220.062 31.5529C220.062 31.6364 220.021 31.6797 219.939 31.6828C216.414 31.8639 212.889 31.9088 209.363 31.8175C209.284 31.8159 209.233 31.8521 209.21 31.9261C209.118 32.2033 209.087 32.4821 209.115 32.7624C209.429 35.8569 209.384 40.5625 213.967 40.1892C216.717 39.964 218.369 38.553 218.925 35.9561C218.943 35.8661 218.994 35.7861 219.068 35.7319C219.142 35.6777 219.234 35.6532 219.325 35.6633C219.416 35.6734 219.5 35.7173 219.56 35.7864C219.621 35.8555 219.653 35.9447 219.651 36.0364C219.62 38.342 217.456 40.1703 215.389 40.7231C212.682 41.4444 210.315 41.0396 208.288 39.5089ZM209.427 30.934L215.954 30.9576C216.096 30.9584 216.234 30.9061 216.34 30.8109C216.446 30.7157 216.513 30.5844 216.528 30.4427C216.776 28.0284 216.511 23.8851 212.973 24.1355C209.743 24.3646 209.269 28.3639 209.299 30.8064C209.3 30.8405 209.314 30.8729 209.337 30.8968C209.361 30.9206 209.393 30.934 209.427 30.934Z" fill="#113B44"/>
<path d="M156.588 75.2897C155.785 74.3472 155.641 72.5235 155.631 71.3094C155.608 67.8062 155.395 65.3683 155.967 63.1313C156.39 61.473 157.419 60.7415 159.052 60.9368C160.84 61.1517 161.322 62.5573 161.478 64.1707C161.553 64.9502 161.809 66.0723 161.52 66.8046C161.486 66.8928 161.421 66.9376 161.327 66.9392L160.143 66.9628C160.079 66.9642 160.015 66.9518 159.955 66.9266C159.896 66.9014 159.843 66.8638 159.799 66.8165C159.755 66.7692 159.722 66.7131 159.702 66.652C159.681 66.5909 159.674 66.5262 159.68 66.462C159.787 65.3234 159.7 64.2077 159.418 63.1148C159.382 62.9726 159.291 62.8505 159.165 62.7749C159.039 62.6993 158.888 62.6763 158.745 62.7108C157.741 62.9565 157.59 63.8801 157.582 64.8628C157.567 67.2518 157.562 69.6424 157.568 72.0346C157.57 72.6834 157.674 73.3149 157.88 73.9291C157.905 74.0024 157.954 74.0657 158.02 74.1086C160.046 75.4149 159.701 70.7566 159.744 69.9629C159.746 69.9188 159.763 69.8768 159.793 69.844C159.822 69.8113 159.861 69.7899 159.905 69.7833C160.434 69.6983 161.56 69.4857 161.627 70.3645C161.756 72.092 161.53 73.6291 160.949 74.9756C160.417 76.2016 157.375 76.2086 156.588 75.2897ZM164.823 75.5921C163.07 74.8976 163.606 66.8873 163.661 64.6526C163.72 62.2053 164.82 60.462 167.558 61.0384C169.023 61.3454 169.524 63.2022 169.538 64.4612C169.569 66.866 169.587 69.2723 169.592 71.6802C169.597 72.8212 169.297 75.5165 167.917 75.826C166.851 76.0653 165.82 75.9874 164.823 75.5921ZM167.672 63.8059C167.672 63.6685 167.645 63.5324 167.593 63.4052C167.541 63.2781 167.464 63.1624 167.368 63.0649C167.271 62.9674 167.156 62.89 167.029 62.8369C166.902 62.7839 166.766 62.7564 166.629 62.7559L166.577 62.7557C166.439 62.7552 166.303 62.7818 166.176 62.8339C166.049 62.886 165.933 62.9627 165.836 63.0595C165.738 63.1564 165.661 63.2714 165.608 63.3982C165.555 63.525 165.527 63.661 165.526 63.7984L165.494 73.2001C165.493 73.3375 165.52 73.4737 165.572 73.6008C165.624 73.728 165.701 73.8436 165.798 73.9412C165.895 74.0387 166.01 74.1162 166.136 74.1692C166.263 74.2223 166.399 74.2498 166.537 74.2503H166.589C166.726 74.2508 166.862 74.2243 166.989 74.1721C167.116 74.12 167.232 74.0433 167.33 73.9465C167.427 73.8497 167.505 73.7346 167.558 73.6078C167.611 73.4811 167.638 73.3451 167.639 73.2077L167.672 63.8059ZM181.512 75.6181C180.248 74.3165 180.31 71.933 180.38 70.2464C180.384 70.1487 180.435 70.0999 180.534 70.0999H181.788C181.85 70.0999 181.911 70.1128 181.967 70.1377C182.023 70.1626 182.073 70.1989 182.114 70.2443C182.156 70.2897 182.187 70.3432 182.206 70.4014C182.225 70.4595 182.232 70.521 182.225 70.5818C182.147 71.366 182.091 73.8511 183.033 74.2527C183.702 74.5385 184.047 74.2338 184.21 73.5913C185.112 70.0456 182.601 69.3392 181.07 66.9652C179.676 64.8061 180.097 60.2942 183.688 60.9391C186.175 61.3856 186.064 64.0526 185.946 65.9872C185.935 66.1668 185.84 66.255 185.66 66.2518L184.753 66.2376C184.674 66.2363 184.596 66.2188 184.525 66.1862C184.453 66.1536 184.388 66.1066 184.336 66.0482C184.283 65.9897 184.242 65.921 184.217 65.8463C184.192 65.7717 184.182 65.6926 184.188 65.614C184.254 64.8132 184.247 63.3746 183.742 62.7226C183.715 62.6875 183.68 62.6594 183.64 62.6405C183.6 62.6216 183.557 62.6125 183.513 62.614C182.799 62.6423 182.365 63.0092 182.211 63.7148C181.968 64.8179 182.254 65.5006 183.054 66.3439C185.395 68.8101 187.16 71.0613 185.866 74.685C185.313 76.237 182.977 76.0291 181.751 75.7527C181.66 75.7311 181.577 75.6844 181.512 75.6181Z" fill="#113B44"/>
<path d="M72.4146 61.088H71.0634C70.9095 61.088 70.7847 61.2128 70.7847 61.3667V75.5685C70.7847 75.7224 70.9095 75.8472 71.0634 75.8472H72.4146C72.5686 75.8472 72.6934 75.7224 72.6934 75.5685V61.3667C72.6934 61.2128 72.5686 61.088 72.4146 61.088Z" fill="#113B44"/>
<path d="M77.4227 67.3644C77.4086 67.3213 77.3802 67.2842 77.3423 67.2592C77.3043 67.2342 77.259 67.2229 77.2138 67.227C77.1685 67.2311 77.126 67.2504 77.0932 67.2818C77.0603 67.3132 77.0391 67.3549 77.033 67.3999C76.992 67.7322 76.9794 68.0755 76.9952 68.4298C77.0849 70.4503 77.1125 72.4708 77.0779 74.4913C77.0708 74.8882 77.1653 75.2803 77.1393 75.6984C77.1346 75.7835 77.0897 75.8252 77.0046 75.8236L75.3983 75.7953C75.318 75.7937 75.2778 75.752 75.2778 75.6701L75.3227 61.4211C75.323 61.3712 75.3332 61.3219 75.3526 61.276C75.372 61.2301 75.4004 61.1886 75.4359 61.1536C75.4715 61.1187 75.5136 61.0912 75.5599 61.0726C75.6061 61.0541 75.6556 61.0448 75.7054 61.0455L76.629 61.062C76.6754 61.0627 76.7203 61.0779 76.7576 61.1054C76.7949 61.1329 76.8226 61.1715 76.8369 61.2155L79.6527 69.7314C79.6593 69.7528 79.6727 69.7714 79.6909 69.7843C79.7091 69.7972 79.7311 69.8038 79.7534 69.803C79.7758 69.8022 79.7972 69.7941 79.8145 69.7798C79.8317 69.7656 79.8437 69.7461 79.8488 69.7243C79.9732 69.2456 80.0149 68.7558 79.974 68.255C79.7866 65.9164 79.7448 63.5754 79.8488 61.2321C79.8535 61.1266 79.9086 61.0738 80.0141 61.0738L81.4031 61.0809C81.4447 61.0809 81.4846 61.0975 81.5142 61.1271C81.5438 61.1567 81.5608 61.197 81.5614 61.2392L81.585 75.6866C81.585 75.7716 81.5433 75.8142 81.4598 75.8142H80.1653C80.0787 75.8142 80.022 75.7716 79.9952 75.6866L77.4227 67.3644ZM94.1521 62.8951L94.1403 67.3644C94.1403 67.4215 94.1624 67.4763 94.2021 67.5173C94.2418 67.5583 94.2959 67.5823 94.3529 67.5841L96.4742 67.6621C96.5304 67.6645 96.5835 67.6884 96.6226 67.7288C96.6618 67.7693 96.6839 67.8231 96.6844 67.8794L96.6891 68.9802C96.6891 69.0385 96.666 69.0944 96.6248 69.1355C96.5836 69.1767 96.5277 69.1999 96.4695 69.1999H94.3623C94.3041 69.1999 94.2482 69.223 94.207 69.2642C94.1658 69.3054 94.1427 69.3613 94.1427 69.4196L94.1568 74.0425C94.1568 74.0999 94.1793 74.1551 94.2195 74.1962C94.2597 74.2372 94.3144 74.2609 94.3718 74.2622L96.6041 74.3118C96.6596 74.3129 96.7125 74.3349 96.7524 74.3735C96.7923 74.4121 96.8161 74.4643 96.8191 74.5197L96.8781 75.5968C96.8797 75.6267 96.8752 75.6565 96.8649 75.6845C96.8546 75.7126 96.8387 75.7382 96.8181 75.7599C96.7975 75.7815 96.7728 75.7988 96.7453 75.8106C96.7179 75.8223 96.6883 75.8284 96.6584 75.8283L92.4726 75.8213C92.4143 75.8213 92.3584 75.7981 92.3172 75.7569C92.276 75.7157 92.2529 75.6598 92.2529 75.6016L92.26 61.3525C92.26 61.2947 92.2828 61.2392 92.3235 61.198C92.3641 61.1569 92.4194 61.1335 92.4773 61.1329L96.5498 61.0714C96.5794 61.0708 96.6089 61.0762 96.6364 61.0872C96.6639 61.0983 96.6889 61.1148 96.7099 61.1357C96.7309 61.1567 96.7474 61.1817 96.7584 61.2092C96.7695 61.2367 96.7748 61.2662 96.7742 61.2959L96.7553 62.4888C96.755 62.5176 96.749 62.5461 96.7377 62.5727C96.7263 62.5992 96.7099 62.6233 96.6893 62.6434C96.6687 62.6636 96.6443 62.6795 96.6175 62.6903C96.5907 62.701 96.5621 62.7064 96.5332 62.7061L94.3742 62.6754C94.3451 62.6751 94.3163 62.6805 94.2894 62.6914C94.2624 62.7023 94.2379 62.7185 94.2173 62.7389C94.1966 62.7593 94.1802 62.7837 94.1691 62.8105C94.1579 62.8373 94.1521 62.866 94.1521 62.8951ZM103.67 61.6266C105.283 62.7604 104.978 66.7337 104.555 68.333C104.118 69.9936 102.706 70.3078 101.173 70.2629C101.127 70.2616 101.082 70.2695 101.04 70.2859C100.998 70.3024 100.96 70.3272 100.928 70.3587C100.895 70.3903 100.87 70.428 100.853 70.4696C100.836 70.5112 100.827 70.5558 100.828 70.6007L100.903 75.6228C100.907 75.7504 100.844 75.8142 100.717 75.8142H99.0585C98.975 75.8142 98.9333 75.7716 98.9333 75.6866C98.9262 70.9196 98.7089 65.9873 99.0089 61.2439C99.0136 61.1588 99.0585 61.1155 99.1435 61.114C100.54 61.0927 102.486 60.7927 103.67 61.6266ZM100.868 62.7746L100.858 68.4865C100.858 68.5372 100.879 68.5859 100.915 68.6218C100.95 68.6577 100.999 68.6778 101.05 68.6778H101.083C101.593 68.6784 102.083 68.4622 102.444 68.0769C102.805 67.6916 103.009 67.1685 103.01 66.6227L103.015 64.6479C103.016 64.3771 102.967 64.1089 102.87 63.8586C102.774 63.6083 102.632 63.3807 102.454 63.189C102.275 62.9972 102.063 62.845 101.83 62.7411C101.596 62.6372 101.345 62.5835 101.092 62.5833H101.059C101.009 62.5833 100.96 62.6034 100.924 62.6393C100.888 62.6752 100.868 62.7239 100.868 62.7746ZM114.994 67.1329L115.266 75.6748C115.266 75.6929 115.263 75.7109 115.257 75.7278C115.25 75.7447 115.241 75.7601 115.228 75.7731C115.215 75.7861 115.2 75.7964 115.184 75.8035C115.167 75.8105 115.149 75.8142 115.131 75.8142H113.574C113.496 75.8142 113.456 75.774 113.456 75.6937L113.452 61.2699C113.452 61.1974 113.486 61.1502 113.556 61.1281C114.838 60.736 114.954 61.4352 115.306 62.4864C116.164 65.0581 117.019 67.6038 117.869 70.1235C117.876 70.1446 117.891 70.1625 117.911 70.174C117.93 70.1855 117.953 70.1898 117.975 70.186C117.997 70.1823 118.017 70.1709 118.031 70.1538C118.045 70.1367 118.052 70.1151 118.051 70.0928L117.914 61.336C117.913 61.2752 117.935 61.2162 117.976 61.1716C118.017 61.1271 118.073 61.1005 118.134 61.0974L119.258 61.036C119.294 61.0337 119.33 61.0389 119.363 61.0512C119.397 61.0635 119.428 61.0826 119.454 61.1074C119.48 61.1322 119.501 61.1621 119.515 61.1954C119.529 61.2286 119.537 61.2644 119.537 61.3006L119.549 75.6606C119.549 75.7598 119.499 75.8079 119.4 75.8047L118.115 75.7811C118.033 75.7795 117.982 75.7386 117.961 75.6583C117.23 72.7401 116.315 69.8834 115.216 67.0881C115.206 67.0637 115.187 67.0436 115.164 67.0313C115.14 67.019 115.113 67.0151 115.087 67.0204C115.061 67.0257 115.037 67.0397 115.021 67.0602C115.004 67.0807 114.994 67.1064 114.994 67.1329ZM141.685 70.2653L141.529 61.2793C141.528 61.2306 141.547 61.1836 141.58 61.1483C141.613 61.113 141.658 61.0922 141.706 61.0903L142.963 61.036C143.081 61.0297 143.14 61.0856 143.14 61.2037L143.176 75.6984C143.176 75.7756 143.137 75.8142 143.06 75.8142H141.81C141.711 75.8142 141.649 75.7653 141.624 75.6677C141.011 73.3212 140.309 71.0062 139.519 68.7227C139.311 68.1243 139.131 67.7085 138.98 67.4755C138.675 67.0014 138.542 67.0306 138.581 67.5629C138.781 70.2527 138.868 72.9488 138.843 75.6512C138.842 75.7598 138.787 75.8142 138.68 75.8142H137.22C137.179 75.8142 137.139 75.7977 137.11 75.7685C137.081 75.7393 137.064 75.6996 137.064 75.6583L137.074 61.2557C137.074 61.1218 137.141 61.0549 137.275 61.0549L138.3 61.0573C138.339 61.0574 138.377 61.0695 138.408 61.0919C138.44 61.1143 138.464 61.1459 138.477 61.1825L141.593 70.2818C141.596 70.2927 141.604 70.3019 141.614 70.3077C141.623 70.3136 141.635 70.3157 141.646 70.3137C141.657 70.3117 141.668 70.3056 141.675 70.2967C141.682 70.2878 141.685 70.2767 141.685 70.2653ZM173.774 67.2723C173.763 67.2457 173.743 67.2237 173.718 67.21C173.692 67.1962 173.663 67.1916 173.635 67.1969C173.607 67.2021 173.581 67.217 173.562 67.2389C173.544 67.2608 173.533 67.2885 173.533 67.3172L173.7 75.6937C173.702 75.774 173.662 75.8142 173.58 75.8142H172.002C171.981 75.8142 171.96 75.81 171.941 75.8021C171.922 75.7941 171.904 75.7824 171.889 75.7676C171.874 75.7529 171.863 75.7355 171.855 75.7163C171.847 75.6971 171.843 75.6766 171.844 75.6559L171.874 61.4423C171.875 61.3844 171.892 61.3278 171.922 61.2787C171.952 61.2296 171.996 61.1898 172.047 61.1636C172.897 60.7313 173.393 61.121 173.667 61.9526C174.539 64.5959 175.345 67.2841 176.469 69.8282C176.475 69.8459 176.488 69.8606 176.504 69.8698C176.52 69.879 176.539 69.882 176.558 69.8782C176.576 69.8745 176.593 69.8643 176.604 69.8495C176.615 69.8347 176.621 69.8162 176.62 69.7976C176.627 69.266 176.653 68.7534 176.597 68.2361C176.343 65.9038 176.285 63.5801 176.424 61.2651C176.428 61.2031 176.456 61.1449 176.502 61.103C176.548 61.0611 176.609 61.0387 176.672 61.0407L177.879 61.0738C178.046 61.0801 178.13 61.1667 178.13 61.3337L178.146 75.6394C178.146 75.7323 178.099 75.7803 178.004 75.7834L176.75 75.8236C176.71 75.8249 176.671 75.8128 176.638 75.7894C176.605 75.766 176.58 75.7324 176.568 75.6937C175.967 73.6889 175.355 71.6905 174.733 69.6983C174.485 68.8999 174.067 68.0802 173.774 67.2723ZM192.48 75.7929C190.22 76.3362 188.214 75.8 188.162 73.0787C188.123 70.9306 188.109 67.2156 188.122 61.9337C188.123 61.625 188.139 61.3864 188.169 61.2179C188.185 61.1313 188.237 61.0864 188.325 61.0833L189.712 61.0384C189.756 61.0371 189.801 61.0448 189.842 61.061C189.884 61.0771 189.921 61.1015 189.953 61.1325C189.985 61.1636 190.011 61.2007 190.028 61.2418C190.045 61.2828 190.054 61.3269 190.054 61.3714C190.056 65.3274 190.056 69.3149 190.054 73.3338C190.054 74.4299 191.195 74.659 191.873 73.974C192.037 73.8086 192.124 73.4181 192.135 72.8023C192.187 69.9629 192.224 67.1243 192.244 64.2864C192.251 63.5612 192.112 62.2785 192.27 61.2392C192.284 61.1525 192.335 61.1092 192.421 61.1092H193.893C193.936 61.1093 193.978 61.125 194.011 61.1532C194.043 61.1814 194.064 61.2203 194.07 61.2628C194.195 62.0825 194.051 62.9754 194.07 63.6486C194.16 66.74 194.146 69.8298 194.027 72.9181C193.99 73.9291 193.685 75.5 192.48 75.7929ZM201.098 74.6071V75.5283C201.098 75.6016 201.069 75.6719 201.017 75.7238C200.965 75.7756 200.895 75.8047 200.821 75.8047L196.822 75.8189C196.785 75.8192 196.749 75.8122 196.715 75.7983C196.681 75.7844 196.65 75.7639 196.624 75.7379C196.598 75.712 196.578 75.6811 196.564 75.6472C196.55 75.6132 196.543 75.5768 196.543 75.5401L196.6 61.2959C196.6 61.2575 196.608 61.2195 196.624 61.1845C196.64 61.1494 196.662 61.118 196.691 61.0922C196.719 61.0664 196.753 61.0468 196.789 61.0347C196.826 61.0226 196.864 61.0182 196.902 61.0218L198.152 61.147C198.219 61.154 198.282 61.1855 198.328 61.2356C198.373 61.2857 198.399 61.3509 198.4 61.4187L198.457 73.9858C198.457 74.0575 198.484 74.1264 198.534 74.178C198.584 74.2295 198.652 74.2597 198.724 74.2622L200.831 74.3307C200.902 74.3331 200.97 74.3633 201.02 74.4149C201.07 74.4665 201.098 74.5354 201.098 74.6071ZM209.769 73.2937L209.427 75.6937C209.416 75.7756 209.369 75.8157 209.288 75.8142L207.7 75.8071C207.591 75.8071 207.546 75.7535 207.563 75.6464L209.805 61.3053C209.814 61.2407 209.851 61.1982 209.914 61.1777C210.591 60.9699 211.255 60.9927 211.907 61.2462C211.995 61.2809 212.047 61.3455 212.063 61.4399L214.442 75.6063C214.445 75.6277 214.444 75.6497 214.438 75.6706C214.433 75.6916 214.422 75.7111 214.409 75.7278C214.395 75.7446 214.377 75.7582 214.358 75.7678C214.338 75.7774 214.317 75.7827 214.295 75.7834L212.746 75.826C212.662 75.8275 212.615 75.7866 212.604 75.7031L212.297 73.3598C212.291 73.3158 212.272 73.2747 212.242 73.2425C212.212 73.2102 212.172 73.1884 212.129 73.1803C211.397 73.0291 210.661 73.0141 209.921 73.1354C209.832 73.1511 209.782 73.2039 209.769 73.2937ZM210.254 71.5456L211.789 71.5362C211.885 71.5362 211.93 71.4881 211.924 71.3921C211.817 69.466 211.552 67.5644 211.13 65.6873C210.943 64.851 210.796 64.8589 210.691 65.7109L210.008 71.2692C209.984 71.4535 210.066 71.5456 210.254 71.5456ZM218.16 66.977C218.039 67.4227 217.989 67.8889 218.011 68.3755C218.118 70.7913 218.176 73.222 218.184 75.6677C218.184 75.7653 218.135 75.8142 218.037 75.8142H216.57C216.452 75.8142 216.393 75.7551 216.393 75.637V61.277C216.393 61.2382 216.408 61.2008 216.434 61.1724C216.46 61.1439 216.496 61.1264 216.535 61.1234L217.567 61.036C217.673 61.0281 217.744 61.0738 217.78 61.173C218.845 64.0384 219.698 67.0101 220.763 69.8117C220.769 69.8267 220.779 69.8394 220.793 69.8478C220.806 69.8562 220.822 69.8597 220.838 69.8578C220.854 69.8559 220.869 69.8486 220.88 69.8373C220.891 69.8259 220.899 69.8111 220.9 69.7952C221.207 66.9865 220.825 64.0549 220.936 61.2061C220.94 61.1006 220.996 61.0478 221.101 61.0478L222.138 61.0573C222.396 61.0604 222.526 61.1911 222.528 61.4494L222.549 75.689C222.549 75.7724 222.507 75.8142 222.424 75.8142H221.158C221.081 75.8142 221.031 75.7779 221.009 75.7055L218.271 66.9747C218.268 66.9627 218.261 66.9523 218.251 66.945C218.241 66.9377 218.229 66.9339 218.216 66.9342C218.204 66.9344 218.192 66.9388 218.182 66.9465C218.171 66.9542 218.164 66.9649 218.16 66.977Z" fill="#113B44"/>
<path d="M84.0933 61.4139C84.0933 61.3312 84.1261 61.2519 84.1846 61.1934C84.2431 61.135 84.3224 61.1021 84.4051 61.1021L87.0673 61.0974C87.8271 61.0963 88.5564 61.4367 89.0946 62.0436C89.6328 62.6505 89.936 63.4742 89.9374 64.3337L89.9516 72.6487C89.9523 73.0744 89.8789 73.496 89.7355 73.8895C89.5921 74.2831 89.3816 74.6407 89.1159 74.9421C88.8503 75.2435 88.5347 75.4828 88.1873 75.6462C87.8398 75.8096 87.4673 75.8939 87.0909 75.8944L84.4287 75.8992C84.346 75.8992 84.2667 75.8663 84.2082 75.8078C84.1497 75.7494 84.1169 75.67 84.1169 75.5873L84.0933 61.4139ZM85.8602 62.9399L85.9169 74.0897C85.9169 74.1336 85.9256 74.1771 85.9425 74.2177C85.9594 74.2583 85.9841 74.2951 86.0153 74.3261C86.0465 74.357 86.0835 74.3815 86.1242 74.3981C86.1648 74.4147 86.2084 74.4231 86.2523 74.4228H86.2972C86.5349 74.4216 86.77 74.3712 86.9891 74.2745C87.2082 74.1779 87.407 74.0368 87.5741 73.8593C87.7413 73.6818 87.8735 73.4715 87.9633 73.2403C88.053 73.0091 88.0986 72.7615 88.0973 72.5117L88.0547 64.499C88.0521 63.9948 87.859 63.5122 87.5179 63.1573C87.1768 62.8025 86.7156 62.6045 86.2358 62.6069H86.1909C86.103 62.6075 86.0189 62.6429 85.9569 62.7052C85.895 62.7676 85.8602 62.852 85.8602 62.9399ZM106.78 75.8519C106.672 75.8519 106.617 75.7984 106.617 75.6913L106.622 61.3076C106.622 61.255 106.643 61.2045 106.681 61.1673C106.718 61.1301 106.769 61.1092 106.823 61.1092H111.053C111.222 61.1092 111.3 61.1935 111.287 61.362L111.209 62.4226C111.194 62.6494 111.072 62.7588 110.846 62.751L108.658 62.6872C108.556 62.684 108.504 62.7344 108.502 62.8384L108.483 67.3809C108.483 67.4865 108.535 67.5487 108.637 67.5676C109.275 67.6857 109.909 67.688 110.539 67.5746C110.627 67.5589 110.717 67.5637 110.803 67.5888C110.889 67.6139 110.967 67.6585 111.033 67.7191C111.099 67.7798 111.149 67.8548 111.181 67.9384C111.213 68.0219 111.225 68.1117 111.216 68.2006L111.131 69.1007C111.122 69.1967 111.07 69.244 110.976 69.2424L108.757 69.2164C108.716 69.2158 108.675 69.2235 108.636 69.239C108.598 69.2546 108.563 69.2777 108.534 69.307C108.505 69.3363 108.481 69.3712 108.466 69.4096C108.45 69.448 108.443 69.4891 108.443 69.5306L108.516 74.0543C108.518 74.1142 108.542 74.1713 108.585 74.2132C108.628 74.2552 108.686 74.2787 108.746 74.2787H111.075C111.116 74.2786 111.156 74.2946 111.186 74.3232C111.216 74.3518 111.234 74.3909 111.235 74.4322L111.29 75.6417C111.296 75.7803 111.23 75.8496 111.091 75.8496L106.78 75.8519ZM122.142 61.3714C122.142 61.2981 122.171 61.2278 122.223 61.176C122.275 61.1241 122.345 61.095 122.418 61.095H125.106C125.868 61.095 126.598 61.4352 127.136 62.0408C127.674 62.6464 127.977 63.4678 127.977 64.3242V72.6535C127.977 73.5099 127.674 74.3312 127.136 74.9368C126.598 75.5424 125.868 75.8826 125.106 75.8826H122.418C122.345 75.8826 122.275 75.8535 122.223 75.8017C122.171 75.7499 122.142 75.6796 122.142 75.6062V61.3714ZM124.008 62.9045L124.046 74.2078C124.046 74.24 124.052 74.2718 124.065 74.3015C124.077 74.3311 124.095 74.3581 124.118 74.3807C124.141 74.4033 124.168 74.4212 124.198 74.4333C124.227 74.4454 124.259 74.4514 124.291 74.4511H124.53C124.733 74.4502 124.934 74.4059 125.121 74.3207C125.308 74.2354 125.478 74.1109 125.62 73.9543C125.763 73.7977 125.876 73.612 125.953 73.4078C126.03 73.2037 126.069 72.9851 126.068 72.7645L126.04 64.3337C126.039 64.1129 125.998 63.8945 125.92 63.6908C125.841 63.4872 125.727 63.3023 125.583 63.1467C125.439 62.9912 125.268 62.868 125.08 62.7843C124.892 62.7006 124.691 62.6579 124.488 62.6588H124.249C124.217 62.6591 124.185 62.6657 124.156 62.6783C124.127 62.6908 124.1 62.709 124.078 62.7318C124.055 62.7546 124.038 62.7816 124.026 62.8112C124.014 62.8409 124.008 62.8726 124.008 62.9045Z" fill="#113B44"/>
<path d="M132.262 67.6266C132.923 67.7258 134.138 67.4423 134.653 67.7164C134.687 67.735 134.716 67.7621 134.736 67.7949C134.756 67.8277 134.768 67.865 134.768 67.903L134.783 68.803C134.783 68.8605 134.773 68.9177 134.751 68.971C134.73 69.0244 134.697 69.0728 134.657 69.1133C134.616 69.1539 134.567 69.1859 134.514 69.2072C134.46 69.2286 134.403 69.2389 134.346 69.2376L132.276 69.188C132.254 69.1874 132.232 69.1912 132.211 69.1993C132.191 69.2073 132.172 69.2194 132.156 69.2348C132.14 69.2502 132.128 69.2686 132.119 69.289C132.111 69.3094 132.106 69.3313 132.106 69.3534L132.151 74.0661C132.151 74.1036 132.159 74.1407 132.174 74.1751C132.189 74.2096 132.21 74.2407 132.237 74.2667C132.265 74.2927 132.297 74.313 132.332 74.3264C132.367 74.3398 132.404 74.3461 132.442 74.3448L134.726 74.2598C134.77 74.2585 134.812 74.2743 134.844 74.3039C134.876 74.3334 134.896 74.3744 134.898 74.418L134.969 75.6464C134.97 75.668 134.967 75.6896 134.96 75.7099C134.953 75.7302 134.941 75.7488 134.926 75.7645C134.911 75.7802 134.894 75.7927 134.874 75.8012C134.854 75.8098 134.832 75.8142 134.811 75.8141H130.445C130.404 75.8141 130.364 75.7977 130.335 75.7685C130.306 75.7392 130.29 75.6996 130.29 75.6582V61.2864C130.29 61.2394 130.308 61.1943 130.341 61.1611C130.375 61.1279 130.42 61.1092 130.467 61.1092H134.844C134.929 61.1092 134.97 61.1517 134.967 61.2368L134.927 62.5549C134.926 62.5772 134.92 62.5992 134.911 62.6195C134.902 62.6397 134.888 62.658 134.872 62.6731C134.855 62.6883 134.836 62.7 134.815 62.7077C134.794 62.7154 134.772 62.7188 134.749 62.7179L132.347 62.6305C132.318 62.6295 132.288 62.6344 132.261 62.6449C132.233 62.6554 132.208 62.6713 132.187 62.6916C132.166 62.7118 132.149 62.7361 132.138 62.763C132.126 62.7898 132.12 62.8187 132.12 62.8478V67.4636C132.12 67.5033 132.135 67.5415 132.161 67.5714C132.187 67.6014 132.223 67.6209 132.262 67.6266ZM146.282 62.8006L144.935 62.6092C144.894 62.6029 144.856 62.5818 144.828 62.5497C144.801 62.5175 144.786 62.4766 144.787 62.4344L144.794 61.2958C144.794 61.2499 144.813 61.206 144.846 61.1737C144.878 61.1415 144.923 61.1234 144.968 61.1234L149.653 61.1021C149.676 61.1018 149.699 61.1061 149.72 61.1147C149.742 61.1234 149.761 61.1362 149.778 61.1525C149.794 61.1687 149.808 61.1881 149.816 61.2095C149.825 61.2308 149.83 61.2538 149.83 61.2769L149.837 62.425C149.838 62.4665 149.824 62.5068 149.797 62.5389C149.771 62.5709 149.734 62.5925 149.693 62.5998L148.37 62.8313C148.33 62.8385 148.293 62.8597 148.267 62.8913C148.24 62.9228 148.226 62.9626 148.226 63.0037L148.278 75.6393C148.278 75.6857 148.26 75.7301 148.227 75.7629C148.194 75.7957 148.15 75.8141 148.103 75.8141H146.535C146.488 75.8141 146.444 75.7957 146.411 75.7629C146.378 75.7301 146.36 75.6857 146.36 75.6393L146.433 62.9754C146.433 62.9328 146.418 62.8916 146.39 62.8594C146.363 62.8272 146.324 62.8063 146.282 62.8006ZM202.957 62.7486C202.591 62.6462 202.21 62.6139 201.813 62.6517C201.727 62.6596 201.677 62.6202 201.665 62.5336C201.601 62.073 201.412 61.095 202.205 61.0927C203.661 61.0895 205.117 61.0997 206.573 61.1234C206.661 61.1249 206.706 61.1698 206.706 61.258L206.708 62.5643C206.708 62.6683 206.656 62.7116 206.552 62.6943C206.108 62.6202 205.669 62.6478 205.234 62.7769C205.15 62.8021 205.109 62.858 205.109 62.9447L205.12 75.6511C205.12 75.744 205.074 75.7913 204.981 75.7929L203.453 75.8236C203.371 75.8251 203.33 75.785 203.33 75.7031L203.361 63.2825C203.361 63.0021 203.226 62.8242 202.957 62.7486ZM225.473 62.7037L224.252 62.5549C224.197 62.5478 224.147 62.5198 224.112 62.4768C224.076 62.4337 224.059 62.3788 224.063 62.3234L224.127 61.3336C224.131 61.2789 224.155 61.2275 224.195 61.1898C224.234 61.1521 224.287 61.1309 224.342 61.1305L228.752 61.0997C228.781 61.0994 228.81 61.1048 228.836 61.1156C228.863 61.1264 228.887 61.1423 228.908 61.1626C228.928 61.1828 228.944 61.2068 228.955 61.2334C228.966 61.2599 228.972 61.2883 228.972 61.3171V62.373C228.972 62.4225 228.955 62.4706 228.924 62.5092C228.893 62.5479 228.85 62.5748 228.802 62.5856L227.713 62.8313C227.665 62.842 227.621 62.869 227.59 62.9076C227.56 62.9463 227.543 62.9944 227.543 63.0439L227.6 75.6015C227.6 75.6303 227.594 75.6587 227.583 75.6852C227.572 75.7118 227.555 75.7358 227.535 75.756C227.515 75.7762 227.49 75.7922 227.464 75.803C227.437 75.8138 227.409 75.8192 227.38 75.8188L225.88 75.8023C225.823 75.8017 225.768 75.7785 225.728 75.7378C225.687 75.6971 225.665 75.6422 225.665 75.585V62.9187C225.665 62.8657 225.645 62.8146 225.61 62.775C225.575 62.7354 225.526 62.71 225.473 62.7037Z" fill="#113B44"/>
</svg>
