<?xml version="1.0" encoding="UTF-8" standalone="no"?>
<!DOCTYPE svg PUBLIC "-//W3C//DTD SVG 1.1//EN" "http://www.w3.org/Graphics/SVG/1.1/DTD/svg11.dtd">
<svg width="100%" height="100%" viewBox="0 0 32 32" version="1.1" xmlns="http://www.w3.org/2000/svg" xmlns:xlink="http://www.w3.org/1999/xlink" xml:space="preserve" xmlns:serif="http://www.serif.com/" style="fill-rule:evenodd;clip-rule:evenodd;stroke-linejoin:round;stroke-miterlimit:1.41421;">
    <g transform="matrix(1.01224,0,0,1.01224,-140.949,-37.3448)">
        <g transform="matrix(1.47656,0,0,1.47656,128.909,28.0341)">
            <rect x="7" y="6" width="21.41" height="21.41" style="fill:rgb(157,157,157);"/>
        </g>
        <g transform="matrix(1.13823,0,0,1.13823,-26.3854,31.0567)">
            <g transform="matrix(3.27121,0,0,3.57227,-31.8149,-24.1174)">
                <rect x="55" y="10.025" width="7" height="4.959" style="fill:white;"/>
            </g>
            <g transform="matrix(0.796082,0,0,0.796082,140.267,-43.4463)">
                <g transform="matrix(1,0,0,1,-200.045,323.352)">
                    <path d="M213.757,-247.824C213.757,-248.04 213.829,-248.184 214.045,-248.328C214.693,-248.544 215.917,-248.616 216.421,-247.608C216.709,-246.384 216.781,-244.944 216.277,-243.864C215.845,-243.216 214.981,-243.216 214.333,-243.36C213.685,-243.504 213.757,-244.008 213.757,-244.296L213.757,-247.824Z" style="fill:rgb(157,157,157);"/>
                </g>
                <g transform="matrix(0.993779,0,0,0.993779,-198.65,321.771)">
                    <path d="M240.005,-237.268C240.005,-234.604 241.405,-228.42 238.741,-228.42L214.693,-231.696C204.375,-228.316 208.405,-233.34 208.405,-236.004L209.669,-248.644C209.669,-254.518 206.132,-255.209 214.725,-254.964L217.501,-254.088C218.293,-254.088 219.013,-253.44 219.013,-252.576L219.013,-247.32C218.941,-247.536 218.869,-247.896 218.653,-248.256C217.069,-250.92 214.333,-249.336 211.309,-249.768L211.165,-249.84L211.165,-238.392L214.621,-238.392C214.189,-238.536 213.757,-239.112 213.757,-239.544L213.757,-243.072L214.909,-241.92C216.853,-241.632 218.077,-242.712 218.293,-243.072C218.725,-243.648 219.013,-244.44 219.013,-244.44L219.013,-235.728L223.477,-235.728C222.829,-235.944 222.397,-236.52 222.325,-237.096L222.325,-243.432L223.909,-241.848C225.133,-241.776 226.573,-241.92 227.581,-242.496C229.021,-243.288 229.597,-244.728 229.597,-244.728L229.597,-244.224C229.597,-242.064 230.101,-239.688 232.477,-238.824C233.341,-238.464 234.349,-238.32 235.429,-238.464C236.149,-238.464 236.869,-238.536 237.589,-238.68L237.589,-244.296L234.205,-244.296C234.781,-244.08 235.285,-243.36 235.285,-242.712C235.285,-242.064 235.285,-241.344 235.285,-240.912C235.285,-240.696 235.141,-240.48 234.925,-240.336C234.637,-240.192 234.349,-240.264 233.989,-240.336C233.629,-240.408 233.197,-240.624 232.981,-240.984C232.189,-242.424 232.189,-244.44 232.477,-246.096C232.621,-246.96 233.341,-248.04 234.277,-248.112C235.429,-248.328 236.869,-248.328 237.589,-247.32L237.589,-249.768C234.565,-250.272 232.909,-250.056 231.757,-249.264C230.749,-248.616 230.317,-247.824 230.317,-247.824C230.317,-247.824 230.461,-250.848 229.525,-252.144C228.445,-253.8 226.789,-254.088 226.501,-254.088L233.685,-254.964C243.241,-256.267 240.005,-251.308 240.005,-248.644L240.005,-237.268Z" style="fill:rgb(157,157,157);"/>
                </g>
                <g transform="matrix(1,0,0,1,-200.045,323.352)">
                    <path d="M222.325,-251.856C222.397,-252.144 222.613,-252.432 222.829,-252.576C223.837,-252.936 225.997,-252.936 226.573,-251.352C227.005,-250.2 226.861,-249.408 226.933,-248.4C226.861,-246.744 226.861,-244.728 225.061,-244.08C224.341,-243.864 223.549,-243.864 222.829,-244.08C222.469,-244.224 222.325,-244.728 222.325,-245.16L222.325,-251.856Z" style="fill:rgb(157,157,157);"/>
                </g>
            </g>
        </g>
    </g>
</svg>
