<svg width="56" height="53" fill="none" xmlns="http://www.w3.org/2000/svg">
  <path d="M28 41.016h-4.922v6.562h9.844v-6.562H28Z" fill="#EDF5FF"/>
  <path d="M28 41.016h4.922v6.562H28v-6.562Z" fill="#D5E8FE"/>
  <path d="m41.644 49.303-9.845-3.28a1.638 1.638 0 0 0-.52-.086h-6.56c-.177 0-.351.03-.52.085l-9.843 3.282a1.64 1.64 0 1 0 1.038 3.111l9.59-3.196h6.031l9.592 3.195a1.637 1.637 0 0 0 2.075-1.036 1.639 1.639 0 0 0-1.037-2.075Z" fill="#EDF5FF"/>
  <path d="M40.606 52.415a1.637 1.637 0 0 0 2.075-1.037 1.64 1.64 0 0 0-1.037-2.075l-9.845-3.28a1.638 1.638 0 0 0-.52-.086H28v3.282h3.014l9.592 3.196Z" fill="#D5E8FE"/>
  <path d="M54.36 0H1.64A1.64 1.64 0 0 0 0 1.64v39.376c0 .906.735 1.64 1.64 1.64h52.72a1.64 1.64 0 0 0 1.64-1.64V1.64A1.64 1.64 0 0 0 54.36 0Z" fill="#07234F"/>
  <path d="M56 41.016V1.64A1.64 1.64 0 0 0 54.36 0H28v42.656h26.36a1.64 1.64 0 0 0 1.64-1.64Z" fill="#020813"/>
  <path d="M28 3.281H3.281v36.094H52.72V3.281H28Z" fill="#76E2F8"/>
  <path d="M28 3.281h24.719v36.094H28V3.281Z" fill="#73BCFF"/>
  <path d="M47.797 22.969h-3.39a1.64 1.64 0 1 1 0-3.282h3.39a1.64 1.64 0 1 1 0 3.282Zm-36.203 0h-3.39a1.64 1.64 0 1 1 0-3.282h3.39a1.64 1.64 0 1 1 0 3.282Z" fill="#020813"/>
  <path d="M28 16.406a4.927 4.927 0 0 0-4.922 4.922 1.64 1.64 0 1 0 3.281 0 1.642 1.642 0 0 1 3.282 0 1.64 1.64 0 1 0 3.28 0A4.927 4.927 0 0 0 28 16.406Z" fill="#47568C"/>
  <path d="M29.64 21.328a1.64 1.64 0 1 0 3.282 0A4.927 4.927 0 0 0 28 16.406v3.282c.905 0 1.64.735 1.64 1.64Z" fill="#020813"/>
  <path d="M18.156 29.531c-4.523 0-8.203-3.68-8.203-8.203s3.68-8.203 8.203-8.203 8.203 3.68 8.203 8.203-3.68 8.203-8.203 8.203Zm19.688 0c-4.523 0-8.203-3.68-8.203-8.203s3.68-8.203 8.203-8.203 8.203 3.68 8.203 8.203-3.68 8.203-8.203 8.203Z" fill="#07234F"/>
  <path d="M18.156 26.25a4.922 4.922 0 1 0 0-9.844 4.922 4.922 0 0 0 0 9.844Z" fill="#EDF5FF"/>
  <path d="M37.844 26.25a4.922 4.922 0 1 0 0-9.844 4.922 4.922 0 0 0 0 9.844Z" fill="#D5E8FE"/>
</svg>
