<svg width="56" height="56" fill="none" xmlns="http://www.w3.org/2000/svg">
  <path d="M28 10H14.14c-4.367 0-7.919 3.552-7.919 7.92 0 4.367 3.552 7.918 7.92 7.918h27.716V10H28Z" fill="#76E2F8"/>
  <path d="M28 10h13.859v15.838H28V10Z" fill="#73BCFF"/>
  <path d="M41.858 25.838a7.92 7.92 0 1 0 0-15.838 7.92 7.92 0 0 0 0 15.838Z" fill="#B5DBFF"/>
  <path d="M41.858 29.798H14.142v15.838h27.717c4.368 0 7.92-3.551 7.92-7.919 0-4.367-3.552-7.919-7.92-7.919Z" fill="#FC6990"/>
  <path d="M49.778 37.717c0-4.367-3.552-7.919-7.92-7.919H28v15.838h13.859c4.367 0 7.919-3.551 7.919-7.919Z" fill="#FA255D"/>
  <path d="M14.141 45.636a7.92 7.92 0 1 0 0-15.838 7.92 7.92 0 0 0 0 15.838Z" fill="#D5E8FE"/>
</svg>
