<svg width="56" height="56" fill="none" xmlns="http://www.w3.org/2000/svg">
  <path d="M41.892 19.097h-.74A15.841 15.841 0 0 0 26.265 8.686c-8.68 0-15.752 7.014-15.845 15.672C4.583 24.905 0 29.833 0 35.81c0 6.344 5.16 11.504 11.504 11.504h30.388C49.67 47.314 56 40.985 56 33.206c0-7.78-6.33-14.109-14.108-14.109Z" fill="#D1F4FF"/>
  <path d="M41.892 19.097h-.74A15.839 15.839 0 0 0 28 8.782v38.532h13.892C49.67 47.314 56 40.985 56 33.206c0-7.78-6.33-14.109-14.108-14.109Z" fill="#A7E5FF"/>
  <path d="M27.352 39.5a1.957 1.957 0 0 1-1.93-2.274l1.303-7.814a1.953 1.953 0 0 1 3.854.642l-1.303 7.814a1.955 1.955 0 0 1-1.924 1.633Z" fill="#07234F"/>
  <path d="M35.163 39.5a1.954 1.954 0 0 1-1.381-3.335l2.525-2.525-2.525-2.526a1.954 1.954 0 0 1 2.762-2.762l3.907 3.907c.763.763.763 2 0 2.762l-3.907 3.907a1.947 1.947 0 0 1-1.381.573Z" fill="#020813"/>
  <path d="M20.837 39.5c-.5 0-1-.19-1.381-.572l-3.907-3.907c-.763-.763-.763-2 0-2.762l3.907-3.907a1.953 1.953 0 1 1 2.762 2.762l-2.525 2.526 2.525 2.526a1.954 1.954 0 0 1-1.381 3.335Z" fill="#07234F"/>
  <path d="M28.972 27.806a1.943 1.943 0 0 0-.972.085v11.497a1.951 1.951 0 0 0 1.276-1.52l1.302-7.814a1.953 1.953 0 0 0-1.606-2.248Z" fill="#020813"/>
</svg>
