<svg width="348" height="90" viewBox="0 0 348 90" fill="none" xmlns="http://www.w3.org/2000/svg">
<path d="M98.9537 54.751C98.6184 54.751 98.4186 54.7398 98.3797 54.7373C96.6528 54.6292 95.3402 53.1417 95.4475 51.4153C95.5548 49.6875 97.0475 48.3572 98.7695 48.4831C98.79 48.4812 102.568 48.6446 106.794 46.5312C108.341 45.7582 110.224 46.3853 110.998 47.9324C111.771 49.4803 111.144 51.3622 109.596 52.1358C104.836 54.5164 100.484 54.751 98.9537 54.751Z" fill="white"/>
<path d="M90.0717 54.736C82.1415 54.736 75.6895 48.284 75.6895 40.3538V27.0451C75.6895 19.1151 82.1415 12.6631 90.0717 12.6631H121.284C129.214 12.6631 135.666 19.1151 135.666 27.0451C135.666 28.7753 134.263 30.1784 132.532 30.1784C130.802 30.1784 129.399 28.7753 129.399 27.0451C129.399 22.5699 125.759 18.9296 121.284 18.9296H90.0717C85.5965 18.9296 81.9562 22.5699 81.9562 27.0451V40.3538C81.9562 44.829 85.5965 48.4693 90.0717 48.4693C91.802 48.4693 93.2051 49.8721 93.2051 51.6026C93.2051 53.3329 91.802 54.736 90.0717 54.736Z" fill="white"/>
<path d="M100.599 9.16824C99.2048 9.16824 98.0746 8.038 98.0746 6.64428C98.0746 5.76408 97.3585 5.04792 96.4783 5.04792C95.5981 5.04792 94.8819 5.76408 94.8819 6.64428C94.8819 8.038 93.7517 9.16824 92.3579 9.16824C90.9642 9.16824 89.834 8.038 89.834 6.64428C89.834 2.98082 92.8146 0 96.4783 0C100.142 0 103.123 2.98082 103.123 6.64428C103.123 8.038 101.992 9.16824 100.599 9.16824Z" fill="white"/>
<path d="M117.077 9.16824C115.683 9.16824 114.553 8.038 114.553 6.64428C114.553 5.76408 113.837 5.04792 112.957 5.04792C112.077 5.04792 111.36 5.76408 111.36 6.64428C111.36 8.038 110.23 9.16824 108.836 9.16824C107.443 9.16824 106.312 8.038 106.312 6.64428C106.312 2.98082 109.293 0 112.957 0C116.62 0 119.601 2.98082 119.601 6.64428C119.601 8.038 118.471 9.16824 117.077 9.16824Z" fill="white"/>
<path d="M123.58 36.3614C120.808 36.3614 118.553 38.6166 118.553 41.389C118.553 44.1613 120.808 46.4166 123.58 46.4166C126.352 46.4166 128.608 44.1613 128.608 41.389C128.608 38.6166 126.352 36.3614 123.58 36.3614ZM123.58 51.8315C117.822 51.8315 113.138 47.1473 113.138 41.389C113.138 35.631 117.822 30.9463 123.58 30.9463C129.338 30.9463 134.023 35.631 134.023 41.389C134.023 47.1473 129.338 51.8315 123.58 51.8315Z" fill="#666FE4"/>
<path d="M105.375 32.5261C102.115 32.5261 98.5575 31.8683 95.2426 29.8796C93.9366 29.0958 93.5132 27.4016 94.2966 26.0951C95.0809 24.7903 96.7734 24.3652 98.0811 25.1491C105.123 29.3738 114.53 25.0628 114.624 25.0187C115.999 24.3739 117.643 24.965 118.291 26.3413C118.939 27.717 118.354 29.3558 116.98 30.0071C116.658 30.1594 111.553 32.5261 105.375 32.5261Z" fill="white"/>
<path d="M164.058 23.8573C163.189 24.4495 162.22 24.7453 161.149 24.7453C160.079 24.7453 159.11 24.4495 158.246 23.8573C157.382 23.2648 156.762 22.4861 156.384 21.5204L152.067 10.7932C151.926 10.416 151.856 10.0294 151.856 9.63485C151.856 8.76613 152.157 8.02711 152.758 7.41705C153.359 6.80698 154.089 6.50195 154.949 6.50195C155.625 6.50195 156.24 6.70208 156.792 7.10111C157.345 7.50013 157.722 8.01149 157.924 8.63445L161.149 18.3617L164.387 8.63445C164.589 8.01149 164.964 7.50013 165.513 7.10111C166.061 6.70208 166.673 6.50195 167.349 6.50195C168.208 6.50195 168.946 6.80922 169.56 7.42325C170.174 8.03802 170.481 8.77481 170.481 9.63485C170.481 9.95948 170.397 10.3454 170.231 10.7932L165.927 21.5204C165.549 22.4861 164.927 23.2648 164.058 23.8573Z" fill="white"/>
<path d="M178.533 18.8046C179.309 19.6339 180.311 20.0485 181.54 20.0485C182.768 20.0485 183.773 19.6339 184.555 18.8046C185.336 17.9755 185.726 16.9159 185.726 15.6255C185.726 14.336 185.336 13.2763 184.555 12.4473C183.773 11.6175 182.768 11.2031 181.54 11.2031C180.311 11.2031 179.309 11.6175 178.533 12.4473C177.756 13.2763 177.368 14.336 177.368 15.6255C177.368 16.9159 177.756 17.9755 178.533 18.8046ZM181.54 25.1688C180.268 25.1688 179.081 25.0059 177.98 24.6813C176.879 24.3569 175.915 23.9028 175.09 23.3195C174.265 22.736 173.557 22.0471 172.965 21.253C172.373 20.4589 171.925 19.5833 171.622 18.6268C171.319 17.6705 171.168 16.6703 171.168 15.6255C171.168 14.5815 171.319 13.5813 171.622 12.6251C171.925 11.6686 172.373 10.7929 172.965 9.99882C173.557 9.20475 174.265 8.51607 175.09 7.93229C175.915 7.34852 176.879 6.89494 177.98 6.56982C179.081 6.2452 180.268 6.08301 181.54 6.08301C183.12 6.08301 184.568 6.33299 185.884 6.83294C187.2 7.33364 188.294 8.01587 189.168 8.88012C190.041 9.74413 190.719 10.7557 191.202 11.9138C191.684 13.0722 191.925 14.3097 191.925 15.6255C191.925 16.9421 191.684 18.1794 191.202 19.3378C190.719 20.4961 190.041 21.5074 189.168 22.3717C188.294 23.2357 187.2 23.9182 185.884 24.4184C184.568 24.9188 183.12 25.1688 181.54 25.1688Z" fill="white"/>
<path d="M199.888 19.372H202.428C203.587 19.372 204.537 19.0496 205.278 18.4048C206.02 17.7595 206.391 16.8409 206.391 15.6471C206.391 14.4624 206.018 13.5434 205.272 12.8897C204.526 12.236 203.578 11.9091 202.428 11.9091H199.888V19.372ZM196.545 24.4923C195.632 24.4923 194.932 24.2488 194.445 23.7619C193.959 23.2751 193.715 22.575 193.715 21.6627V9.61888C193.715 8.70602 193.959 8.0042 194.445 7.51267C194.932 7.0214 195.632 6.77539 196.545 6.77539H203.258C206.145 6.77539 208.413 7.57418 210.063 9.17101C211.712 10.7686 212.538 12.9269 212.538 15.6471C212.538 18.3673 211.712 20.5217 210.063 22.1101C208.413 23.6982 206.145 24.4923 203.258 24.4923H196.545Z" fill="white"/>
<path d="M156.098 32.6393C156.972 32.5265 160.918 32.3011 162.214 34.3021C162.637 34.8941 162.862 35.5706 162.581 36.2754C162.327 36.9519 161.791 37.4876 161.03 37.5156C159.65 37.5719 158.916 36.5854 157.422 36.1903C156.859 36.0215 156.548 36.1903 156.323 36.4445C156.154 36.6697 156.07 36.98 156.239 37.3182C156.633 38.051 158.212 38.4456 158.832 38.615L159.339 38.7558C161.087 39.2913 162.862 39.6293 163.511 41.7714C163.99 43.1808 163.595 45.1821 162.581 46.5071C161.002 48.4234 158.183 48.7336 156.633 48.5927C155.168 48.4797 152.265 47.4934 151.25 45.6615C150.855 44.9286 150.714 44.0547 151.109 43.2939C151.475 42.6171 151.983 42.2228 152.715 42.166C154.294 42.0537 154.66 43.2939 156.436 44.3362C157.028 44.6184 157.874 44.9286 158.55 44.5901C158.973 44.4212 159.254 43.9136 159.283 43.519C159.311 43.2368 159.17 42.7582 158.748 42.561C158.071 42.2788 154.378 41.6871 152.771 39.9956C151.7 38.8962 151.56 37.2054 151.983 35.9091C152.659 33.7947 154.153 32.8928 156.098 32.6393Z" fill="white"/>
<path d="M169.276 40.2331L175.026 37.8087C174.773 37.0759 172.799 36.569 171.418 37.1327C170.093 37.6963 169.192 39.0209 169.276 40.2331ZM177.788 46.9133C176.238 48.2378 173.701 48.6043 172.405 48.6043C168.007 48.6043 164.766 44.6017 164.794 40.205C164.823 35.5822 168.571 32.5381 173.166 32.5381C176.125 32.5381 177.365 33.6369 178.436 34.8774C179.056 35.6385 179.508 36.653 179.705 37.6681C179.987 39.218 178.944 39.6974 178.662 39.8105L170.432 43.0798C171.926 44.4889 172.912 44.8839 174.293 44.0943C174.773 43.8129 174.97 43.5867 175.28 43.3615C176.379 42.4315 177.507 42.5726 178.296 43.4463C179.085 44.3485 179.113 45.5039 178.296 46.4339C178.098 46.631 177.985 46.7441 177.788 46.9133Z" fill="white"/>
<path d="M184.519 43.0024C184.491 44.2146 185.449 45.2294 186.661 45.2577C187.845 45.2857 188.888 44.3557 188.916 43.1153C188.944 41.9313 187.985 40.8883 186.774 40.86C185.562 40.832 184.547 41.819 184.519 43.0024ZM185.9 48.5555C182.856 48.8087 180.15 46.5539 179.925 43.4818C179.671 40.4374 181.954 37.7596 184.942 37.5064C186.181 37.4494 187.676 37.8727 188.831 38.4644C188.831 37.5344 188.944 36.7165 188.155 36.2662C186.802 35.4763 185.365 35.984 184.068 36.7736C183.306 37.1962 182.32 36.9425 181.926 36.1811C181.475 35.3923 181.87 34.3772 182.461 33.9546C183.194 33.3909 183.448 33.1938 184.35 32.9118C186.097 32.3479 189.621 32.235 191.509 33.9264C193.257 35.3923 193.229 38.4364 193.2 39.6766V45.0605C193.172 46.0185 193.397 47.4281 192.045 48.3018C191.509 48.6396 190.72 48.7526 190.043 48.4424C189.705 48.2733 189.423 47.9635 188.916 47.2868C188.07 47.8227 186.999 48.4424 185.9 48.5555Z" fill="white"/>
<path d="M203.478 32.6509C204.606 32.9044 205.057 33.9755 205.057 34.8777C205.057 35.695 204.775 36.7664 203.845 37.3298C203.168 37.6963 202.098 37.8375 201.195 37.3861C200.321 36.9635 199.983 36.7664 199.504 36.9635C198.912 37.217 198.997 37.7524 198.997 38.7955V46.603C198.997 47.505 198.066 48.6043 196.855 48.6043C195.671 48.6043 194.656 47.505 194.656 46.603V34.3137C194.656 33.2429 195.671 32.5381 196.855 32.5381C198.066 32.5381 198.912 32.8203 199.025 33.8063C200.18 32.8203 201.872 32.3407 203.478 32.6509Z" fill="white"/>
<path d="M211.798 32.6339C213.659 32.3799 216.759 32.8313 218.563 34.7763C219.24 35.4804 219.408 36.1849 219.24 36.9177C219.042 37.5665 218.535 38.3553 217.802 38.6095C216.646 39.0321 216.195 38.2993 214.898 37.4822C213.884 36.8897 212.531 36.8054 211.403 37.1999C210.248 37.5945 209.177 38.9758 209.177 39.9901C209.177 41.0612 209.346 42.2454 210.501 43.2884C211.403 44.1336 212.588 44.4158 213.799 44.1336C214.363 43.9932 214.758 43.7673 215.406 43.2884C216.111 42.7528 216.505 42.5556 217.041 42.4988C217.689 42.4428 218.422 42.8371 218.901 43.5136C219.296 44.0493 219.408 44.9232 219.127 45.5432C218.506 47.0654 215.857 48.221 214.617 48.4462C212.503 48.8973 209.543 48.5593 207.288 46.3038C205.034 44.0493 204.554 41.2874 204.977 39.1169C205.456 36.6923 206.922 34.2967 209.797 33.1408C210.699 32.7743 211.347 32.6902 211.798 32.6339Z" fill="white"/>
<path d="M234.59 46.6488C234.59 47.551 233.604 48.622 232.419 48.622C231.18 48.622 230.221 47.551 230.221 46.6488V41.4345C230.221 40.4479 230.334 38.0523 228.811 37.0936C228.192 36.7553 227.093 36.671 226.219 37.1504C224.612 38.1647 224.781 39.7994 224.781 41.1247V46.6488C224.781 47.551 223.823 48.622 222.639 48.622C221.399 48.622 220.44 47.551 220.44 46.6488V27.9615C220.44 26.8904 221.399 26.2139 222.639 26.2139C223.935 26.2139 224.781 26.9184 224.781 27.9615V33.0632C226.388 32.4435 229.742 32.2175 231.518 33.2606C233.857 34.6136 234.59 37.0936 234.59 39.4051V46.6488Z" fill="white"/>
<path d="M241.325 42.8648C242.93 42.8934 244.169 44.2168 244.169 45.7939C244.169 47.3424 242.845 48.6097 241.212 48.6096C239.635 48.6095 238.368 47.2581 238.396 45.6811C238.424 44.1041 239.776 42.8368 241.325 42.8648Z" fill="white"/>
<path d="M252.296 36.8289V46.6093C252.296 47.5115 251.31 48.6108 250.126 48.6108C248.914 48.6108 247.928 47.5115 247.928 46.6093V36.8289H247.476C246.377 36.8289 245.419 35.9269 245.419 34.7996C245.419 33.7005 246.321 32.7697 247.42 32.7697H247.928V29.7261C247.928 28.7393 248.914 27.6963 250.126 27.6963C251.31 27.6963 252.296 28.7393 252.296 29.7261V32.7697H253.48C254.58 32.7697 255.482 33.7005 255.482 34.7996C255.482 35.9269 254.523 36.8289 253.424 36.8289H252.296Z" fill="white"/>
<path d="M267.676 45.6841C266.971 47.4039 266.436 48.6153 264.632 48.6153C262.857 48.6153 262.688 47.5162 261.729 45.4586L257.501 35.3961C257.079 34.3247 257.304 33.2259 258.403 32.7462C259.446 32.3237 260.799 32.493 261.306 33.7333L264.773 41.9351L268.24 33.705C268.719 32.493 270.101 32.408 271.172 32.7182C272.327 33.0845 272.552 34.1839 272.074 35.3398L267.676 45.6841Z" fill="white"/>
<path d="M2.28556 85.2861C2.00501 85.2861 1.77455 85.201 1.5942 85.0306C1.42387 84.8503 1.3387 84.6298 1.3387 84.3693V75.6823C1.3387 75.4218 1.42387 75.2064 1.5942 75.036C1.77455 74.8557 1.99499 74.7655 2.2555 74.7655H7.14008C7.4006 74.7655 7.61602 74.8507 7.78635 75.021C7.96671 75.1813 8.05688 75.3917 8.05688 75.6522C8.05688 75.8727 7.96671 76.068 7.78635 76.2384C7.61602 76.4087 7.4006 76.4939 7.14008 76.4939H3.08212L3.21739 76.3135V79.3345L3.11218 79.1391H6.46376C6.72427 79.1391 6.93969 79.2242 7.11003 79.3946C7.29038 79.5549 7.38056 79.7653 7.38056 80.0258C7.38056 80.2462 7.29038 80.4416 7.11003 80.612C6.93969 80.7823 6.72427 80.8675 6.46376 80.8675H3.08212L3.21739 80.7322V84.3693C3.21739 84.6298 3.1222 84.8503 2.93183 85.0306C2.75147 85.201 2.53605 85.2861 2.28556 85.2861ZM12.9343 84.3693C12.9343 84.6298 12.8391 84.8503 12.6487 85.0306C12.4584 85.201 12.2379 85.2861 11.9874 85.2861C11.7069 85.2861 11.4815 85.201 11.3111 85.0306C11.1408 84.8503 11.0556 84.6298 11.0556 84.3693V75.6823C11.0556 75.4218 11.1458 75.2064 11.3261 75.036C11.5065 74.8557 11.737 74.7655 12.0175 74.7655C12.258 74.7655 12.4684 74.8557 12.6487 75.036C12.8391 75.2064 12.9343 75.4218 12.9343 75.6823V84.3693ZM24.4528 74.7655C24.6932 74.7655 24.8886 74.8456 25.0389 75.006C25.1892 75.1663 25.2644 75.3667 25.2644 75.6071V84.3693C25.2644 84.6298 25.1742 84.8503 24.9938 85.0306C24.8235 85.201 24.6081 85.2861 24.3476 85.2861C24.2173 85.2861 24.082 85.2661 23.9418 85.226C23.8115 85.1759 23.7113 85.1108 23.6412 85.0306L17.7346 77.5309L18.1254 77.2904V84.4445C18.1254 84.685 18.0452 84.8853 17.8849 85.0457C17.7346 85.206 17.5342 85.2861 17.2837 85.2861C17.0432 85.2861 16.8478 85.206 16.6976 85.0457C16.5473 84.8853 16.4721 84.685 16.4721 84.4445V75.6823C16.4721 75.4218 16.5573 75.2064 16.7276 75.036C16.908 74.8557 17.1284 74.7655 17.3889 74.7655C17.5292 74.7655 17.6745 74.7955 17.8248 74.8557C17.9751 74.9058 18.0853 74.9859 18.1554 75.0961L23.8816 82.4005L23.6261 82.5808V75.6071C23.6261 75.3667 23.7013 75.1663 23.8516 75.006C24.0019 74.8456 24.2023 74.7655 24.4528 74.7655ZM33.3104 74.7655C34.0318 74.7655 34.6731 74.9008 35.2342 75.1713C35.7953 75.4418 36.2662 75.8226 36.647 76.3135C37.0377 76.7945 37.3283 77.3556 37.5187 77.9968C37.7191 78.6281 37.8193 79.3044 37.8193 80.0258C37.8193 80.9977 37.6439 81.8845 37.2932 82.686C36.9426 83.4776 36.4315 84.1088 35.7602 84.5797C35.0989 85.0507 34.2823 85.2861 33.3104 85.2861H29.7184C29.4579 85.2861 29.2374 85.201 29.0571 85.0306C28.8867 84.8503 28.8016 84.6298 28.8016 84.3693V75.6823C28.8016 75.4218 28.8867 75.2064 29.0571 75.036C29.2374 74.8557 29.4579 74.7655 29.7184 74.7655H33.3104ZM33.1601 83.5577C33.7914 83.5577 34.3074 83.3974 34.7082 83.0768C35.109 82.7461 35.3995 82.3153 35.5799 81.7843C35.7703 81.2432 35.8654 80.657 35.8654 80.0258C35.8654 79.5549 35.8103 79.109 35.7001 78.6882C35.5999 78.2573 35.4396 77.8816 35.2192 77.561C34.9987 77.2303 34.7182 76.9698 34.3775 76.7794C34.0369 76.5891 33.6311 76.4939 33.1601 76.4939H30.53L30.6803 76.3586V83.7231L30.5901 83.5577H33.1601ZM50.1753 77.1251L46.9289 84.7601C46.8588 84.9505 46.7486 85.1008 46.5983 85.211C46.458 85.3112 46.3027 85.3613 46.1323 85.3613C45.8618 85.3613 45.6614 85.2861 45.5312 85.1358C45.4009 84.9855 45.3358 84.8002 45.3358 84.5797C45.3358 84.4896 45.3508 84.3944 45.3809 84.2942L49.1232 75.3065C49.2034 75.1062 49.3236 74.9509 49.4839 74.8406C49.6543 74.7304 49.8346 74.6853 50.025 74.7054C50.2053 74.7054 50.3707 74.7605 50.521 74.8707C50.6813 74.9709 50.7965 75.1162 50.8666 75.3065L54.5639 84.1138C54.614 84.2441 54.639 84.3643 54.639 84.4745C54.639 84.7451 54.5489 84.9605 54.3685 85.1208C54.1982 85.2811 54.0078 85.3613 53.7974 85.3613C53.617 85.3613 53.4517 85.3062 53.3014 85.196C53.1611 85.0857 53.0509 84.9354 52.9708 84.7451L49.7394 77.2153L50.1753 77.1251ZM47.3948 82.9265L48.2214 81.1981H52.2794L52.565 82.9265H47.3948ZM62.9905 83.5277C63.251 83.5277 63.4664 83.6128 63.6368 83.7832C63.8171 83.9435 63.9073 84.1539 63.9073 84.4144C63.9073 84.6649 63.8171 84.8753 63.6368 85.0457C63.4664 85.206 63.251 85.2861 62.9905 85.2861H58.1059C57.8454 85.2861 57.625 85.201 57.4446 85.0306C57.2743 84.8503 57.1891 84.6298 57.1891 84.3693V75.6823C57.1891 75.4218 57.2793 75.2064 57.4597 75.036C57.64 74.8557 57.8705 74.7655 58.151 74.7655C58.3915 74.7655 58.6019 74.8557 58.7822 75.036C58.9726 75.2064 59.0678 75.4218 59.0678 75.6823V83.7832L58.7372 83.5277H62.9905ZM72.7074 83.5277C72.9679 83.5277 73.1834 83.6128 73.3537 83.7832C73.5341 83.9435 73.6242 84.1539 73.6242 84.4144C73.6242 84.6649 73.5341 84.8753 73.3537 85.0457C73.1834 85.206 72.9679 85.2861 72.7074 85.2861H67.8228C67.5623 85.2861 67.3419 85.201 67.1615 85.0306C66.9912 84.8503 66.906 84.6298 66.906 84.3693V75.6823C66.906 75.4218 66.9962 75.2064 67.1766 75.036C67.3569 74.8557 67.5874 74.7655 67.8679 74.7655C68.1084 74.7655 68.3188 74.8557 68.4992 75.036C68.6895 75.2064 68.7847 75.4218 68.7847 75.6823V83.7832L68.4541 83.5277H72.7074ZM88.816 74.7204C89.0464 74.7204 89.2518 74.8106 89.4322 74.9909C89.6226 75.1613 89.7178 75.3817 89.7178 75.6522C89.7178 75.7424 89.7027 75.8376 89.6727 75.9378C89.6526 76.028 89.6126 76.1181 89.5524 76.2083L86.1407 81.0929L86.4113 80.0559V84.3693C86.4113 84.6298 86.3211 84.8503 86.1407 85.0306C85.9704 85.201 85.77 85.2861 85.5396 85.2861C85.2891 85.2861 85.0736 85.201 84.8933 85.0306C84.723 84.8503 84.6378 84.6298 84.6378 84.3693V80.1761L84.758 80.657L81.5117 76.3436C81.4115 76.2133 81.3413 76.0881 81.3012 75.9678C81.2612 75.8476 81.2411 75.7374 81.2411 75.6372C81.2411 75.3667 81.3463 75.1462 81.5567 74.9759C81.7672 74.8056 81.9826 74.7204 82.203 74.7204C82.4836 74.7204 82.729 74.8607 82.9395 75.1412L85.8251 79.124L85.4043 79.0639L88.0645 75.1713C88.2749 74.8707 88.5254 74.7204 88.816 74.7204ZM101.626 80.0258C101.626 80.7773 101.501 81.4787 101.25 82.1299C101 82.7812 100.644 83.3573 100.183 83.8583C99.7325 84.3493 99.1914 84.7351 98.5602 85.0156C97.9389 85.2962 97.2576 85.4364 96.5161 85.4364C95.7747 85.4364 95.0933 85.2962 94.4721 85.0156C93.8509 84.7351 93.3098 84.3493 92.8489 83.8583C92.3981 83.3573 92.0474 82.7812 91.7969 82.1299C91.5464 81.4787 91.4211 80.7773 91.4211 80.0258C91.4211 79.2743 91.5464 78.573 91.7969 77.9217C92.0474 77.2704 92.3981 76.6993 92.8489 76.2083C93.3098 75.7073 93.8509 75.3166 94.4721 75.036C95.0933 74.7555 95.7747 74.6152 96.5161 74.6152C97.2576 74.6152 97.9389 74.7555 98.5602 75.036C99.1914 75.3166 99.7325 75.7073 100.183 76.2083C100.644 76.6993 101 77.2704 101.25 77.9217C101.501 78.573 101.626 79.2743 101.626 80.0258ZM99.6723 80.0258C99.6723 79.3545 99.5371 78.7483 99.2665 78.2072C98.996 77.6562 98.6253 77.2203 98.1544 76.8997C97.6834 76.579 97.1374 76.4187 96.5161 76.4187C95.8949 76.4187 95.3488 76.579 94.8779 76.8997C94.407 77.2203 94.0363 77.6511 93.7657 78.1922C93.5052 78.7333 93.375 79.3445 93.375 80.0258C93.375 80.6971 93.5052 81.3083 93.7657 81.8594C94.0363 82.4005 94.407 82.8313 94.8779 83.1519C95.3488 83.4726 95.8949 83.6329 96.5161 83.6329C97.1374 83.6329 97.6834 83.4726 98.1544 83.1519C98.6253 82.8313 98.996 82.4005 99.2665 81.8594C99.5371 81.3083 99.6723 80.6971 99.6723 80.0258ZM112.099 74.7505C112.359 74.7505 112.569 74.8406 112.73 75.021C112.89 75.1913 112.97 75.4067 112.97 75.6673V81.1079C112.97 81.9396 112.79 82.676 112.429 83.3173C112.079 83.9585 111.593 84.4595 110.971 84.8202C110.35 85.1809 109.629 85.3613 108.807 85.3613C107.985 85.3613 107.259 85.1809 106.628 84.8202C106.007 84.4595 105.516 83.9585 105.155 83.3173C104.804 82.676 104.629 81.9396 104.629 81.1079V75.6673C104.629 75.4067 104.719 75.1913 104.899 75.021C105.08 74.8406 105.31 74.7505 105.591 74.7505C105.821 74.7505 106.027 74.8406 106.207 75.021C106.397 75.1913 106.493 75.4067 106.493 75.6673V81.1079C106.493 81.6089 106.598 82.0448 106.808 82.4155C107.029 82.7762 107.314 83.0568 107.665 83.2572C108.026 83.4575 108.406 83.5577 108.807 83.5577C109.238 83.5577 109.639 83.4575 110.009 83.2572C110.38 83.0568 110.681 82.7762 110.911 82.4155C111.142 82.0448 111.257 81.6089 111.257 81.1079V75.6673C111.257 75.4067 111.332 75.1913 111.482 75.021C111.633 74.8406 111.838 74.7505 112.099 74.7505ZM117.585 85.2861C117.305 85.2861 117.054 85.201 116.834 85.0306C116.614 84.8503 116.503 84.6298 116.503 84.3693V75.6823C116.503 75.4218 116.589 75.2064 116.759 75.036C116.939 74.8557 117.16 74.7655 117.42 74.7655H121.749C122.27 74.7655 122.756 74.9058 123.207 75.1863C123.667 75.4568 124.038 75.8376 124.319 76.3286C124.599 76.8095 124.74 77.3656 124.74 77.9968C124.74 78.3776 124.659 78.7483 124.499 79.109C124.349 79.4697 124.138 79.7954 123.868 80.0859C123.607 80.3765 123.312 80.6019 122.981 80.7623L122.996 80.4166C123.277 80.5669 123.507 80.7472 123.687 80.9576C123.878 81.158 124.023 81.3785 124.123 81.6189C124.234 81.8494 124.299 82.0999 124.319 82.3704C124.359 82.6209 124.384 82.8413 124.394 83.0317C124.414 83.2221 124.444 83.3824 124.484 83.5127C124.534 83.6429 124.624 83.7431 124.755 83.8132C124.975 83.9435 125.11 84.1339 125.16 84.3844C125.22 84.6248 125.165 84.8403 124.995 85.0306C124.885 85.1609 124.745 85.2461 124.574 85.2861C124.404 85.3162 124.234 85.3162 124.063 85.2861C123.893 85.2461 123.753 85.196 123.642 85.1358C123.472 85.0356 123.302 84.8904 123.131 84.7C122.961 84.4996 122.821 84.2341 122.711 83.9034C122.61 83.5728 122.56 83.1469 122.56 82.6259C122.56 82.4556 122.53 82.3003 122.47 82.16C122.41 82.0097 122.325 81.8845 122.215 81.7843C122.104 81.674 121.964 81.5939 121.794 81.5438C121.623 81.4837 121.423 81.4536 121.193 81.4536H118.157L118.382 81.1079V84.3693C118.382 84.6298 118.312 84.8503 118.172 85.0306C118.031 85.201 117.836 85.2861 117.585 85.2861ZM118.172 79.9056H121.674C121.854 79.9056 122.029 79.8254 122.2 79.6651C122.37 79.4948 122.51 79.2693 122.62 78.9888C122.731 78.6982 122.786 78.3826 122.786 78.0419C122.786 77.6011 122.665 77.2353 122.425 76.9448C122.195 76.6442 121.944 76.4939 121.674 76.4939H118.202L118.382 76.0129V80.2663L118.172 79.9056ZM136.97 85.4364C136.269 85.4364 135.638 85.3513 135.077 85.1809C134.516 85.0006 133.98 84.69 133.469 84.2491C133.338 84.1389 133.238 84.0136 133.168 83.8734C133.098 83.7331 133.063 83.5928 133.063 83.4525C133.063 83.2221 133.143 83.0217 133.303 82.8514C133.474 82.671 133.684 82.5808 133.935 82.5808C134.125 82.5808 134.295 82.6409 134.446 82.7612C134.826 83.0718 135.202 83.3072 135.573 83.4676C135.953 83.6279 136.419 83.708 136.97 83.708C137.341 83.708 137.682 83.6529 137.992 83.5427C138.303 83.4225 138.554 83.2672 138.744 83.0768C138.934 82.8764 139.03 82.651 139.03 82.4005C139.03 82.0999 138.939 81.8444 138.759 81.634C138.579 81.4236 138.303 81.2482 137.932 81.1079C137.562 80.9576 137.091 80.8424 136.52 80.7623C135.979 80.6821 135.503 80.5619 135.092 80.4015C134.681 80.2312 134.335 80.0208 134.055 79.7703C133.784 79.5098 133.579 79.2092 133.439 78.8685C133.298 78.5179 133.228 78.1271 133.228 77.6962C133.228 77.045 133.393 76.4889 133.724 76.028C134.065 75.5671 134.521 75.2164 135.092 74.9759C135.663 74.7354 136.294 74.6152 136.986 74.6152C137.637 74.6152 138.238 74.7154 138.789 74.9158C139.35 75.1062 139.806 75.3516 140.157 75.6522C140.447 75.8827 140.593 76.1482 140.593 76.4488C140.593 76.6692 140.507 76.8696 140.337 77.05C140.167 77.2303 139.966 77.3205 139.736 77.3205C139.586 77.3205 139.45 77.2754 139.33 77.1852C139.17 77.045 138.954 76.9147 138.684 76.7945C138.413 76.6642 138.128 76.559 137.827 76.4788C137.527 76.3887 137.246 76.3436 136.986 76.3436C136.555 76.3436 136.189 76.3987 135.888 76.5089C135.598 76.6191 135.377 76.7694 135.227 76.9598C135.077 77.1502 135.002 77.3706 135.002 77.6211C135.002 77.9217 135.087 78.1722 135.257 78.3726C135.437 78.5629 135.693 78.7182 136.024 78.8385C136.354 78.9487 136.75 79.0489 137.211 79.1391C137.812 79.2493 138.338 79.3795 138.789 79.5298C139.25 79.6801 139.631 79.8755 139.931 80.116C140.232 80.3464 140.457 80.642 140.608 81.0027C140.758 81.3534 140.833 81.7843 140.833 82.2953C140.833 82.9465 140.653 83.5076 140.292 83.9786C139.931 84.4495 139.455 84.8102 138.864 85.0607C138.283 85.3112 137.652 85.4364 136.97 85.4364ZM147.396 85.2861C147.116 85.2861 146.885 85.201 146.705 85.0306C146.524 84.8503 146.434 84.6298 146.434 84.3693V75.6522H148.388V84.3693C148.388 84.6298 148.293 84.8503 148.103 85.0306C147.922 85.201 147.687 85.2861 147.396 85.2861ZM144.075 76.4939C143.814 76.4939 143.594 76.4137 143.413 76.2534C143.243 76.0931 143.158 75.8827 143.158 75.6222C143.158 75.3617 143.243 75.1563 143.413 75.006C143.594 74.8456 143.814 74.7655 144.075 74.7655H150.748C151.008 74.7655 151.224 74.8456 151.394 75.006C151.574 75.1663 151.665 75.3767 151.665 75.6372C151.665 75.8977 151.574 76.1081 151.394 76.2684C151.224 76.4187 151.008 76.4939 150.748 76.4939H144.075ZM155.602 85.2861C155.321 85.2861 155.071 85.201 154.85 85.0306C154.63 84.8503 154.52 84.6298 154.52 84.3693V75.6823C154.52 75.4218 154.605 75.2064 154.775 75.036C154.956 74.8557 155.176 74.7655 155.437 74.7655H159.765C160.286 74.7655 160.772 74.9058 161.223 75.1863C161.684 75.4568 162.055 75.8376 162.335 76.3286C162.616 76.8095 162.756 77.3656 162.756 77.9968C162.756 78.3776 162.676 78.7483 162.515 79.109C162.365 79.4697 162.155 79.7954 161.884 80.0859C161.624 80.3765 161.328 80.6019 160.997 80.7623L161.013 80.4166C161.293 80.5669 161.524 80.7472 161.704 80.9576C161.894 81.158 162.04 81.3785 162.14 81.6189C162.25 81.8494 162.315 82.0999 162.335 82.3704C162.375 82.6209 162.4 82.8413 162.41 83.0317C162.43 83.2221 162.46 83.3824 162.5 83.5127C162.551 83.6429 162.641 83.7431 162.771 83.8132C162.991 83.9435 163.127 84.1339 163.177 84.3844C163.237 84.6248 163.182 84.8403 163.011 85.0306C162.901 85.1609 162.761 85.2461 162.591 85.2861C162.42 85.3162 162.25 85.3162 162.08 85.2861C161.909 85.2461 161.769 85.196 161.659 85.1358C161.488 85.0356 161.318 84.8904 161.148 84.7C160.977 84.4996 160.837 84.2341 160.727 83.9034C160.627 83.5728 160.577 83.1469 160.577 82.6259C160.577 82.4556 160.547 82.3003 160.486 82.16C160.426 82.0097 160.341 81.8845 160.231 81.7843C160.121 81.674 159.98 81.5939 159.81 81.5438C159.64 81.4837 159.439 81.4536 159.209 81.4536H156.173L156.398 81.1079V84.3693C156.398 84.6298 156.328 84.8503 156.188 85.0306C156.048 85.201 155.852 85.2861 155.602 85.2861ZM156.188 79.9056H159.69C159.87 79.9056 160.046 79.8254 160.216 79.6651C160.386 79.4948 160.527 79.2693 160.637 78.9888C160.747 78.6982 160.802 78.3826 160.802 78.0419C160.802 77.6011 160.682 77.2353 160.441 76.9448C160.211 76.6442 159.96 76.4939 159.69 76.4939H156.218L156.398 76.0129V80.2663L156.188 79.9056ZM167.032 74.7655H172.067C172.328 74.7655 172.543 74.8507 172.713 75.021C172.894 75.1813 172.984 75.3917 172.984 75.6522C172.984 75.9027 172.894 76.1081 172.713 76.2684C172.543 76.4187 172.328 76.4939 172.067 76.4939H167.859L167.994 76.2384V79.1691L167.874 79.0489H171.391C171.651 79.0489 171.867 79.1341 172.037 79.3044C172.217 79.4647 172.308 79.6751 172.308 79.9356C172.308 80.1861 172.217 80.3915 172.037 80.5518C171.867 80.7021 171.651 80.7773 171.391 80.7773H167.919L167.994 80.657V83.693L167.874 83.5577H172.067C172.328 83.5577 172.543 83.6479 172.713 83.8283C172.894 83.9986 172.984 84.199 172.984 84.4295C172.984 84.6799 172.894 84.8853 172.713 85.0457C172.543 85.206 172.328 85.2861 172.067 85.2861H167.032C166.772 85.2861 166.551 85.201 166.371 85.0306C166.201 84.8503 166.115 84.6298 166.115 84.3693V75.6823C166.115 75.4218 166.201 75.2064 166.371 75.036C166.551 74.8557 166.772 74.7655 167.032 74.7655ZM179.856 77.1251L176.61 84.7601C176.54 84.9505 176.43 85.1008 176.279 85.211C176.139 85.3112 175.984 85.3613 175.813 85.3613C175.543 85.3613 175.342 85.2861 175.212 85.1358C175.082 84.9855 175.017 84.8002 175.017 84.5797C175.017 84.4896 175.032 84.3944 175.062 84.2942L178.804 75.3065C178.884 75.1062 179.005 74.9509 179.165 74.8406C179.335 74.7304 179.516 74.6853 179.706 74.7054C179.886 74.7054 180.052 74.7605 180.202 74.8707C180.362 74.9709 180.478 75.1162 180.548 75.3065L184.245 84.1138C184.295 84.2441 184.32 84.3643 184.32 84.4745C184.32 84.7451 184.23 84.9605 184.05 85.1208C183.879 85.2811 183.689 85.3613 183.478 85.3613C183.298 85.3613 183.133 85.3062 182.982 85.196C182.842 85.0857 182.732 84.9354 182.652 84.7451L179.42 77.2153L179.856 77.1251ZM177.076 82.9265L177.903 81.1981H181.96L182.246 82.9265H177.076ZM187.817 74.7505C187.957 74.7505 188.103 74.7905 188.253 74.8707C188.413 74.9408 188.533 75.036 188.614 75.1563L192.266 80.7773L191.514 80.7472L195.257 75.1563C195.447 74.8857 195.692 74.7505 195.993 74.7505C196.234 74.7505 196.449 74.8356 196.639 75.006C196.83 75.1763 196.925 75.3967 196.925 75.6673V84.3693C196.925 84.6298 196.84 84.8503 196.669 85.0306C196.499 85.201 196.274 85.2861 195.993 85.2861C195.713 85.2861 195.482 85.201 195.302 85.0306C195.131 84.8503 195.046 84.6298 195.046 84.3693V77.2904L195.632 77.4257L192.566 82.0999C192.476 82.2101 192.361 82.3053 192.221 82.3854C192.09 82.4656 191.955 82.5007 191.815 82.4906C191.685 82.5007 191.549 82.4656 191.409 82.3854C191.279 82.3053 191.169 82.2101 191.078 82.0999L188.208 77.561L188.599 76.7644V84.3693C188.599 84.6298 188.518 84.8503 188.358 85.0306C188.198 85.201 187.987 85.2861 187.727 85.2861C187.476 85.2861 187.271 85.201 187.111 85.0306C186.95 84.8503 186.87 84.6298 186.87 84.3693V75.6673C186.87 75.4168 186.96 75.2013 187.141 75.021C187.331 74.8406 187.557 74.7505 187.817 74.7505ZM201.379 74.7655H206.414C206.674 74.7655 206.889 74.8507 207.06 75.021C207.24 75.1813 207.33 75.3917 207.33 75.6522C207.33 75.9027 207.24 76.1081 207.06 76.2684C206.889 76.4187 206.674 76.4939 206.414 76.4939H202.205L202.341 76.2384V79.1691L202.22 79.0489H205.737C205.998 79.0489 206.213 79.1341 206.384 79.3044C206.564 79.4647 206.654 79.6751 206.654 79.9356C206.654 80.1861 206.564 80.3915 206.384 80.5518C206.213 80.7021 205.998 80.7773 205.737 80.7773H202.265L202.341 80.657V83.693L202.22 83.5577H206.414C206.674 83.5577 206.889 83.6479 207.06 83.8283C207.24 83.9986 207.33 84.199 207.33 84.4295C207.33 84.6799 207.24 84.8853 207.06 85.0457C206.889 85.206 206.674 85.2861 206.414 85.2861H201.379C201.118 85.2861 200.898 85.201 200.717 85.0306C200.547 84.8503 200.462 84.6298 200.462 84.3693V75.6823C200.462 75.4218 200.547 75.2064 200.717 75.036C200.898 74.8557 201.118 74.7655 201.379 74.7655ZM211.422 85.2861C211.142 85.2861 210.891 85.201 210.671 85.0306C210.45 84.8503 210.34 84.6298 210.34 84.3693V75.6823C210.34 75.4218 210.425 75.2064 210.596 75.036C210.776 74.8557 210.997 74.7655 211.257 74.7655H215.586C216.107 74.7655 216.593 74.9058 217.043 75.1863C217.504 75.4568 217.875 75.8376 218.156 76.3286C218.436 76.8095 218.576 77.3656 218.576 77.9968C218.576 78.3776 218.496 78.7483 218.336 79.109C218.186 79.4697 217.975 79.7954 217.705 80.0859C217.444 80.3765 217.149 80.6019 216.818 80.7623L216.833 80.4166C217.114 80.5669 217.344 80.7472 217.524 80.9576C217.715 81.158 217.86 81.3785 217.96 81.6189C218.07 81.8494 218.136 82.0999 218.156 82.3704C218.196 82.6209 218.221 82.8413 218.231 83.0317C218.251 83.2221 218.281 83.3824 218.321 83.5127C218.371 83.6429 218.461 83.7431 218.591 83.8132C218.812 83.9435 218.947 84.1339 218.997 84.3844C219.057 84.6248 219.002 84.8403 218.832 85.0306C218.722 85.1609 218.581 85.2461 218.411 85.2861C218.241 85.3162 218.07 85.3162 217.9 85.2861C217.73 85.2461 217.589 85.196 217.479 85.1358C217.309 85.0356 217.139 84.8904 216.968 84.7C216.798 84.4996 216.658 84.2341 216.547 83.9034C216.447 83.5728 216.397 83.1469 216.397 82.6259C216.397 82.4556 216.367 82.3003 216.307 82.16C216.247 82.0097 216.162 81.8845 216.051 81.7843C215.941 81.674 215.801 81.5939 215.631 81.5438C215.46 81.4837 215.26 81.4536 215.029 81.4536H211.993L212.219 81.1079V84.3693C212.219 84.6298 212.149 84.8503 212.009 85.0306C211.868 85.201 211.673 85.2861 211.422 85.2861ZM212.009 79.9056H215.51C215.691 79.9056 215.866 79.8254 216.036 79.6651C216.207 79.4948 216.347 79.2693 216.457 78.9888C216.567 78.6982 216.623 78.3826 216.623 78.0419C216.623 77.6011 216.502 77.2353 216.262 76.9448C216.031 76.6442 215.781 76.4939 215.51 76.4939H212.039L212.219 76.0129V80.2663L212.009 79.9056ZM229.304 84.3693C229.304 84.6298 229.209 84.8503 229.019 85.0306C228.828 85.201 228.608 85.2861 228.358 85.2861C228.077 85.2861 227.852 85.201 227.681 85.0306C227.511 84.8503 227.426 84.6298 227.426 84.3693V75.6823C227.426 75.4218 227.516 75.2064 227.696 75.036C227.877 74.8557 228.107 74.7655 228.388 74.7655C228.628 74.7655 228.839 74.8557 229.019 75.036C229.209 75.2064 229.304 75.4218 229.304 75.6823V84.3693ZM240.823 74.7655C241.063 74.7655 241.259 74.8456 241.409 75.006C241.559 75.1663 241.634 75.3667 241.634 75.6071V84.3693C241.634 84.6298 241.544 84.8503 241.364 85.0306C241.194 85.201 240.978 85.2861 240.718 85.2861C240.587 85.2861 240.452 85.2661 240.312 85.226C240.182 85.1759 240.081 85.1108 240.011 85.0306L234.105 77.5309L234.495 77.2904V84.4445C234.495 84.685 234.415 84.8853 234.255 85.0457C234.105 85.206 233.904 85.2861 233.654 85.2861C233.413 85.2861 233.218 85.206 233.068 85.0457C232.917 84.8853 232.842 84.685 232.842 84.4445V75.6823C232.842 75.4218 232.927 75.2064 233.098 75.036C233.278 74.8557 233.499 74.7655 233.759 74.7655C233.899 74.7655 234.045 74.7955 234.195 74.8557C234.345 74.9058 234.455 74.9859 234.526 75.0961L240.252 82.4005L239.996 82.5808V75.6071C239.996 75.3667 240.071 75.1663 240.222 75.006C240.372 74.8456 240.572 74.7655 240.823 74.7655ZM248.734 85.2861C248.453 85.2861 248.223 85.201 248.042 85.0306C247.862 84.8503 247.772 84.6298 247.772 84.3693V75.6522H249.726V84.3693C249.726 84.6298 249.63 84.8503 249.44 85.0306C249.26 85.201 249.024 85.2861 248.734 85.2861ZM245.412 76.4939C245.152 76.4939 244.931 76.4137 244.751 76.2534C244.581 76.0931 244.495 75.8827 244.495 75.6222C244.495 75.3617 244.581 75.1563 244.751 75.006C244.931 74.8456 245.152 74.7655 245.412 74.7655H252.085C252.346 74.7655 252.561 74.8456 252.732 75.006C252.912 75.1663 253.002 75.3767 253.002 75.6372C253.002 75.8977 252.912 76.1081 252.732 76.2684C252.561 76.4187 252.346 76.4939 252.085 76.4939H245.412ZM256.774 74.7655H261.809C262.07 74.7655 262.285 74.8507 262.455 75.021C262.636 75.1813 262.726 75.3917 262.726 75.6522C262.726 75.9027 262.636 76.1081 262.455 76.2684C262.285 76.4187 262.07 76.4939 261.809 76.4939H257.601L257.736 76.2384V79.1691L257.616 79.0489H261.133C261.393 79.0489 261.609 79.1341 261.779 79.3044C261.959 79.4647 262.049 79.6751 262.049 79.9356C262.049 80.1861 261.959 80.3915 261.779 80.5518C261.609 80.7021 261.393 80.7773 261.133 80.7773H257.661L257.736 80.657V83.693L257.616 83.5577H261.809C262.07 83.5577 262.285 83.6479 262.455 83.8283C262.636 83.9986 262.726 84.199 262.726 84.4295C262.726 84.6799 262.636 84.8853 262.455 85.0457C262.285 85.206 262.07 85.2861 261.809 85.2861H256.774C256.514 85.2861 256.293 85.201 256.113 85.0306C255.942 84.8503 255.857 84.6298 255.857 84.3693V75.6823C255.857 75.4218 255.942 75.2064 256.113 75.036C256.293 74.8557 256.514 74.7655 256.774 74.7655ZM266.818 85.2861C266.537 85.2861 266.287 85.201 266.066 85.0306C265.846 84.8503 265.736 84.6298 265.736 84.3693V75.6823C265.736 75.4218 265.821 75.2064 265.991 75.036C266.172 74.8557 266.392 74.7655 266.652 74.7655H270.981C271.502 74.7655 271.988 74.9058 272.439 75.1863C272.9 75.4568 273.27 75.8376 273.551 76.3286C273.832 76.8095 273.972 77.3656 273.972 77.9968C273.972 78.3776 273.892 78.7483 273.731 79.109C273.581 79.4697 273.371 79.7954 273.1 80.0859C272.84 80.3765 272.544 80.6019 272.213 80.7623L272.228 80.4166C272.509 80.5669 272.739 80.7472 272.92 80.9576C273.11 81.158 273.255 81.3785 273.356 81.6189C273.466 81.8494 273.531 82.0999 273.551 82.3704C273.591 82.6209 273.616 82.8413 273.626 83.0317C273.646 83.2221 273.676 83.3824 273.716 83.5127C273.766 83.6429 273.857 83.7431 273.987 83.8132C274.207 83.9435 274.343 84.1339 274.393 84.3844C274.453 84.6248 274.398 84.8403 274.227 85.0306C274.117 85.1609 273.977 85.2461 273.807 85.2861C273.636 85.3162 273.466 85.3162 273.296 85.2861C273.125 85.2461 272.985 85.196 272.875 85.1358C272.704 85.0356 272.534 84.8904 272.364 84.7C272.193 84.4996 272.053 84.2341 271.943 83.9034C271.843 83.5728 271.793 83.1469 271.793 82.6259C271.793 82.4556 271.762 82.3003 271.702 82.16C271.642 82.0097 271.557 81.8845 271.447 81.7843C271.337 81.674 271.196 81.5939 271.026 81.5438C270.856 81.4837 270.655 81.4536 270.425 81.4536H267.389L267.614 81.1079V84.3693C267.614 84.6298 267.544 84.8503 267.404 85.0306C267.264 85.201 267.068 85.2861 266.818 85.2861ZM267.404 79.9056H270.906C271.086 79.9056 271.262 79.8254 271.432 79.6651C271.602 79.4948 271.742 79.2693 271.853 78.9888C271.963 78.6982 272.018 78.3826 272.018 78.0419C272.018 77.6011 271.898 77.2353 271.657 76.9448C271.427 76.6442 271.176 76.4939 270.906 76.4939H267.434L267.614 76.0129V80.2663L267.404 79.9056ZM281.194 77.1251L277.947 84.7601C277.877 84.9505 277.767 85.1008 277.617 85.211C277.477 85.3112 277.321 85.3613 277.151 85.3613C276.88 85.3613 276.68 85.2861 276.55 85.1358C276.419 84.9855 276.354 84.8002 276.354 84.5797C276.354 84.4896 276.369 84.3944 276.399 84.2942L280.142 75.3065C280.222 75.1062 280.342 74.9509 280.503 74.8406C280.673 74.7304 280.853 74.6853 281.044 74.7054C281.224 74.7054 281.389 74.7605 281.54 74.8707C281.7 74.9709 281.815 75.1162 281.885 75.3065L285.582 84.1138C285.633 84.2441 285.658 84.3643 285.658 84.4745C285.658 84.7451 285.567 84.9605 285.387 85.1208C285.217 85.2811 285.026 85.3613 284.816 85.3613C284.636 85.3613 284.47 85.3062 284.32 85.196C284.18 85.0857 284.07 84.9354 283.989 84.7451L280.758 77.2153L281.194 77.1251ZM278.413 82.9265L279.24 81.1981H283.298L283.584 82.9265H278.413ZM295.499 75.2765C295.759 75.4067 295.91 75.6121 295.95 75.8927C296 76.1732 295.93 76.4288 295.739 76.6592C295.609 76.8396 295.439 76.9398 295.228 76.9598C295.028 76.9798 294.822 76.9398 294.612 76.8396C294.372 76.7293 294.116 76.6442 293.846 76.5841C293.585 76.5239 293.309 76.4939 293.019 76.4939C292.478 76.4939 291.992 76.579 291.561 76.7494C291.14 76.9197 290.78 77.1652 290.479 77.4858C290.178 77.7964 289.948 78.1672 289.788 78.598C289.637 79.0289 289.562 79.5048 289.562 80.0258C289.562 80.637 289.647 81.1681 289.818 81.6189C289.998 82.0698 290.243 82.4456 290.554 82.7461C290.865 83.0467 291.23 83.2722 291.651 83.4225C292.072 83.5628 292.528 83.6329 293.019 83.6329C293.289 83.6329 293.56 83.6078 293.831 83.5577C294.101 83.5076 294.362 83.4175 294.612 83.2872C294.822 83.187 295.028 83.1519 295.228 83.182C295.439 83.2121 295.614 83.3173 295.754 83.4976C295.955 83.7481 296.025 84.0086 295.965 84.2792C295.915 84.5397 295.764 84.73 295.514 84.8503C295.253 84.9805 294.983 85.0907 294.702 85.1809C294.432 85.2611 294.156 85.3212 293.876 85.3613C293.595 85.4114 293.309 85.4364 293.019 85.4364C292.297 85.4364 291.611 85.3212 290.96 85.0907C290.319 84.8603 289.742 84.5196 289.231 84.0687C288.73 83.6179 288.335 83.0568 288.044 82.3854C287.754 81.7041 287.608 80.9176 287.608 80.0258C287.608 79.2543 287.739 78.5429 287.999 77.8916C288.27 77.2403 288.645 76.6792 289.126 76.2083C289.617 75.7274 290.193 75.3566 290.855 75.0961C291.516 74.8256 292.237 74.6903 293.019 74.6903C293.46 74.6903 293.891 74.7404 294.311 74.8406C294.732 74.9408 295.128 75.0861 295.499 75.2765ZM302.397 85.2861C302.116 85.2861 301.886 85.201 301.705 85.0306C301.525 84.8503 301.435 84.6298 301.435 84.3693V75.6522H303.389V84.3693C303.389 84.6298 303.293 84.8503 303.103 85.0306C302.923 85.201 302.687 85.2861 302.397 85.2861ZM299.075 76.4939C298.815 76.4939 298.594 76.4137 298.414 76.2534C298.243 76.0931 298.158 75.8827 298.158 75.6222C298.158 75.3617 298.243 75.1563 298.414 75.006C298.594 74.8456 298.815 74.7655 299.075 74.7655H305.748C306.009 74.7655 306.224 74.8456 306.394 75.006C306.575 75.1663 306.665 75.3767 306.665 75.6372C306.665 75.8977 306.575 76.1081 306.394 76.2684C306.224 76.4187 306.009 76.4939 305.748 76.4939H299.075ZM311.399 84.3693C311.399 84.6298 311.304 84.8503 311.113 85.0306C310.923 85.201 310.703 85.2861 310.452 85.2861C310.172 85.2861 309.946 85.201 309.776 85.0306C309.605 84.8503 309.52 84.6298 309.52 84.3693V75.6823C309.52 75.4218 309.61 75.2064 309.791 75.036C309.971 74.8557 310.202 74.7655 310.482 74.7655C310.723 74.7655 310.933 74.8557 311.113 75.036C311.304 75.2064 311.399 75.4218 311.399 75.6823V84.3693ZM324.616 80.0258C324.616 80.7773 324.49 81.4787 324.24 82.1299C323.989 82.7812 323.634 83.3573 323.173 83.8583C322.722 84.3493 322.181 84.7351 321.55 85.0156C320.928 85.2962 320.247 85.4364 319.506 85.4364C318.764 85.4364 318.083 85.2962 317.462 85.0156C316.84 84.7351 316.299 84.3493 315.838 83.8583C315.388 83.3573 315.037 82.7812 314.786 82.1299C314.536 81.4787 314.411 80.7773 314.411 80.0258C314.411 79.2743 314.536 78.573 314.786 77.9217C315.037 77.2704 315.388 76.6993 315.838 76.2083C316.299 75.7073 316.84 75.3166 317.462 75.036C318.083 74.7555 318.764 74.6152 319.506 74.6152C320.247 74.6152 320.928 74.7555 321.55 75.036C322.181 75.3166 322.722 75.7073 323.173 76.2083C323.634 76.6993 323.989 77.2704 324.24 77.9217C324.49 78.573 324.616 79.2743 324.616 80.0258ZM322.662 80.0258C322.662 79.3545 322.527 78.7483 322.256 78.2072C321.986 77.6562 321.615 77.2203 321.144 76.8997C320.673 76.579 320.127 76.4187 319.506 76.4187C318.884 76.4187 318.338 76.579 317.867 76.8997C317.397 77.2203 317.026 77.6511 316.755 78.1922C316.495 78.7333 316.365 79.3445 316.365 80.0258C316.365 80.6971 316.495 81.3083 316.755 81.8594C317.026 82.4005 317.397 82.8313 317.867 83.1519C318.338 83.4726 318.884 83.6329 319.506 83.6329C320.127 83.6329 320.673 83.4726 321.144 83.1519C321.615 82.8313 321.986 82.4005 322.256 81.8594C322.527 81.3083 322.662 80.6971 322.662 80.0258ZM335.599 74.7655C335.84 74.7655 336.035 74.8456 336.185 75.006C336.336 75.1663 336.411 75.3667 336.411 75.6071V84.3693C336.411 84.6298 336.321 84.8503 336.14 85.0306C335.97 85.201 335.754 85.2861 335.494 85.2861C335.364 85.2861 335.228 85.2661 335.088 85.226C334.958 85.1759 334.858 85.1108 334.788 85.0306L328.881 77.5309L329.272 77.2904V84.4445C329.272 84.685 329.192 84.8853 329.031 85.0457C328.881 85.206 328.681 85.2861 328.43 85.2861C328.19 85.2861 327.994 85.206 327.844 85.0457C327.694 84.8853 327.618 84.685 327.618 84.4445V75.6823C327.618 75.4218 327.704 75.2064 327.874 75.036C328.054 74.8557 328.275 74.7655 328.535 74.7655C328.676 74.7655 328.821 74.7955 328.971 74.8557C329.121 74.9058 329.232 74.9859 329.302 75.0961L335.028 82.4005L334.772 82.5808V75.6071C334.772 75.3667 334.848 75.1663 334.998 75.006C335.148 74.8456 335.349 74.7655 335.599 74.7655ZM343.33 85.4364C342.628 85.4364 341.997 85.3513 341.436 85.1809C340.875 85.0006 340.339 84.69 339.828 84.2491C339.697 84.1389 339.597 84.0136 339.527 83.8734C339.457 83.7331 339.422 83.5928 339.422 83.4525C339.422 83.2221 339.502 83.0217 339.662 82.8514C339.833 82.671 340.043 82.5808 340.294 82.5808C340.484 82.5808 340.654 82.6409 340.805 82.7612C341.185 83.0718 341.561 83.3072 341.932 83.4676C342.313 83.6279 342.778 83.708 343.33 83.708C343.7 83.708 344.041 83.6529 344.352 83.5427C344.662 83.4225 344.913 83.2672 345.103 83.0768C345.293 82.8764 345.389 82.651 345.389 82.4005C345.389 82.0999 345.298 81.8444 345.118 81.634C344.938 81.4236 344.662 81.2482 344.291 81.1079C343.921 80.9576 343.45 80.8424 342.879 80.7623C342.338 80.6821 341.862 80.5619 341.451 80.4015C341.04 80.2312 340.694 80.0208 340.414 79.7703C340.143 79.5098 339.938 79.2092 339.798 78.8685C339.657 78.5179 339.587 78.1271 339.587 77.6962C339.587 77.045 339.753 76.4889 340.083 76.028C340.424 75.5671 340.88 75.2164 341.451 74.9759C342.022 74.7354 342.653 74.6152 343.345 74.6152C343.996 74.6152 344.597 74.7154 345.148 74.9158C345.709 75.1062 346.165 75.3516 346.516 75.6522C346.806 75.8827 346.952 76.1482 346.952 76.4488C346.952 76.6692 346.866 76.8696 346.696 77.05C346.526 77.2303 346.325 77.3205 346.095 77.3205C345.945 77.3205 345.809 77.2754 345.689 77.1852C345.529 77.045 345.313 76.9147 345.043 76.7945C344.772 76.6642 344.487 76.559 344.186 76.4788C343.886 76.3887 343.605 76.3436 343.345 76.3436C342.914 76.3436 342.548 76.3987 342.247 76.5089C341.957 76.6191 341.736 76.7694 341.586 76.9598C341.436 77.1502 341.361 77.3706 341.361 77.6211C341.361 77.9217 341.446 78.1722 341.616 78.3726C341.797 78.5629 342.052 78.7182 342.383 78.8385C342.713 78.9487 343.109 79.0489 343.57 79.1391C344.171 79.2493 344.697 79.3795 345.148 79.5298C345.609 79.6801 345.99 79.8755 346.29 80.116C346.591 80.3464 346.816 80.642 346.967 81.0027C347.117 81.3534 347.192 81.7843 347.192 82.2953C347.192 82.9465 347.012 83.5076 346.651 83.9786C346.29 84.4495 345.814 84.8102 345.223 85.0607C344.642 85.3112 344.011 85.4364 343.33 85.4364Z" fill="#DED3FF"/>
</svg>
