<svg width="206" height="40" fill="none" xmlns="http://www.w3.org/2000/svg">
  <g clip-path="url(#a)">
    <path d="M2.048 10.132H.663l.01-1.275h1.375c.38 0 .677-.067.889-.2.212-.134.36-.345.447-.633.09-.287.135-.665.135-1.132V5.696c0-.355-.024-.655-.07-.901a1.453 1.453 0 0 0-.238-.6.982.982 0 0 0-.447-.343 1.903 1.903 0 0 0-.695-.11H.636v-1.28h1.433c.453 0 .864.071 1.234.215.37.144.688.355.954.632.266.274.47.613.614 1.017.144.404.216.864.216 1.38v1.186c0 .52-.072.98-.216 1.38-.144.4-.348.74-.614 1.017a2.59 2.59 0 0 1-.954.627 3.468 3.468 0 0 1-1.255.216Zm-.47-7.67v7.67H0v-7.67h1.579Zm10.706 6.395v1.275h-3.41V8.857h3.41ZM9.364 2.46v7.67H7.785V2.46h1.579Zm2.462 3.108v1.239H8.874V5.569h2.952Zm.448-3.108v1.28h-3.4V2.46h3.4Zm5.796 5.654c0-.137-.012-.262-.038-.374a.703.703 0 0 0-.161-.31 1.422 1.422 0 0 0-.35-.285 4.098 4.098 0 0 0-.593-.295c-.291-.12-.573-.246-.846-.38a3.984 3.984 0 0 1-.739-.474 2.066 2.066 0 0 1-.522-.632 1.873 1.873 0 0 1-.189-.864c0-.323.06-.616.178-.88a1.93 1.93 0 0 1 .517-.674c.223-.19.483-.336.782-.438a3.137 3.137 0 0 1 1.007-.152c.503 0 .938.102 1.304.305.37.204.656.483.857.838.205.355.307.762.307 1.222h-1.573c0-.218-.032-.409-.097-.574a.797.797 0 0 0-.297-.395.906.906 0 0 0-.528-.142.95.95 0 0 0-.5.12.728.728 0 0 0-.292.322 1.077 1.077 0 0 0-.091.453c0 .127.03.24.091.343.065.098.153.188.264.268.112.078.243.153.394.227.154.074.323.146.506.216.356.137.67.288.943.453.273.161.501.344.684.548.184.2.322.427.415.68.094.252.14.54.14.863 0 .32-.057.612-.172.875-.111.26-.275.485-.49.674-.216.186-.476.33-.782.432a3.146 3.146 0 0 1-1.013.153 3.52 3.52 0 0 1-1.029-.147 2.534 2.534 0 0 1-.857-.459 2.158 2.158 0 0 1-.576-.785c-.14-.32-.21-.697-.21-1.132h1.579c0 .231.023.43.07.595a.898.898 0 0 0 .215.39.95.95 0 0 0 .356.216c.143.045.307.068.49.068.208 0 .374-.038.496-.116a.651.651 0 0 0 .27-.31c.053-.13.08-.278.08-.443Zm5.822-5.653v7.67h-1.568v-7.67h1.568Zm8.222 3.641v3.16a3.634 3.634 0 0 1-.49.406 3.195 3.195 0 0 1-.836.4c-.341.113-.758.17-1.25.17-.435 0-.83-.067-1.186-.2a2.409 2.409 0 0 1-.91-.607 2.748 2.748 0 0 1-.577-1.022c-.133-.41-.199-.897-.199-1.46V5.644c0-.555.063-1.038.189-1.449.129-.414.316-.758.56-1.032.244-.274.535-.478.873-.611.341-.134.726-.2 1.153-.2.59 0 1.072.096 1.45.29.38.193.668.479.862.858.197.38.316.845.355 1.396h-1.525c-.025-.323-.08-.576-.167-.758a.776.776 0 0 0-.35-.39c-.15-.081-.347-.121-.587-.121-.209 0-.39.036-.544.11a.909.909 0 0 0-.388.348 1.786 1.786 0 0 0-.232.622c-.05.252-.076.561-.076.927V6.95c0 .362.03.67.087.927.057.256.142.465.253.627.115.162.258.28.43.353.177.07.383.105.62.105.191 0 .344-.019.459-.058.114-.038.206-.079.274-.12.072-.046.132-.082.178-.106V7.266h-1.126V6.102h2.7Zm8.168-3.641v7.67h-1.525l-2.462-4.799v4.8h-1.498v-7.67H36.3l2.484 4.851V2.461h1.498Zm9.743 1.369-1.686 6.302h-1.665l2.452-7.67h1.04l-.14 1.369Zm1.331 6.302L49.66 3.83l-.156-1.37h1.056l2.473 7.67h-1.676Zm.06-2.86v1.28h-3.54v-1.28h3.54Zm9.396-4.811v7.67h-1.525l-2.463-4.799v4.8h-1.498v-7.67h1.504l2.484 4.851V2.461h1.498Zm4.865 7.671h-1.385l.01-1.275h1.374c.381 0 .678-.067.89-.2.212-.134.36-.345.447-.633.09-.287.134-.665.134-1.132V5.696c0-.355-.023-.655-.07-.901a1.454 1.454 0 0 0-.237-.6.982.982 0 0 0-.447-.343 1.903 1.903 0 0 0-.695-.11h-1.433v-1.28h1.433c.453 0 .864.071 1.234.215.37.144.688.355.954.632.266.274.47.613.614 1.017.144.404.216.864.216 1.38v1.186c0 .52-.072.98-.216 1.38-.144.4-.349.74-.614 1.017-.262.274-.58.483-.954.627a3.468 3.468 0 0 1-1.255.216Zm-.47-7.67v7.67H63.63v-7.67h1.579Z" fill="#CCD5E1"/>
    <path d="M0 15.127h68.715" stroke="#CCD5E1" stroke-width="1.011"/>
    <path d="M5.478 37.21 1.804 23.484 0 23.316v-2.29h7.183v2.29l-1.771.256 1.738 7.236.252 1.045h.065l.263-1.056 3.116-9.77h2.646l3.28 10.226.23.7h.065l.186-.7 1.858-7.68-1.825-.257v-2.29h7.04v2.29l-1.694.167-3.838 13.728h-3.422l-2.744-8.37-.339-1.156h-.066l-.426 1.223L9.01 37.21H5.478Zm20.313 0v-2.278l1.65-.355V23.672l-1.65-.356v-2.29h7.128v2.29l-1.65.356v10.905l1.65.355v2.279h-7.128Zm12.409 0v-2.278l1.662-.355V24.05h-2.46l-.098 1.745h-2.898v-4.768H49.2v4.768h-2.93l-.088-1.745H43.7v10.527l1.661.355v2.279h-7.16Zm12.474 0v-2.278l1.65-.355V23.672l-1.65-.356v-2.29h7.14v2.29l-1.652.356v4.09h5.795v-4.09l-1.65-.356v-2.29h7.126v2.29l-1.65.356v10.905l1.65.355v2.279h-7.128v-2.279l1.651-.355v-3.824h-5.795v3.824l1.651.355v2.279h-7.14Z" fill="#CCD5E1"/>
    <path fill-rule="evenodd" clip-rule="evenodd" d="M78.1 0c-.342 0-.672.14-.914.39-.243.249-.38.587-.38.94v4.518c0 .735.58 1.33 1.295 1.33h19.587s3.335.572 3.335 3.426-2.303 4.079-2.303 4.079l-8.892 1.876v-5.36c0-.734-.58-1.329-1.294-1.329h-5.67c-.714 0-1.294.595-1.294 1.33v7.072l-3.648.762a1.322 1.322 0 0 0-1.036 1.303v4.956c0 .4.174.777.475 1.03.3.253.694.353 1.075.274l18.934-3.92s4.288-.68 4.288 4.241c0 4.92-3.335 4.65-3.335 4.65h-8.575V28.53c0-.397-.173-.774-.47-1.026a1.27 1.27 0 0 0-1.07-.28l-5.59 1.116a1.321 1.321 0 0 0-1.048 1.305v8.586c0 .352.137.69.38.94.242.25.572.39.915.39H98.8c6.244 0 11.274-4.761 11.274-11.176 0-10.36-5.399-9.788-5.399-9.788s5.431-1.855 4.288-9.544C108.042 2.86 103.47 0 97.688 0H78.101Z" fill="#E63946"/>
    <path d="M120.195 7.776h-1.371l.011-1.275h1.36c.377 0 .671-.067.881-.2.21-.133.357-.344.443-.632.089-.288.133-.666.133-1.133V3.34c0-.355-.023-.655-.069-.9a1.476 1.476 0 0 0-.235-.601.972.972 0 0 0-.443-.343 1.865 1.865 0 0 0-.688-.11h-1.42V.106h1.42c.448 0 .855.071 1.222.215.366.144.681.355.944.633.263.274.466.613.608 1.016.143.404.214.864.214 1.38v1.186c0 .52-.071.98-.214 1.38-.142.4-.345.74-.608 1.017-.26.274-.574.483-.944.627-.37.144-.785.216-1.244.216Zm-.464-7.67v7.67h-1.563V.106h1.563Zm11.146 6.395v1.275H127.5V6.501h3.377ZM127.985.105v7.671h-1.563V.106h1.563Zm2.439 3.109v1.238H127.5V3.214h2.924Zm.442-3.109v1.28H127.5V.106h3.366Zm5.417 6.033 1.473-6.033h1.686l-2.252 7.671h-1.137l.23-1.638ZM135.024.105l1.467 6.033.24 1.638h-1.142l-2.235-7.67h1.67Zm11.691 6.396v1.275h-3.378V6.501h3.378ZM143.823.105v7.671h-1.563V.106h1.563Zm2.438 3.109v1.238h-2.924V3.214h2.924Zm.443-3.109v1.28h-3.367V.106h3.367Zm7.31 6.396v1.275h-3.228V6.501h3.228ZM151.266.105v7.671h-1.563V.106h1.563Zm10.86 3.24v1.28c0 .541-.068 1.016-.203 1.423a2.8 2.8 0 0 1-.566 1.017c-.241.27-.535.474-.88.61-.341.138-.72.206-1.136.206-.417 0-.797-.068-1.142-.205a2.404 2.404 0 0 1-.886-.611 2.867 2.867 0 0 1-.571-1.017c-.135-.407-.203-.882-.203-1.422v-1.28c0-.556.066-1.04.198-1.455.131-.418.322-.765.571-1.043.249-.28.544-.492.885-.632A2.902 2.902 0 0 1 159.33 0c.416 0 .795.072 1.136.216.342.14.637.351.886.632.249.278.439.625.571 1.043.135.415.203.9.203 1.454Zm-1.553 1.28v-1.29a4.68 4.68 0 0 0-.08-.933 1.847 1.847 0 0 0-.24-.637 1.008 1.008 0 0 0-.39-.364 1.165 1.165 0 0 0-.533-.116 1.2 1.2 0 0 0-.539.116 1.008 1.008 0 0 0-.39.364 1.934 1.934 0 0 0-.234.637 4.97 4.97 0 0 0-.075.933v1.29c0 .352.027.652.08.901.053.25.133.454.24.612.107.158.237.275.39.353.156.073.336.11.539.11.199 0 .375-.037.528-.11a.981.981 0 0 0 .389-.353c.103-.158.182-.362.235-.612.053-.249.08-.55.08-.9Zm7.413.448h-1.59v-1.28h1.59c.221 0 .4-.049.539-.147a.832.832 0 0 0 .309-.406c.064-.176.097-.372.097-.59a1.81 1.81 0 0 0-.102-.616 1.029 1.029 0 0 0-.304-.47c-.135-.119-.315-.178-.539-.178h-1.088v6.39h-1.558V.106h2.646c.523 0 .973.108 1.35.326.377.218.665.518.864.901.203.38.305.815.305 1.307 0 .495-.102.925-.305 1.29a2.069 2.069 0 0 1-.864.843c-.377.2-.827.3-1.35.3Zm6.196-4.968h1.371l1.585 5.248 1.579-5.248h1.211l-2.209 7.671h-1.168l-2.369-7.67Zm-.555 0h1.307l.203 5.058v2.613h-1.51V.106Zm5.704 0h1.312v7.671h-1.505V5.163l.193-5.058Zm9.118 6.396v1.275h-3.378V6.501h3.378ZM185.557.105v7.671h-1.563V.106h1.563Zm2.438 3.109v1.238h-2.924V3.214h2.924Zm.443-3.109v1.28h-3.367V.106h3.367Zm8.43 0v7.671h-1.51l-2.437-4.8v4.8h-1.483V.106h1.487l2.46 4.852V.105h1.483Zm6.271 0v7.671h-1.552V.106h1.552Zm1.932 0v1.28h-5.378V.106h5.378Z" fill="#CCD5E1"/>
    <path d="M118.168 12.771h86.904" stroke="#CCD5E1" stroke-width="1.011"/>
    <path d="M118.91 34.628v-2.215l1.641-.345V21.469l-1.641-.346v-2.225h7.163c1.993 0 3.547.364 4.663 1.09 1.116.728 1.674 1.812 1.674 3.253 0 .742-.178 1.408-.533 1.999-.355.583-.902 1.026-1.641 1.329.63.136 1.145.37 1.544.702.398.324.692.72.88 1.188.188.461.283.962.283 1.502 0 1.541-.518 2.705-1.555 3.49-1.036.785-2.54 1.177-4.511 1.177h-7.967Zm5.456-2.884h2.511c.754 0 1.319-.148 1.696-.443.384-.296.576-.746.576-1.35 0-.455-.072-.83-.217-1.125a1.383 1.383 0 0 0-.674-.67c-.305-.15-.703-.226-1.196-.226h-2.696v3.814Zm0-6.32h1.544c.898 0 1.569-.141 2.011-.422.449-.288.674-.731.674-1.329 0-.655-.21-1.13-.631-1.426-.413-.303-1.043-.454-1.891-.454h-1.707v3.63Zm11.978 9.204v-2.215l1.642-.345V21.469l-1.642-.346v-2.236h7.783c1.254 0 2.341.198 3.261.594.921.396 1.631.962 2.131 1.696.5.728.75 1.592.75 2.593 0 .922-.254 1.78-.761 2.572-.5.792-1.189 1.43-2.065 1.912-.877.475-1.877.71-3.001.702l-2.641-.032v3.144l1.641.346v2.214h-7.098Zm10.022 0-2.13-6.136 3.315-1.124 1.924 4.678 1.5.378v2.204h-4.609Zm-4.565-8.61h2.37c.739 0 1.308-.17 1.706-.508.399-.346.598-.843.598-1.491 0-.67-.203-1.206-.609-1.61-.405-.41-.985-.616-1.739-.616h-2.326v4.225Zm20.812 8.837c-1.362 0-2.55-.216-3.565-.648-1.007-.44-1.786-1.08-2.337-1.923-.551-.843-.826-1.873-.826-3.09v-7.725l-1.631-.346v-2.225h7.088v2.225l-1.642.346v7.725c0 .634.113 1.16.337 1.577.225.41.551.717.979.918.434.202.96.303 1.576.303.637 0 1.17-.1 1.598-.303a2.05 2.05 0 0 0 .978-.918c.225-.418.337-.943.337-1.577v-7.725l-1.631-.346v-2.225h7.088v2.225l-1.642.346v7.725c0 1.196-.282 2.218-.848 3.068-.565.843-1.351 1.487-2.358 1.934-1 .44-2.167.66-3.501.66Zm19.434 0c-1.507 0-2.851-.302-4.032-.907a6.72 6.72 0 0 1-2.783-2.626c-.674-1.152-1.011-2.55-1.011-4.192v-.724c0-1.512.308-2.848.924-4.008a6.754 6.754 0 0 1 2.652-2.733c1.152-.663 2.518-.994 4.098-.994 1.102 0 2.149.148 3.142.443 1 .288 1.927.785 2.782 1.49v4.052h-2.772l-.38-2.323a5.106 5.106 0 0 0-.783-.432 4.098 4.098 0 0 0-.869-.28 4.753 4.753 0 0 0-.989-.098c-.805 0-1.508.191-2.109.573-.602.381-1.069.936-1.402 1.663-.326.72-.49 1.596-.49 2.626v.745c0 .966.171 1.815.511 2.55.341.727.816 1.297 1.424 1.707.616.41 1.326.616 2.131.616a6.79 6.79 0 0 0 1.304-.13c.442-.093.87-.216 1.283-.367l.38-2.226h2.783v3.965c-.63.433-1.435.81-2.413 1.135-.978.317-2.105.475-3.381.475Zm9.465-.227v-2.215l1.642-.345V21.469l-1.642-.346v-2.225h12.642v4.537h-2.88l-.087-1.62h-4.218v3.23h5.055v2.906h-5.055v3.75h4.424l.087-1.697h2.848v4.624h-12.816Z" fill="#CCD5E1"/>
  </g>
  <defs>
    <clipPath id="a">
      <path fill="#fff" d="M0 0h206v40H0z"/>
    </clipPath>
  </defs>
</svg>
